<svg xmlns="http://www.w3.org/2000/svg" viewBox="0 0 1920 1080"><defs><style>.cls-1,.cls-7,.cls-8{fill:none;}.cls-10,.cls-2{fill:#ffcc62;stroke:#ff9d00;}.cls-10,.cls-11,.cls-2,.cls-3,.cls-4,.cls-5,.cls-6,.cls-7,.cls-8,.cls-9{stroke-miterlimit:10;}.cls-2,.cls-3,.cls-4,.cls-5,.cls-6,.cls-7,.cls-9{stroke-width:2px;}.cls-3{fill:#595462;}.cls-3,.cls-5,.cls-6,.cls-7,.cls-8,.cls-9{stroke:#1b1f32;}.cls-11,.cls-4{fill:#00adab;stroke:#007774;}.cls-5{fill:#e2e2e2;}.cls-6{fill:#403c47;}.cls-9{fill:#101218;}</style></defs><title>AI_Loader_11</title><g id="Layer_31" data-name="Layer 31"><rect class="cls-1" width="1920" height="1080"/></g><g id="_9_-_2" data-name="9 - 2"><polygon class="cls-2" points="1196.51 224.41 1351.19 68.93 1326.08 76.29 1187.63 216.22 1196.51 224.41"/><path class="cls-3" d="M1189.13,233.4c.11-.5-55.45,55.55-55.45,55.55s-6.69-.43-9.28-9.11l56.49-56.44,8.24,10"/><path class="cls-3" d="M1184.37,211.08l-6.51-10.28s-5.53,2.34-5.81,6.8a94.42,94.42,0,0,1,6.37,12.51S1186.46,213.46,1184.37,211.08Z"/><path class="cls-3" d="M1204.23,229.83s-4.36,5.1-14.6,4l-12.53-14.24s2.27-7.47,7.8-9.81Z"/><path class="cls-3" d="M690,355.13c.88,1.1,52.46,44.06,52.46,44.06s-3.87,7.62-9.06,9.06l-51.57-43Z"/><path class="cls-3" d="M680.77,348.06l-.11-17.12s3.09-.66,4.86,1.55L689.39,343s1.66,3.2-1.21,10.93Z"/><path class="cls-3" d="M672.37,358.56l-16.9,2.74s-.14,3.16,2.33,4.53l11,2.06s3.43,1.1,10.58-3Z"/><path class="cls-4" d="M672.6,358.22c-1-.11-177-136.38-177-136.38l23.85,2.65L679.78,348Z"/><polygon class="cls-3" points="668.51 358.77 680.33 342.98 692.15 354.36 682.65 367.39 668.51 358.77"/></g><g id="_9" data-name="9"><circle class="cls-5" cx="1238.35" cy="300.22" r="3.75" transform="translate(258.24 1114.47) rotate(-53.35)"/><path class="cls-5" d="M1224.72,334s12-25.92,12.33-30.68l-.68-.16s-13.46,28.24-13.25,29.64A1.39,1.39,0,0,0,1224.72,334Z"/><path class="cls-6" d="M763.72,627.93s-9.46,9.33-3.62,19l24.48,2.35s14.58-14.26,1.78-27.46Z"/><path class="cls-5" d="M806.61,525c28.06,3.09,25,28,25,28-5.4,39.19-42,86-42,86a82.28,82.28,0,0,1-33-15,288.13,288.13,0,0,0,13.32-55.34s2.78-32.26,17.26-40.7C787.19,528,789.27,523.09,806.61,525Z"/><path class="cls-5" d="M727.33,735s-4,15-3,30h67s8-8-2-10l-29-6a43.59,43.59,0,0,0-12-18Z"/><path class="cls-6" d="M734.33,731s9,3,14,15c0,0,2,4,6,3l5-2s-9-19-17-20Z"/><path class="cls-7" d="M761.1,749.16S752.58,749,745.45,765"/><path class="cls-5" d="M794.71,648s-18.87.21-34.39-4.19c0,0-12.18-3.11-15.12,8.69,0,0,.08,9.85-19,79,0,0,10.41,16.11,29.34,9.36C755.49,740.86,793.61,684,794.71,648Z"/><path class="cls-5" d="M808.93,618.34s.94,21.91-10.23,36.17c0,0-4.18,5.7-14.16-1.27a6.3,6.3,0,0,1-2.2-7.76,28.34,28.34,0,0,1,7.68-9.27s5.61-4.3,9.71-18.49c0,0,1.35-5.67,2.78-4.27A27.67,27.67,0,0,1,808.93,618.34Z"/><path class="cls-5" d="M793.61,515l56-2s12-2,13,3c0,0,11,25,6,39,0,0-17,23-56,18,0,0-37-8-31-50C781.61,523,782.61,515,793.61,515Z"/><path class="cls-6" d="M852.61,500s2,10,1,15c0,0-26,13-63,2,0,0,1-12,2-15Z"/><path class="cls-6" d="M850.61,479s4,5,6,22c0,0-16,11-66,5,0,0-7-14-10-17C780.61,489,835.61,475,850.61,479Z"/><path class="cls-5" d="M702.61,402s-1.92-11,3-14c0,0,18,2,27,15a18.09,18.09,0,0,1-14,11Z"/><path class="cls-5" d="M702.61,400s-25,12-30,38c0,0-1,16,14,16,1,0,14,1,19-8,0,0,14-31,15-32S719.61,397,702.61,400Z"/><path class="cls-6" d="M696.61,430s-7-3-15,2c0,0-10,8-1,18,0,0,12,6,16-3Z"/><path class="cls-5" d="M725.61,418c-.82-.19-15.87-1.48-28.37,7.68a35.8,35.8,0,0,0-6.63,6.32s-5,10-2,19c0,0,2,6,35,11,0,0,9,3,17-6C740.61,456,755.61,425,725.61,418Z"/><path class="cls-6" d="M752.61,459s-20.19,5.66-28.1-8.17c0,0-4.9-14.83,6.1-20.83C730.61,430,744.61,436,752.61,459Z"/><path class="cls-5" d="M738.61,417s-11-5-28,0c0,0-9,6-5,21,0,0,8-1,14,9,0,0,12,13,27,4Z"/><path class="cls-5" d="M799.61,389s-29,0-64,23c0,0-12,13-3,26,0,0,26,41,46,55,0,0,3,3,10-1s29-8,57-4c0,0,15,4,13-16,0,0-6-62-48-80C810.61,392,803.61,389,799.61,389Z"/><path class="cls-6" d="M718.61,393s1.62,5.71,6.81,5.35c0,0,2.19-4.35.19-7.35C725.61,391,723.61,386,718.61,393Z"/><path class="cls-6" d="M713.79,397s-7.87-1.77-8.19-8.83c0,0,6.74-7.38,10.82-8,0,0,6.07-.42,7.38,6.74C723.81,386.88,720,395.55,713.79,397Z"/><path class="cls-6" d="M693.61,377s-1-7-7-7c0,0-2,0-3,3,0,0,1.88,7,6,7C690.61,380,693.61,378,693.61,377Z"/><path class="cls-5" d="M717.61,366a25.45,25.45,0,0,0-17-9s-4,0-6,2c0,0-4,7,18,23,0,0,6,3,10-4Z"/><path class="cls-6" d="M703.61,371c-1-.11-10,3-13,9,0,0,2,6,7,7,0,0,16-2,17-5C714.61,382,712.61,372,703.61,371Z"/><path class="cls-5" d="M817.61,339s-2-6-7-6c0,0-78,18-94,29l.54,2.28L721.61,383l89-18S823.61,354,817.61,339Z"/><path class="cls-6" d="M805.61,360s-10-6-4-17c0,0,7-11,15-4Z"/><path class="cls-5" d="M800.61,383s-1-35,10-44c0,0,12-8,26,3,0,0,12,8,9,50,0,0-3,22-29,11C816.61,403,800.61,397,800.61,383Z"/><path class="cls-6" d="M820.61,370s13,0,18,15c0,0,2,15-10,17,0,0-19-1-18-16S820.61,370,820.61,370Z"/><path class="cls-6" d="M1203.52,620.86s12.17,5.47,10.11,16.46l-22.06,10.88s-12.72-14.67-8.46-25.25Z"/><path class="cls-8" d="M1211.61,639s2-12-8-15"/><circle class="cls-6" cx="1153.11" cy="319.5" r="13.5" transform="translate(100.62 888.72) rotate(-43.89)"/><path class="cls-8" d="M1160.61,313s5,2,1,14"/><path class="cls-6" d="M1051.61,576s-15,3-16,28c0,0,24,4,29-2s5-23,5-23Z"/><path class="cls-5" d="M1151.76,544.93c-6.92-27.37-34-25.61-34-25.61C1079,527.27,1045.49,577,1045.49,577c5,19,21.48,27.31,21.48,27.31s56.61-32,78.11-40.64C1145.09,563.63,1154.56,556,1151.76,544.93Z"/><path class="cls-5" d="M1107.58,679.39s14.1,6.49,25,16.83l-42.75,51.59s-11.26,1.06-6.42-7.92l13.88-26.16a43.59,43.59,0,0,1-6.2-20.72Z"/><path class="cls-6" d="M1100,682.23s-3.43,8.84,2.62,20.35c0,0,1.8,4.09-1.52,6.53l-4.73,2.57s-8.89-19.05-4.55-25.85Z"/><path class="cls-7" d="M1096.94,714.43s5.32-6.67,22.18-1.95"/><path class="cls-5" d="M1029.05,600.21s24.73-3.67,31.78-6.54c0,0,9.17-3.59,14.88,6.28,0,0,4,17.7,36.87,81.16,0,0-7.38,13.58-23.63,15.8C1089,696.9,1030,634.85,1029.05,600.21Z"/><path class="cls-5" d="M1019,570s-4.52,21.46,4.15,37.36c0,0,3.19,6.31,14.17,1.08a6.3,6.3,0,0,0,3.45-7.29,28.34,28.34,0,0,0-6.05-10.41s-4.83-5.17-6.54-19.83c0,0-.4-5.82-2-4.67A27.67,27.67,0,0,0,1019,570Z"/><path class="cls-5" d="M1273.36,772.41,1227.61,774s-7.66-9,2.27-11.33l28.77-7A43.59,43.59,0,0,1,1270,737.24s6.61-8.24,7.61-9.24,21,15,24.75,24Z"/><path class="cls-6" d="M1275.61,731a49.84,49.84,0,0,0-9,21s-.88,5.11-5,5l-3-1s3-20,10-24Z"/><path class="cls-7" d="M1257.61,756s11,3,16,16"/><path class="cls-5" d="M1186.23,516s2.48,14.35,2.19,26.39c0,0-3.92,17.68-40.35,19.79s-42.35-17.64-42.35-17.64-1.8-11.26,3.89-26.74c0,0,1.53-4.86,12.57-4.68l55.43-1.07S1185.67,511.93,1186.23,516Z"/><path class="cls-6" d="M1178.09,498.47a45.78,45.78,0,0,1-.72,16s-31.11,8.72-61.29-.57c0,0-.14-8.06,1.29-11.93Z"/><path class="cls-6" d="M1184.61,478s1.65,9.79-6,25c0,0-34,9-64-2,0,0-1.84-20.22,1.44-29.88Z"/><path class="cls-5" d="M1183.61,479s1.78-.29,8-6c0,0,27.13-25,25.8-51,0,0-.84-18.85-31.8-29-.95-.31-16-5-25-3,0,0-10,1-18,14,0,0-26.61,48.08-30,64,0,0-2,14,23,15C1135.61,483,1176.61,482,1183.61,479Z"/><path class="cls-2" d="M1142.89,408.61s4.46-4.13,7.78-2.73c0,0,6.09,2-4,15.79,0,0-11.74,14.91-18.09,10.71C1128.61,432.38,1137.59,413.29,1142.89,408.61Z"/><path class="cls-7" d="M1183.61,479s1.78-.29,8-6c0,0,27.13-25,25.8-51,0,0-.84-18.85-31.8-29-.95-.31-16-5-25-3,0,0-10,1-18,14,0,0-26.61,48.08-30,64,0,0-2,14,23,15C1135.61,483,1176.61,482,1183.61,479Z"/><path class="cls-6" d="M1131.68,261.45a10.76,10.76,0,0,0-3.75,5.19s2.25,11.83,8.83,13.12a6.46,6.46,0,0,0,4-4.23S1131.89,269.7,1131.68,261.45Z"/><path class="cls-6" d="M1135.43,256.26a7.1,7.1,0,0,0-4.71,5.46s2.25,11.83,10.06,13.81a10.82,10.82,0,0,0,5.94-4.76S1135.11,262.58,1135.43,256.26Z"/><path class="cls-6" d="M1142.33,251.23s-6,.64-7.87,5.3c0,0,4,14.45,12.26,14.24,0,0,3.32-3,3.75-5.19C1150.47,265.58,1142.17,254.39,1142.33,251.23Z"/><path class="cls-6" d="M1159.78,269.22s-3.75,5.19-8.3,7.49a7.27,7.27,0,0,1-6.16-3.48s.59-5.35,6.27-11.08c0,0,8.88,5.84,8.19,7.07"/><path class="cls-6" d="M1146.21,257.77s-6.19-3.42-3.92-12.19c0,0,2.49-6.54,9.39-5,0,0,.19,10.77,1.7,12.41Z"/><path class="cls-6" d="M1150.41,250s-4.67-6.88-1.6-12.14c0,0,5.6-3.22,11.05-2.22h0s-1.84,8.93-.32,10.58h0l-9.13,3.78"/><path class="cls-6" d="M1169.24,242.4s1-8.19.39-9.48-8.08-1-11,1.07-1,8.77-1,8.77l10.83-.67"/><path class="cls-6" d="M1132.72,557.89a19.47,19.47,0,0,1,.67-18.1c5.43-9.3,24.41-14.56,29.46-7.75Z"/><path class="cls-5" d="M1183.19,647.35s24-6.87,30.66-10.63c0,0,8.63-4.75,15.58,4.29,0,0,11.68,22.66,52.56,81.29,0,0-3.68,14.78-19.5,19.09C1262.47,741.39,1188.6,681.58,1183.19,647.35Z"/><path class="cls-5" d="M1185.6,636.88s-45.08-37.32-54.82-75.66c0,0-4.48-22.65,22.6-30.65,0,0,18.2-4.8,33.42,1.59l.59.25c15.33,6.77,12.95,36.69,12.95,36.69s-2.14,18.88,8.61,48.28C1208.94,617.38,1204.38,631,1185.6,636.88Z"/><path class="cls-5" d="M1171.61,629s2.92,25.1,16.05,37.58c0,0,5,5,13.82-3.32a6.3,6.3,0,0,0,1-8,28.34,28.34,0,0,0-9-8s-6.18-3.43-12.31-16.87c0,0-1.65-3.34-3.38-3.82C1177.88,626.52,1174.63,625,1171.61,629Z"/><path class="cls-6" d="M855,525.33a19.47,19.47,0,0,0-17.84,3.14c-8.47,6.65-12,33.46-4.6,37.53Z"/><path class="cls-6" d="M923.69,594.85s-2.38,13.07,7.94,17.6L953,600.3s-5-18.76-16.14-21.18Z"/><path class="cls-5" d="M887.34,681.37s-12.54,9.15-21.19,21.44l52.1,42.12s11.25-1.19,4.73-9L904.2,713a43.59,43.59,0,0,0,2-21.54Z"/><path class="cls-6" d="M895.3,682.66s5.11,8,1.46,20.47c0,0-1,4.37,2.78,6.11l5.15,1.59s4.95-20.43-.65-26.24Z"/><path class="cls-7" d="M904.71,713.62s-6.53-5.48-22.13,2.48"/><path class="cls-5" d="M944.22,576.38s-42.65-45.11-81.3-53.57c0,0-22.79-3.72-29.88,23.61,0,0-4.19,18.35,2.71,33.35l.27.58c7.28,15.1,37.11,11.71,37.11,11.71s24.67,0,54.41,9.75C927.54,601.81,938.93,595.35,944.22,576.38Z"/><path class="cls-5" d="M725.25,341.55s19.81-15.38,28.35-16.41,30.76,8.47,42.52,30.24-3,35.26-3,35.26-24.49,25.08-50.6,23.19c0,0-12.65-2-18.27-18.52s-2.06-48.23-2.06-48.23A8.76,8.76,0,0,1,725.25,341.55Z"/><path class="cls-9" d="M770.61,330l-1,1c-2.92,2.92-1,2.14,3.09,6.57,0,0,16.86,16.67,19.91,27.43,0,0,2,7,7,3.52,0,0,1-.52.66-1.43C800.27,367.08,796.14,344.6,770.61,330Z"/><path class="cls-6" d="M778.17,351.93S789.66,360,794,367.38c0,0,2.9,7.52-4.19,14.64,0,0-12.15,13.32-26.36,13.35a7.2,7.2,0,0,1-5.43-4.42s-6.29-12.86-6.23-19.27c0,0-.43-4.22,4.14-8.24,0,0,10.39-9.59,15.88-11.57C771.77,351.87,775.85,350,778.17,351.93Z"/><path class="cls-6" d="M1177.61,387c0,1-4,6-4,6s14,7,26,7Z"/><path class="cls-5" d="M1234.81,329.68s-21.25-13.32-29.85-13.49-29.76,11.51-39.27,34.35,6.53,34.78,6.53,34.78,26.89,22.5,52.67,18c0,0,12.39-3.25,16.32-20.26s-2.78-48.19-2.78-48.19A8.76,8.76,0,0,0,1234.81,329.68Z"/><path class="cls-9" d="M1188.08,323s6.21,3.38,8.82,6.57,6,7,2.44,11.79c0,0-14.53,17.86-16.49,28.86,0,0-.76,9.4-7.18,4.63,0,0-10.43-6.65-12.95-12.2C1162.73,362.61,1164.15,340,1188.08,323Z"/><path class="cls-10" d="M1188.36,344.36s-8.21-2.37-12.41-1.75c0,0-3.4,1.21-3.79,3.41,0,0,8,6,11.21,3.36A24.42,24.42,0,0,0,1188.36,344.36Z"/><path class="cls-6" d="M1200.21,356.91s-9.16,10.63-11.53,18.84c0,0-1,8,7.65,13.17,0,0,15,9.94,28.82,6.49a7.2,7.2,0,0,0,4.18-5.62s2.95-14,1.32-20.21c0,0-.62-4.2-6-7,0,0-12.43-6.75-18.23-7.33C1206.41,355.29,1202,354.5,1200.21,356.91Z"/><path class="cls-5" d="M1202.23,360.9s-8.78,14.12-11.12,21.64c0,0-.39,2.2,9,8,0,0,11.83,7.56,25,4.91,0,0,2.64-.44,3.47-4.47,0,0,3-12.81,1.74-18.4,0,0,.23-4.16-4.52-6.54,0,0-10.82-5.56-16.62-6.14C1209.22,359.88,1203.89,358.67,1202.23,360.9Z"/><circle class="cls-6" cx="1168.46" cy="379.07" r="20" transform="translate(-36.55 617.69) rotate(-29.18)"/><path class="cls-5" d="M1184,360.28a224.18,224.18,0,0,0-17.94-35.89s-14.68-.46-24.93,5.77c0,0-12.6,15.85-2.83,47.35,0,0,3.85,14,33.61-.53C1171.9,377,1187.81,368.49,1184,360.28Z"/><path class="cls-5" d="M1185.73,414.1s-21.06,9.47-33.94-17.7c0,0,24.82-9.39,20.61-27.4,0,0,6.4-7,14.46-6.93a79.27,79.27,0,0,1,7.75,15.94S1205.61,405,1185.73,414.1Z"/><path class="cls-6" d="M1169.61,245s7.69-1.34,10.12.69a9.13,9.13,0,0,1-1.06,8.18s-6.4,5-11.06,3.14Z"/><path class="cls-5" d="M1173.39,256.82l-4.15-14.41s-18.25-2.66-27,9c0,0,.9,8.9,5.44,13.84A12.13,12.13,0,0,0,1152,268c4.77,1.81,15.35-3.79,19.22-5.53A5.64,5.64,0,0,0,1173.39,256.82Z"/><path class="cls-5" d="M1172.6,305.71s-2.23-37.42-3.82-41.6c0,0-15.17-5.11-22.17-.11,0,0-20.15,20.94-13.58,43.32a11.68,11.68,0,0,0,6.62,6.1s16.87,5.69,29.52-.84C1169.17,312.58,1172.77,310,1172.6,305.71Z"/><path class="cls-5" d="M780.09,353.47s11,7.79,15.24,14.82c0,0,2.88,7.14-3.74,13.73,0,0-11.31,12.35-24.8,12.14a7.15,7.15,0,0,1-5.22-4.26s-6.18-12.22-6.23-18.26c0,0-.48-4,3.79-7.7,0,0,9.71-8.86,14.88-10.64C774,353.31,777.85,351.65,780.09,353.47Z"/><path class="cls-11" d="M788.61,347a10.76,10.76,0,0,0-4-5s-3-1-5,0c0,0,2,4,5,5Z"/><path class="cls-5" d="M814.61,366s-13.93,1.48-21.47,14.24c0,0-8.53,14.76,8.47,25.76,0,0,13,10,27,5,0,0,11-5,9-16,0,0-10-10-5-21C832.61,374,823.61,365,814.61,366Z"/><path class="cls-8" d="M673.11,437.5a16.84,16.84,0,0,1,15.5-12.5,32.17,32.17,0,0,1,8,1"/><path class="cls-5" d="M952.22,598.52s-18.86-.86-34.09-6.14c0,0-13.88-3.49-16,7.07,0,0-2.26,21.9-25.94,89.33,0,0,13.1,10.87,32.39,5.21C908.61,694,956.18,633,952.22,598.52Z"/><path class="cls-5" d="M959.51,568.2s7.52,20.6,1.2,37.57c0,0-2.26,6.7-13.88,3.08a6.3,6.3,0,0,1-4.45-6.73A28.34,28.34,0,0,1,946.9,591s4-5.8,3.66-20.56c0,0-.43-5.82,1.36-4.91A27.67,27.67,0,0,1,959.51,568.2Z"/><path class="cls-5" d="M744.16,339.58S726.43,317.19,725,312.63l.63-.31s19.69,24.31,19.82,25.72A1.39,1.39,0,0,1,744.16,339.58Z"/><circle class="cls-5" cx="723.01" cy="309.9" r="3.75" transform="translate(21.99 666.77) rotate(-50.18)"/></g></svg>