<svg xmlns="http://www.w3.org/2000/svg" viewBox="0 0 1920 1080"><defs><style>.cls-1,.cls-4,.cls-5{fill:none;}.cls-2{fill:#e2e2e2;}.cls-10,.cls-2,.cls-3,.cls-4,.cls-5,.cls-6,.cls-8{stroke:#1b1f32;}.cls-10,.cls-11,.cls-12,.cls-2,.cls-3,.cls-4,.cls-5,.cls-6,.cls-7,.cls-8,.cls-9{stroke-miterlimit:10;}.cls-12,.cls-2,.cls-3,.cls-5,.cls-6,.cls-7,.cls-8{stroke-width:2px;}.cls-10,.cls-3{fill:#403c47;}.cls-6{fill:#595462;}.cls-7,.cls-9{fill:#00adab;stroke:#007774;}.cls-8{fill:#101218;}.cls-11,.cls-12{fill:#ffcc62;stroke:#ff9d00;}</style></defs><title>AI_Loader_6</title><g id="Layer_31" data-name="Layer 31"><rect class="cls-1" width="1920" height="1080"/></g><g id="_6" data-name="6"><path class="cls-2" d="M1257,723s19-2,26,5l10,43.28-55.31,1.26s-8.21-7.79,1.74-10L1264,757s-1-6-1-7c-2.1-3.22-7.53-6.08-9-10Z"/><path class="cls-3" d="M1255,732s5,11,12,13c0,0-1.33,4.51-4.17,4.75S1253,742,1253,740Z"/><path class="cls-2" d="M1264,757s23-3,28,14"/><path class="cls-3" d="M1136,719s-7,14,3,22c0,0,19,4,23-4,0,0,1-16-3-18S1136,719,1136,719Z"/><path class="cls-4" d="M1141,721s-4,13,3,19"/><path class="cls-2" d="M1230.26,666.48c-11.49-25.79-35.61-24.93-35.61-24.93C1157.82,656,1131,716.18,1131,716.18c8.21,17.9,36,14.82,36,14.82s40.17-32.73,59.87-45C1226.87,686,1234.9,676.89,1230.26,666.48Z"/><path class="cls-2" d="M1145.9,748.47s16.72-22,18.1-29.47a20,20,0,0,1,17-8s5.18,3.71,76.36,10.17c0,0,9.16,14,2.28,28.86C1259.64,750,1175.58,766.36,1145.9,748.47Z"/><path class="cls-2" d="M1120,744.42s17.43,13.32,35.51,12.33c0,0,7.07-.16,7.07-12.33a6.3,6.3,0,0,0-5.1-6.25,28.34,28.34,0,0,0-12,1s-6.74,2.14-20.71-2.63c0,0-5.43-2.14-5.1-.16A27.67,27.67,0,0,0,1120,744.42Z"/><path class="cls-2" d="M1269.2,644.47s1.59,14.47.55,26.47c0,0-5,17.41-41.5,17.26S1187.07,668,1187.07,668s-1.11-11.35,5.53-26.45c0,0,1.83-4.76,12.84-3.9l55.39,2.36S1268.88,640.36,1269.2,644.47Z"/><path class="cls-3" d="M1268.18,623s-2.07,10.19-4.18,19c0,0-35,9.78-65,0,0,0,.69-12.15,2.18-16Z"/><path class="cls-3" d="M1270.55,596.69s2.9,16.12-.55,32.31c0,0-38.64,15.74-72.52,11.26,0,0-7.37-17.25-4.77-27.11Z"/><path class="cls-3" d="M1147,549a17.47,17.47,0,0,0-12,12l25,5,4-14Z"/><path class="cls-2" d="M1159,571s-3-17-22-17c0,0-16,2-27,21,0,0-6,12,2,21,0,0,6,8,19,5Z"/><path class="cls-2" d="M1156,542s-12-3-25,10c0,0,1,4,5,4,0,0,6-5,19,1C1155,557,1166,549,1156,542Z"/><path class="cls-2" d="M1224,530s-52,3-64,18c0,0-10.27,10.27-7.36,20q.15.51.36,1c4,10,17,40,30,52,0,0,28,24,59-2,0,0,18-15,21-25,0,0-1-37-22-57C1241,537,1233,530,1224,530Z"/><path class="cls-3" d="M1237,550s-5,16,11,20l20-12s6-7-6-12-26,4-26,4"/><path class="cls-2" d="M1273,552c-.88-.48-20-5-31,22,0,0,15,28,43,39,0,0,16,5,25-1,0,0,11-9,5-21C1315,591,1293,563,1273,552Z"/><path class="cls-2" d="M1276,629s26-5,34-19c0,0,4-17-9-24,0,0-17-8-31,5,0,0-11,13-11,23Z"/><path class="cls-2" d="M1248,624s-5,3-2,5a40.49,40.49,0,0,0,30,1s7.67-4.33-3.17-10.17Z"/><path class="cls-3" d="M1139,578s-11-8-21,0c0,0-5,5-4,11,0,0,2,9,14,10Z"/><path class="cls-4" d="M1132,591s-12.92,3.1-16-8.45"/><path class="cls-3" d="M1174,550l8,11s11,0,21-12Z"/><path class="cls-2" d="M887.33,697s-9.26,12.46-13.88,26.77l62.26,24.76s10.39-4.48,1.84-10l-24.73-16.29a43.59,43.59,0,0,0-4.5-21.16Z"/><path class="cls-3" d="M895.31,695.88s7.25,6.11,7.46,19.11c0,0,.38,4.46,4.47,5h5.39s-1.34-21-8.4-24.87Z"/><path class="cls-5" d="M913.48,722.65s-7.86-3.3-20.4,8.93"/><path class="cls-3" d="M838.32,586.14s14.61-4.54,27.44,16.94c0,0-19.16,15-26.43,12.11s-15.39-17.81-15.39-17.81Z"/><path class="cls-2" d="M743,556.18c5.87-27.61,29.64-31.79,29.64-31.79,39,6.47,77.76,59.76,77.76,59.76-4.31,19.22-20.43,28.1-20.43,28.1s-57.78-29.78-79.6-37.65C750.41,574.61,740.66,567.33,743,556.18Z"/><path class="cls-2" d="M863.58,594.57S846.41,612.74,840,616.88c0,0-8.19,5.47-3.37,15.8,0,0,11.16,12,44.35,75.32,0,0,16.42,3.12,27.54-8.94C908.54,699.06,891.47,615.15,863.58,594.57Z"/><path class="cls-2" d="M848.4,568.52s19,11,25,28.09c0,0,2.55,6.59-8.69,11.25a6.3,6.3,0,0,1-7.72-2.32,28.34,28.34,0,0,1-3.68-11.47s-.6-7-10.36-18.13c0,0-4.05-4.19-2.1-4.65A27.67,27.67,0,0,1,848.4,568.52Z"/><path class="cls-2" d="M698,515.47s-1.59,14.47-.55,26.47c0,0,5,17.41,41.5,17.26S780.11,539,780.11,539s1.11-11.35-5.53-26.45c0,0-1.83-4.76-12.84-3.9L706.35,511S698.29,511.36,698,515.47Z"/><path class="cls-3" d="M699,494a153,153,0,0,0,3,18s38,9.78,68,0c0,0-2.51-11.15-4-15Z"/><path class="cls-3" d="M688,472a115.19,115.19,0,0,0,9,28s40,10,72-2c0,0,3.3-18.47-1.46-27.48Z"/><path class="cls-2" d="M662,397s-9,11-13,25c0,0,1,20,22,17,0,0,15-9,17-12C688,427,683,399,662,397Z"/><path class="cls-2" d="M696,374s-21-6-31,7c0,0-9,14-11,21,0,0,2.95,3.86,9,2.43,0,0,10-13.43,18-15.43C681,389,696,382,696,374Z"/><path class="cls-6" d="M770.78,383.63c-.74,1.21-23.69,64.28-23.69,64.28s-8.48-1.06-11.59-5.45l22.95-63.07Z"/><path class="cls-6" d="M774.29,372.51l16.07-5.9s1.67,2.68.19,5.1L782,378.9s-2.45,2.64-10.7,2.56Z"/><path class="cls-6" d="M761.56,368.16l-8.31-15s-3,.94-3.47,3.73l1.78,11s.13,3.6,6.42,8.93Z"/><path class="cls-7" d="M762,368.27c-.23-1,68.35-212.76,68.35-212.76l5.59,23.34L774.06,371.54Z"/><polygon class="cls-6" points="760.06 364.61 778.92 370.38 772.22 385.35 756.74 380.83 760.06 364.61"/><path class="cls-2" d="M781.16,399.45s3.34-7.34-9.83-10.74c0,0-12.18,16-11.79,26.8,0,0,11.27,4.58,15.46-2.23Z"/><path class="cls-3" d="M751.09,404.43s-5,6.29-1.83,10.61c0,0,6.81,4.19,13.36,1.18,0,0,4-4.59,2.16-9.24Z"/><path class="cls-3" d="M751.88,395.52s-5,6.29-1.83,10.61c0,0,9,4.39,14.74.85l1.11-7.53Z"/><path class="cls-3" d="M755.41,386a9.78,9.78,0,0,0-4.06,10.42s9.89,4.91,12.64,4.26c0,0,5.87-8.18,4.37-10.25h0Z"/><path class="cls-3" d="M768.13,399.64s5.31.92,8.12-5.57c0,0-.26-7.21-9.17-8,0,0-5.31-.92-3.67,6Z"/><path class="cls-3" d="M772.27,393.45s-4.09-5.32-10.33-3.91c0,0-3.47,9.43-2.52,14.34,0,0,6.3,3.06,8.07,1.7C767.49,405.58,772.76,397,772.27,393.45Z"/><path class="cls-2" d="M788,396s27,14,29,22c0,0,5,17-11,25,0,0-14,5-23-4,0,0-5-15-7-23C776,416,768,392,788,396Z"/><path class="cls-4" d="M816.5,417.5s-5-10-15-10c0,0-16-1-17,13"/><path class="cls-3" d="M787,440s19,4,23-7c0,0,3-9-4-14a18.33,18.33,0,0,0-15-3Z"/><path class="cls-2" d="M701,479s-18-5-23-18c0,0-19.68-41.69-14-67,0,0,7-22,51-18,1,.09,22,0,29,9a105.75,105.75,0,0,1,12.24,22.73S770,445.38,773,465c0,0,2,14-17,17C756,482,714.44,483.93,701,479Z"/><path class="cls-3" d="M728.17,377l-.17,7s-19,0-28-6"/><path class="cls-7" d="M752.72,401.11s-6.53-4.72-10.09.19c0,0-5.34,5.56,2.24,18.31,0,0,9.31,14.22,18.38,9.33C763.25,428.94,756.06,407.5,752.72,401.11Z"/><path class="cls-3" d="M737.74,621.09s-11,7.57-7,18L758.5,647s12.18-17.48,6.08-27.11Z"/><path class="cls-2" d="M704.49,741.66s-4.63,14.82-4.27,29.85l66.94,2.83s8.33-7.65-1.58-10.08L736.87,757a43.59,43.59,0,0,0-11.23-18.49Z"/><path class="cls-3" d="M711.66,738s8.87,3.38,13.35,15.58c0,0,1.83,4.08,5.87,3.25L736,755s-8.19-19.36-16.14-20.7Z"/><path class="cls-5" d="M737.64,757.24s-8.51-.52-16.31,15.16"/><path class="cls-3" d="M766.59,543.14s-1.14-11-10.59-16.14c-11-6-33.61-.37-35,8Z"/><path class="cls-2" d="M762.92,639.71s-25,.73-32.44-.85c0,0-9.66-1.92-13.55,8.8,0,0-.93,28.35-15.93,98.35,0,0,13,5,31.24-2.12C732.24,743.88,768.12,674,762.92,639.71Z"/><path class="cls-2" d="M765.24,632s12.27-48.56,3.46-87.13c0,0-6.56-21.75-34.3-16.53a53.79,53.79,0,0,0-25.46,16.29l-.41.49c-10.56,13,5.2,38.56,5.2,38.56s10.51,15.83,14.34,46.9A98,98,0,0,0,765.24,632Z"/><path class="cls-2" d="M774.21,617.71s3.34,25.05-6.32,40.37c0,0-3.58,6.1-14.21.17a6.3,6.3,0,0,1-3-7.49,28.34,28.34,0,0,1,6.7-10s5.15-4.85,7.78-19.38c0,0,.78-3.64,2.34-4.53C767.52,616.85,770.3,614.59,774.21,617.71Z"/><circle class="cls-2" cx="715.32" cy="273.26" r="3.75" transform="translate(-24.38 75.28) rotate(-5.92)"/><path class="cls-2" d="M703.3,300.4s25.07-.59,32.55,3.66,19.7,25.1,16.2,49.59-23.38,26.55-23.38,26.55-34.61,5.6-54.47-11.44c0,0-9-9.12-3.68-25.76s27-40,27-40A8.76,8.76,0,0,1,703.3,300.4Z"/><path class="cls-8" d="M746.9,318.49s-7.07-.27-10.94,1.14-8.75,2.92-8.13,8.89c0,0,3.37,22.77-.57,33.24,0,0-4.15,8.47,3.81,7.65,0,0,12.36-.39,17.36-3.87C748.43,365.53,758.74,345.42,746.9,318.49Z"/><path class="cls-9" d="M735.73,336.74s8.27,2.16,11.56,4.83c0,0,2.3,2.78,1.51,4.87,0,0-9.95,1-11.35-2.84A24.42,24.42,0,0,1,735.73,336.74Z"/><path class="cls-3" d="M719.13,341.48s2.44,13.82.28,22.09c0,0-3.26,7.38-13.31,7.41,0,0-18,.86-28.09-9.15a7.2,7.2,0,0,1-.72-7s4.63-13.55,9.19-18c0,0,2.67-3.29,8.75-2.92,0,0,14.13.54,19.41,3C714.63,336.92,718.82,338.5,719.13,341.48Z"/><path class="cls-2" d="M715.35,343.89s.33,16.62-1.5,24.28c0,0-.79,2.09-11.83,2.23,0,0-14,.45-24-8.57,0,0-2-1.73-.7-5.61,0,0,4-12.56,7.9-16.7,0,0,1.93-3.7,7.22-3.31,0,0,12.14.75,17.43,3.22C709.86,339.43,715.07,341.11,715.35,343.89Z"/><path class="cls-2" d="M709.75,309.28s2.93-28.41,5.08-32.68l.67.22s-2.86,31.16-3.75,32.25A1.39,1.39,0,0,1,709.75,309.28Z"/><circle class="cls-3" cx="734.14" cy="412.08" r="20" transform="translate(18.28 855.14) rotate(-61.06)"/><path class="cls-2" d="M755.86,397.51s22.11,7.69,40,18.79c0,0,.52,14.67-5.66,25,0,0-22.8,10.67-54.34,1,0,0-14.06-3.79.39-33.61C736.21,408.67,744,393,755.86,397.51Z"/><path class="cls-2" d="M705,385s21-14,43,8c0,0,0,13-9,20a65.79,65.79,0,0,0-23,12s-17-1-20-15C696,410,694,395,705,385Z"/><path class="cls-10" d="M793.81,433.14s11.55,2.62,16.65-3.63"/><path class="cls-4" d="M735.33,632s-2.33,2.82-.83,7.43"/><path class="cls-2" d="M1172.78,489.5s-5.84-28-8.42-32l-.64.28s6.06,30.69,7.06,31.69A1.39,1.39,0,0,0,1172.78,489.5Z"/><circle class="cls-2" cx="1163.53" cy="454.25" r="3.75"/><path class="cls-2" d="M1187.28,473s-25,2-32,7-17,27-11,51,26,24,26,24,35,2,53-17c0,0,8-10,1-26s-31-37-31-37A8.76,8.76,0,0,0,1187.28,473Z"/><path class="cls-8" d="M1145.78,495.5s7-1,11,0,9,2,9,8c0,0-1,23,4,33,0,0,5,8-3,8,0,0-12.34.89-17.67-2.06C1149.12,542.44,1136.78,523.5,1145.78,495.5Z"/><path class="cls-11" d="M1158.78,512.5s-8,3-11,6c0,0-2,3-1,5,0,0,10,0,11-4A24.42,24.42,0,0,0,1158.78,512.5Z"/><path class="cls-3" d="M1175.78,515.5s-1,14,2,22c0,0,4,7,14,6,0,0,18-1,27-12a7.2,7.2,0,0,0,0-7s-6-13-11-17c0,0-3-3-9-2,0,0-14,2-19,5C1179.78,510.5,1175.78,512.5,1175.78,515.5Z"/><path class="cls-2" d="M1179.78,517.5s1.39,16.56,4,24c0,0,1,2,12,1,0,0,14-1,23-11,0,0,1.86-1.93.11-5.65,0,0-5.23-12.08-9.59-15.8,0,0-2.3-3.48-7.53-2.55,0,0-12,2-17,5C1184.78,512.5,1179.78,514.71,1179.78,517.5Z"/><ellipse class="cls-12" cx="1194.78" cy="593.32" rx="16.2" ry="17.5" transform="translate(-117.04 351.11) rotate(-15.95)"/><path class="cls-2" d="M1204,602s-33-31-57-30c0,0-25,1-20,32,0,0,31,22,70,16C1197,620,1205,615,1204,602Z"/><path class="cls-2" d="M1233,608s2-12-30-8c0,0-15,4-15,13,0,0,1,10,15,9C1203,622,1225,621,1233,608Z"/><polygon class="cls-12" points="1286.5 606.75 1504.8 585.63 1483.19 600.4 1287.2 618.81 1286.5 606.75"/><path class="cls-6" d="M1274.87,606.76c.46.23-78.12,7.69-78.12,7.69s-3.91,5.45,1.17,12.95l79.46-7.92-2.51-12.71"/><path class="cls-6" d="M1289.11,624.59l3.82,11.55s-5.31,2.79-8.94.19a94.42,94.42,0,0,0-5.64-12.85S1288.6,621.47,1289.11,624.59Z"/><path class="cls-6" d="M1287.2,597.34s-6.71.14-12.34,8.76l3.08,18.72s7.22,3,12.53.19Z"/><path class="cls-3" d="M1270,607s4-4,1-10c0,0-10-2-15,2,0,0-1,6,1,8Z"/><path class="cls-3" d="M1227,606a18.58,18.58,0,0,1,8,0s5.15,3.44,6.7,6.33a4.34,4.34,0,0,1,.3.67c1,3,0,9-4,13,0,0-5,2-8,0,0,0,4-8,2-12A61.31,61.31,0,0,0,1227,606Z"/><path class="cls-3" d="M1216,607s4.2-3.56,12.6-1.28c0,0,5.4,6.28,6.4,9.28,0,0,1,7-4,11.49,0,0-3,2.51-8-.49,0,0,2-7-1-12A23,23,0,0,0,1216,607Z"/><path class="cls-3" d="M1207,612s5-7,12-5c0,0,5,5,6,9,0,0,1,6-2,11,0,0-3,2-9,0,0,0,1-7-1-11A59.23,59.23,0,0,0,1207,612Z"/><path class="cls-3" d="M1239,632s2.9-3.84,1-8l-18,3s-2,4,0,7C1222,634,1235,634,1239,632Z"/><path class="cls-3" d="M1257,625s-4,4-11,1c0,0-3-11-2-19,0,0,8.63-3,11.31-1Z"/><path class="cls-3" d="M1267,624s-4,5-12,2l-2-20a14.2,14.2,0,0,1,11-1Z"/><path class="cls-3" d="M1271,604s4,6,3,19c0,0-4,3-8,2,0,0-2-13-2-20A9.36,9.36,0,0,1,1271,604Z"/><path class="cls-2" d="M1234,536s19-11,43,15c0,0-2,6-7,7,0,0-15-9-23,1,0,0-14,3-20-5C1227,554,1222,542,1234,536Z"/><path class="cls-3" d="M1176.66,674.37s-.5,13.33-11.46,15.54l-21.57-19.16S1142,647,1163.26,651.08Z"/><path class="cls-2" d="M1226.88,743.87s4.39,14.89,3.79,29.91l-67,1.76s-8.21-7.79,1.74-10l28.83-6.76a43.59,43.59,0,0,1,11.52-18.31Z"/><path class="cls-3" d="M1219.77,740.05s-8.92,3.24-13.6,15.36c0,0-1.89,4.05-5.92,3.16l-5.05-1.87s8.5-19.23,16.47-20.44Z"/><path class="cls-5" d="M1193.48,758.91s8.52-.38,16.06,15.42"/><path class="cls-2" d="M1268,679c5.54-27.68-19-35-19-35-38.49-9.14-84.71,3.18-84.71,3.18a98,98,0,0,0,1.11,37.18c31,4.09,46.61,10.64,46.61,10.64s35,12,50,1C1262,696,1265,694,1268,679Z"/><path class="cls-2" d="M1140.91,675s24.09-6.69,30.74-10.41c0,0,8.66-4.69,15.54,4.4,0,0,6.27,12.81,41.3,75.24,0,0-13,6.18-32.49,4.78C1196,749,1146.07,709.26,1140.91,675Z"/><path class="cls-2" d="M1127,651.1s-.17,25.27,11.34,39.26c0,0,4.32,5.6,14.12-1.61a6.3,6.3,0,0,0,2-7.81,28.34,28.34,0,0,0-7.9-9.08s-5.71-4.16-10.15-18.25c0,0-1.23-3.52-2.89-4.2C1133.57,649.41,1130.52,647.52,1127,651.1Z"/><path class="cls-4" d="M1164,655s-17.67-4.33-16.83,17.83"/><path class="cls-4" d="M1108.72,578.52s4.78-14,18.78-13c0,0,11,1,15,7"/><path class="cls-4" d="M1315.5,592.5s-6-14-24-9"/></g></svg>