<svg xmlns="http://www.w3.org/2000/svg" viewBox="0 0 1920 1080"><defs><style>.cls-1,.cls-4,.cls-5{fill:none;}.cls-2{fill:#e2e2e2;}.cls-2,.cls-3,.cls-4,.cls-5,.cls-6,.cls-9{stroke:#1b1f32;}.cls-10,.cls-11,.cls-2,.cls-3,.cls-4,.cls-5,.cls-6,.cls-7,.cls-8,.cls-9{stroke-miterlimit:10;}.cls-2,.cls-3,.cls-4,.cls-6,.cls-7,.cls-8,.cls-9{stroke-width:2px;}.cls-3{fill:#403c47;}.cls-6{fill:#595462;}.cls-10,.cls-7{fill:#00adab;stroke:#007774;}.cls-11,.cls-8{fill:#ffcc62;stroke:#ff9d00;}.cls-9{fill:#101218;}</style></defs><title>AI_Loader_13</title><g id="Layer_31" data-name="Layer 31"><rect class="cls-1" width="1920" height="1080"/></g><g id="_11" data-name="11"><path class="cls-2" d="M1194.76,394s9.93-26.78,9.89-31.55l-.69-.1s-11.2,29.21-10.89,30.59A1.39,1.39,0,0,0,1194.76,394Z"/><path class="cls-2" d="M662.93,278s19,13,30,33c0,0-13,17-36,15,0,0-14-17-17-45Z"/><path class="cls-2" d="M661.93,265s4,10,3,14c0,0-9,7-25,3,0,0-7-4-8-14C631.93,268,649.93,261,661.93,265Z"/><path class="cls-3" d="M1076.93,639s-3.31,11.17-15,15.18l-22.29-15.28s-2.23-22.29,17.85-24.39Z"/><path class="cls-2" d="M1107.41,741.15s4.26,14.93,3.52,29.94l-67,1.17s-8.14-7.86,1.83-10l28.89-6.5a43.59,43.59,0,0,1,11.68-18.21Z"/><path class="cls-3" d="M1100.34,737.27s-8.95,3.16-13.74,15.24c0,0-1.93,4-5.95,3.1l-5-1.91s8.67-19.15,16.65-20.29Z"/><path class="cls-4" d="M1073.89,755.9s8.52-.31,15.92,15.56"/><path class="cls-2" d="M1040.48,648.54s18.87.51,34.45-3.65c0,0,12.22-2.92,15,8.93,0,0,3,17.79,21,87.18,0,0-13.88,8-32.7,1C1078.23,742,1034,682.6,1040.48,648.54Z"/><path class="cls-2" d="M1030.91,617.06s-4.86,21.39,3.56,37.42c0,0,3.09,6.36,14.15,1.3a6.3,6.3,0,0,0,3.56-7.23,28.34,28.34,0,0,0-5.89-10.5s-4.75-5.24-6.23-19.93c0,0-.31-5.82-2-4.7A27.67,27.67,0,0,0,1030.91,617.06Z"/><path class="cls-5" d="M1057,619.56s-8.47-.68-13.84,12.66"/><path class="cls-2" d="M1162.06,588c-4.59-27.86-29.28-24.35-29.28-24.35-38.84,7.49-82.61,51.53-82.61,51.53,4.82,19.1,25.67,28.8,25.67,28.8,27.91-11.62,47-17.78,47-17.78s32.51-10.65,39.71-21.72C1162.52,604.48,1164.89,605.21,1162.06,588Z"/><path class="cls-2" d="M1299.93,727s7,6,11,20l9,14s19,1,18,14h-56l-5-23s-1-11,2-17Z"/><path class="cls-4" d="M1280.92,770.36s6-10.36,39-9.36"/><path class="cls-2" d="M1123.93,555a86.43,86.43,0,0,0-5,23s3,32,43,35c0,0,48,1,50-21,0,0,2.34-23.81-4.83-34.9l-72.17-5.1S1124.93,551,1123.93,555Z"/><path class="cls-3" d="M1298.93,729s9,9,6,18c0,0-9,2-14,1,0,0,0-13-7-19Z"/><path class="cls-3" d="M1159.52,599.75S1156.93,584,1174.93,575c0,0,23-10,35,5Z"/><path class="cls-2" d="M1270.93,674s26,22,32,57c0,0-2,13-23,10,0,0-41-24-53-46,0,0-5-7,6-18,0,0,13-9,19-10C1251.93,667,1259.93,666,1270.93,674Z"/><path class="cls-2" d="M1159.93,603s34,59,64,82c0,0,16.42-2.42,31-17,1-1-6-64.22-46.48-92.61,0,0-8.52-4.39-26.52,1.61C1181.93,577,1155.93,587,1159.93,603Z"/><path class="cls-3" d="M1133.93,540s-3,9-3,16c0,0,29,22,55,8,0,0,10-8,11-21Z"/><path class="cls-3" d="M1136.93,517s-6,13-8,25c0,0,16.87,18.85,64.43,14.42,0,0,11.57-17.42,12.57-28.42Z"/><path class="cls-3" d="M1232.93,473c1,0,13,7,12,17s-5,13-9,15-12-2-14-8S1232.93,473,1232.93,473Z"/><path class="cls-2" d="M1206.93,497s19-11,33,2c0,0,5,5,3,10l-9,31s-23,6-28,2C1205.93,542,1199.93,518,1206.93,497Z"/><path class="cls-2" d="M1242.93,578s-1-29-4-35-18-12-31-5c0,0-9,5.93-9,13,0,1,15,27,22,31C1220.93,582,1234.93,586,1242.93,578Z"/><path class="cls-6" d="M598.74,248c1.29.58,66.78,15.28,66.78,15.28s0,8.54-3.93,12.19l-65.49-14.7Z"/><path class="cls-6" d="M587.26,246l-7.91-15.18s2.45-2,5-.84l8.23,7.57s2.94,2.09,3.91,10.28Z"/><path class="cls-6" d="M584.57,259.14l-13.78,10.15s1.32,2.87,4.15,3l10.72-3.18s3.56-.59,8-7.51Z"/><path class="cls-7" d="M584.62,258.73c-.93.36-219.75-40.59-219.75-40.59l22.43-8.52,199,36.7Z"/><polygon class="cls-6" points="581.24 261.08 584.55 241.64 600.25 246.37 597.75 262.3 581.24 261.08"/><path class="cls-2" d="M1232.93,458s14,0,19,21c0,0,1,12-4,23a14.63,14.63,0,0,1-5-3s-1-14-10-18c0,0-6-14,0-22"/><path class="cls-3" d="M1226.93,571"/><path class="cls-2" d="M1230.93,453s-41-23-79-19c0,0-8,1-10,6,0,0-11,25-11,77,0,0,27,40,76,18,0,0,34-37,30-73C1236.93,462,1235.93,456,1230.93,453Z"/><path class="cls-3" d="M1199.93,460s-16,14-28-8Z"/><ellipse class="cls-8" cx="1175.93" cy="496" rx="20" ry="19" transform="translate(362.01 1479.04) rotate(-73.25)"/><path class="cls-3" d="M1150.93,457s6,9,2,15c0,0-19,9-23,7,0,0-5-11,1-19Z"/><path class="cls-3" d="M875.79,526.17S874,540.65,885.61,545l22.7-14.66s2.84-22.23-17.18-24.87Z"/><path class="cls-2" d="M781.13,533.7c-11.5-25.78,11.05-36.44,11.05-36.44,36.56-15.12,97.33-2.43,97.33-2.43,6.49,18.6-5.58,38.17-5.58,38.17-29.7,5.65-49,11-49,11s-33,9-45.11,3.72C789.82,547.72,788.24,549.63,781.13,533.7Z"/><path class="cls-2" d="M737.7,498.5s-1.22,14.51.11,26.48c0,0,5.43,17.28,41.92,16.22S820.39,520,820.39,520s.82-11.37-6.19-26.3c0,0-1.95-4.71-12.93-3.57L746,493.82S737.91,494.38,737.7,498.5Z"/><path class="cls-3" d="M806.66,475a45.78,45.78,0,0,1,1,16s-35,12-66,6c0,0,.28-7,0-12Z"/><path class="cls-3" d="M800.66,442s10,18,11,35c0,0-39.72,14-73.72,11,0,0-7.28-12-7-23Z"/><path class="cls-3" d="M744.93,375s4-14-11-19l-12,15s5,9,10,11Z"/><path class="cls-5" d="M740.93,374s1-11-9-14"/><polygon class="cls-8" points="1260.68 594.9 1444.89 713.91 1418.78 712.06 1253.73 604.79 1260.68 594.9"/><path class="cls-6" d="M1251.55,587.68c.22.46-66-42.48-66-42.48s-6.45,1.84-7.13,10.87l67.2,43.13,5.93-11.52"/><path class="cls-6" d="M1251.64,610.5l-4.18,11.43s-5.9-1.11-7.13-5.41a94.42,94.42,0,0,0,3.56-13.58S1253.18,607.74,1251.64,610.5Z"/><path class="cls-6" d="M1267.06,588s-5.34-4.05-15.11-.8l-9.22,16.59s3.81,6.82,9.71,7.93Z"/><path class="cls-3" d="M634.93,253s-6,5-2,18a35.48,35.48,0,0,0,7,1s1-14,3-16A12,12,0,0,0,634.93,253Z"/><path class="cls-2" d="M728.93,468a21,21,0,0,1-14-4s-26.23-20.5-31-46c0,0-1.13-16.59,31-38.18.83-.56,14.39-8.61,23.6-8.77,0,0,10.35-1.06,16.35,3.94,0,0,36,26,56,69,0,0,6,13-25,17C785.93,461,743.23,467.22,728.93,468Z"/><path class="cls-7" d="M761.93,381s-8.79-1.87-10.48,4c0,0-3.15,7,8.29,16.48,0,0,14.19,11.57,24.19,1.57C783.93,403,768,384.63,761.93,381Z"/><path class="cls-4" d="M728.93,468a21,21,0,0,1-14-4s-26.23-20.5-31-46c0,0-1.13-16.59,31-38.18.83-.56,14.39-8.61,23.6-8.77,0,0,10.35-1.06,16.35,3.94,0,0,36,26,56,69,0,0,6,13-25,17C785.93,461,743.23,467.22,728.93,468Z"/><path class="cls-3" d="M789.08,530.33a19.47,19.47,0,0,0-7.35-16.55c-8.5-6.62-28.07-4.45-30.23,3.75Z"/><path class="cls-3" d="M741,623.68s-10.76,7.79-6.44,18.21l23.85,6s9.36-17,3-26.46Z"/><path class="cls-2" d="M711.65,743s-4,15-3,30h67s8-8-2-10l-29-6a43.59,43.59,0,0,0-12-18Z"/><path class="cls-3" d="M718.65,739s9,3,14,15c0,0,2,4,6,3l5-2s-9-19-17-20Z"/><path class="cls-4" d="M745.42,757.16S736.9,757,729.77,773"/><path class="cls-2" d="M764.42,641.62s-18.65,2.9-34.63.76c0,0-14.3-.67-14.25,10.1,0,0,2.21,18.72-7.61,89.52,0,0,13.13,6.46,30.91-2.92C738.84,739.08,775.14,674.58,764.42,641.62Z"/><path class="cls-2" d="M739.93,520c-14.59,10.21-9,44-9,44a268.83,268.83,0,0,1,1.4,55.11s12.91,9.33,32.6,9.89c0,0,36-78,28.5-91.64,0,0-6.5-18.36-25.5-21.36C767.93,516,749.93,513,739.93,520Z"/><path class="cls-2" d="M778.61,611.55s1.53,21.88-9.24,36.44c0,0-4,5.81-14.19-.88a6.3,6.3,0,0,1-2.41-7.69,28.34,28.34,0,0,1,7.43-9.48s5.49-4.45,9.2-18.74c0,0,1.2-5.71,2.67-4.35A27.67,27.67,0,0,1,778.61,611.55Z"/><path class="cls-3" d="M727.59,367.24l7.78,10.27S715.32,389.35,707.93,392c0,0-.37-4.07,0-5Z"/><path class="cls-2" d="M659.68,326.6s19-16.4,27.45-17.87,31.16,6.86,44,28S730,372.07,730,372.07s-23.15,26.32-49.32,25.8c0,0-12.74-1.33-19.21-17.54s-4.58-48.05-4.58-48.05A8.76,8.76,0,0,1,659.68,326.6Z"/><path class="cls-9" d="M704.84,312.85s-5.63,4.28-7.72,7.83-4.9,7.81-.62,12c0,0,17.08,15.44,20.69,26,0,0,2.19,9.18,7.8,3.48,0,0,9.29-8.16,10.94-14C735.92,348.18,731.09,326.1,704.84,312.85Z"/><path class="cls-10" d="M707.81,334s7.75-3.59,12-3.62c0,0,3.54.68,4.26,2.8,0,0-7,7.12-10.57,5A24.42,24.42,0,0,1,707.81,334Z"/><path class="cls-3" d="M698,348.25s10.67,9.12,14.26,16.87c0,0,2.18,7.76-5.56,14.18,0,0-13.35,12.11-27.5,10.8a7.2,7.2,0,0,1-5-4.92s-5-13.4-4.38-19.77c0,0,0-4.24,4.9-7.81,0,0,11.25-8.56,16.9-10C691.64,347.59,695.88,346.14,698,348.25Z"/><path class="cls-2" d="M695.92,351.8s10.82,12.62,14.28,19.7c0,0,.72,2.12-7.71,9.25,0,0-10.54,9.27-24,8.65,0,0-2.68,0-4.1-3.89,0,0-4.93-12.21-4.52-17.92,0,0-.86-4.08,3.47-7.15,0,0,9.85-7.14,15.5-8.59C688.84,351.85,693.93,349.84,695.92,351.8Z"/><path class="cls-2" d="M844,619.23s-12.69,8.95-21.54,21.1l51.42,43s11.27-1,4.88-9l-18.41-23.2a43.59,43.59,0,0,0,2.33-21.51Z"/><path class="cls-3" d="M851.9,620.65s5,8.07,1.13,20.49c0,0-1,4.35,2.68,6.15l5.12,1.67s5.27-20.35-.22-26.25Z"/><path class="cls-4" d="M860.8,651.75s-6.44-5.59-22.17,2.12"/><path class="cls-2" d="M907.18,539.93s-18.88,0-34.34-4.59c0,0-12.14-3.25-15.22,8.51,0,0,0,9.85-20,78.73,0,0,10.22,16.23,29.23,9.7C866.89,632.28,912.69,574.14,907.18,539.93Z"/><path class="cls-2" d="M917.6,508.71S921.88,530.22,913,546c0,0-3.26,6.27-14.18.91a6.3,6.3,0,0,1-3.36-7.33,28.34,28.34,0,0,1,6.17-10.34s4.89-5.11,6.77-19.75c0,0,.47-5.81,2.1-4.65A27.67,27.67,0,0,1,917.6,508.71Z"/><path class="cls-5" d="M891.43,510.5s8.49-.44,13.49,13"/><path class="cls-2" d="M1150.93,432s-16-3-22,9c0,0-7,14-4,35a37.9,37.9,0,0,0,14-1s2-13,17-15C1155.93,460,1161.93,445,1150.93,432Z"/><path class="cls-2" d="M1222.93,398s-25.4-15.14-34-15-23.85,9.44-34,32c-9,20,3,30,3,30s31.4,21.42,57,16c0,0,10.68-1.85,14-19s-2.07-37.89-2.07-37.89A10.12,10.12,0,0,0,1222.93,398Z"/><circle class="cls-2" cx="1205.69" cy="359.2" r="3.75" transform="translate(259.85 1188.72) rotate(-57.84)"/><path class="cls-9" d="M1167.93,396s15-1,26,13c0,0,5,7,2,11,0,0-9,18-10,25,0,0-3,4-11,1,0,0-20.44-6.73-23.22-14.37C1151.71,431.63,1149.93,413,1167.93,396Z"/><path class="cls-11" d="M1187.9,416.23s-10.86,1.09-15.26,3.34c0,0-3.11,2.49-2.18,4.69,0,0,12.9,2.33,14.9-1.37A19.22,19.22,0,0,0,1187.9,416.23Z"/><path class="cls-11" d="M1160.43,406.5a40,40,0,0,1,3.11,9.38s-.11,3.62-2.11,4.62c0,0-5-4-4.23-7.74A13.39,13.39,0,0,1,1160.43,406.5Z"/><path class="cls-3" d="M1204.93,429s-6,13-9,18c0,0-4,6,2,9,0,0,21,5,25,1a29.37,29.37,0,0,0,9-30s-1-6-21-3C1210.93,424,1205.93,425,1204.93,429Z"/><path class="cls-2" d="M1209.08,431.37s-5.15,12.63-7.67,17.49c0,0-3.47,6.14,1.7,8.28,0,0,17.9,3.68,21.31,0,0,0,11.93-10.12,7.67-27.61,0,0-.85-5.52-17.9-2.76C1214.19,426.77,1209.93,427.69,1209.08,431.37Z"/><path class="cls-5" d="M1264.43,670.5c2,0,9,5,7,15-1,4-10,23-37,16,0,0-9-3-8.63-12.75"/><path class="cls-2" d="M1242.93,658s-12,3-16,7c0,0,4,11,3,18a13.84,13.84,0,0,0,5,10s20,9,27-11c0,0,0-8-7-11C1254.93,671,1244.93,665,1242.93,658Z"/><path class="cls-3" d="M1249.93,578s1,6.64-3,8.82c0,0-12-3.82-14-6.82,0,0,1-5,2-6C1234.93,574,1246.93,574,1249.93,578Z"/><path class="cls-3" d="M1230.93,600s4,4,9,3c0,0,7-10,7-14,0,0-4-5-9-5Z"/><path class="cls-3" d="M1230.93,578c.71-.71,6,1,9,5,0,0-5,16-9,18,0,0-6-1-9-8C1221.93,593,1226.93,582,1230.93,578Z"/><path class="cls-3" d="M1226.93,571s-10,8-11,17c0,0,2,6,6,7,0,0,8-12,11-18C1232.93,577,1230.93,572,1226.93,571Z"/><path class="cls-3" d="M1205.93,553s16,2,20,6c0,0,3,6-1,10l-15-2Z"/><path class="cls-3" d="M1198.93,578a10.82,10.82,0,0,1-7-3s-5-6-4-9h10Z"/><path class="cls-3" d="M1205.93,582a14.63,14.63,0,0,1-8-3s-4-6-3-11c0,0,6-2,9-2Z"/><path class="cls-3" d="M1213.93,566l2,17s-6,4-11,0c0,0-4-8-4-14Z"/><path class="cls-2" d="M1158.93,469c-.95-.32-26-8-38,13a9.74,9.74,0,0,0-1,9s7,28,14,36a35.05,35.05,0,0,0,31-10s3-24-1-43C1163.93,474,1161.93,470,1158.93,469Z"/><path class="cls-2" d="M1178.93,560s6-13,17-15c0,0,16,6,20,22,0,0-8,10-29,2C1186.93,569,1180.93,565,1178.93,560Z"/><path class="cls-2" d="M1194.93,548s-16-29-27-35c0,0-28-8-29,27,0,0,8,16,42,24C1180.93,564,1194.93,565,1194.93,548Z"/><path class="cls-3" d="M650.93,258s-3.32,7-2.16,14a14.8,14.8,0,0,0,7.16,2s4-12,5-13C660.93,261,657.93,256,650.93,258Z"/><path class="cls-3" d="M641.93,256s-5,13-2,16c0,0,5.82,3.39,8.67,1.25.33-.25.33-13.25,4.33-16.25C652.93,257,648.93,254,641.93,256Z"/><path class="cls-3" d="M650.93,279s-16,1-18-2c0,0-2.43-5.66-.21-9.33,0,0,14.21.33,17.21,3.33A13.05,13.05,0,0,1,650.93,279Z"/><path class="cls-3" d="M616.93,258s-2-9,5-13c0,0,7,0,10,3l-2,10Z"/><path class="cls-3" d="M604.93,255s4.26-7.62,6.6-10.5c.4-.5,6.4-2.5,11.4.5,0,0-6,9-6,12Z"/><path class="cls-3" d="M597.93,253s0-8,5-10c0,0,6-2,9,0,0,0-5,6-6,10h-8"/><path class="cls-2" d="M628.58,279.54s-16.33,2.32-23.08-.4c0,0-10.43-14.34-7.56-32.14,0,0,3.94,1.61,30.36,4.37,1,.1,5.66,3.61,5.34,6.59C633.64,258,633,276,628.58,279.54Z"/><path class="cls-2" d="M628.93,276s-14-6-22,5c0,0,5,60,15,69,0,0,24,6,39-14,0,0,3.6-4.5.56-10.93-.17-.35-.41-.68-.56-1.07C657.93,316,638.93,286,628.93,276Z"/><path class="cls-5" d="M621.93,350s11-22.76,41-20.88"/><circle class="cls-3" cx="651.35" cy="349.52" r="13.5" transform="translate(-79.57 459.89) rotate(-36.81)"/><path class="cls-2" d="M654.93,394s-8-13-14.74-35.5c0,0,8.4-12,19.52-16.55,0,0,20.24-.64,39.66,26,0,0,9,11.48-20.5,26.64C678.87,394.61,659.93,402,654.93,394Z"/><circle class="cls-3" cx="684.6" cy="396.1" r="20" transform="translate(-102.12 314.59) rotate(-24.14)"/><path class="cls-5" d="M696.93,396s-.12-16.68-17.06-19.34"/><path class="cls-2" d="M708.43,419.54s16.91-15.72-3.12-38.15c0,0-13.38,14.61-30.38,4.17,0,0-8.94,3.17-12,10.63,0,0,4.82,14.19,7,18.81C669.93,415,688.93,437,708.43,419.54Z"/><path class="cls-5" d="M699.93,370s-32.78-6.81-42.89,26.1"/><path class="cls-5" d="M654.49,345.63a9.14,9.14,0,0,0-8.44-8.52"/><path class="cls-2" d="M670.3,329.35s-15.8-23.79-16.85-28.45l.65-.26s17.6,25.87,17.61,27.28A1.39,1.39,0,0,1,670.3,329.35Z"/><circle class="cls-2" cx="651.7" cy="298.01" r="3.75" transform="translate(-18.1 552.76) rotate(-45.4)"/></g></svg>