<svg xmlns="http://www.w3.org/2000/svg" viewBox="0 0 1920 1080"><defs><style>.cls-1,.cls-12,.cls-8{fill:none;}.cls-10,.cls-2{fill:#ffcc62;stroke:#ff9d00;}.cls-10,.cls-11,.cls-12,.cls-2,.cls-3,.cls-4,.cls-5,.cls-7,.cls-8,.cls-9{stroke-miterlimit:10;}.cls-2,.cls-3,.cls-4,.cls-5,.cls-7,.cls-8,.cls-9{stroke-width:2px;}.cls-3{fill:#595462;}.cls-12,.cls-3,.cls-5,.cls-7,.cls-8,.cls-9{stroke:#1b1f32;}.cls-11,.cls-4{fill:#00adab;stroke:#007774;}.cls-5{fill:#e2e2e2;}.cls-6,.cls-7{fill:#403c47;}.cls-9{fill:#101218;}</style></defs><title>AI_Loader_10</title><g id="Layer_31" data-name="Layer 31"><rect class="cls-1" width="1920" height="1080"/></g><g id="_8_-_1" data-name="8 - 1"><polygon class="cls-2" points="1288.35 523.51 1175.76 335.3 1176.71 361.46 1278.23 530.11 1288.35 523.51"/><path class="cls-3" d="M1295.25,532.88c-.45-.23,40.18,67.43,40.18,67.43s-2.06,6.38-11.11,6.75l-40.79-68.65,11.72-5.53"/><path class="cls-3" d="M1272.45,532l-11.56,3.78s.9,5.93,5.16,7.31a94.42,94.42,0,0,1,13.69-3.09S1275.26,530.56,1272.45,532Z"/><path class="cls-3" d="M1295.51,517.37s3.87,5.48.28,15.13l-16.89,8.64s-6.68-4-7.59-10Z"/><path class="cls-3" d="M766.27,452c-.83,1.15-28.54,62.28-28.54,62.28s-8.37-1.7-11.14-6.32l27.71-61.13Z"/><path class="cls-3" d="M770.62,441.16l16.47-4.66s1.46,2.8-.2,5.1l-9.09,6.51s-2.65,2.45-10.86,1.73Z"/><path class="cls-3" d="M758.26,435.85l-7.14-15.56s-3.08.71-3.75,3.46l.93,11.14s-.15,3.6,5.72,9.39Z"/><path class="cls-4" d="M758.65,436c-.16-1,84.43-206.9,84.43-206.9l3.78,23.7L770.46,440.17Z"/><polygon class="cls-3" points="757.04 432.19 775.4 439.38 767.58 453.8 752.49 448.1 757.04 432.19"/></g><g id="_8" data-name="8"><path class="cls-5" d="M1330.75,345.5s-5.84-28-8.42-32l-.64.28s6.06,30.69,7.06,31.69A1.39,1.39,0,0,0,1330.75,345.5Z"/><circle class="cls-5" cx="1321.5" cy="310.25" r="3.75"/><path class="cls-6" d="M705.25,434s6,10,4,13l-12,1-5-19A11,11,0,0,1,705.25,434Z"/><path class="cls-5" d="M707.25,440s-7,1-11,6c0,0,11,21,14,22l15-6S715.25,444,707.25,440Z"/><path class="cls-5" d="M693.25,417s19,4,17,24h-3s-5-11-17-13c0,0-2-9,3-11"/><path class="cls-5" d="M734.25,464s-4-5-7-5c0,0-6-1-14,6,0,0,4,7,7,7Z"/><path class="cls-7" d="M754.75,452.5s-1-6-4-7c0,0-6-1-8,4,0,0,0,4,1,6Z"/><path class="cls-7" d="M754.25,490s2,6-3,8c0,0-7,3-11-2,0,0,1-5,2-6C742.25,490,752.25,492,754.25,490Z"/><path class="cls-7" d="M757.25,483s3,3-1,7a14.52,14.52,0,0,1-13,1l3-7S753.25,486,757.25,483Z"/><path class="cls-7" d="M758.25,482s-2,3-10,3c0,0-3-2-2-5l10-1S759.25,480,758.25,482Z"/><path class="cls-7" d="M755.25,473l10.83-.66s1.17,4.66-5.83,8.66c0,0-6,1-8-2Z"/><path class="cls-7" d="M759.25,464l11-1s2,6-3,9c0,0-6,2-10,1Z"/><path class="cls-7" d="M757.17,453.5s11.08-1.5,12.08-.5c0,0,3,6,1,9a19.09,19.09,0,0,1-9.25,2.28Z"/><path class="cls-5" d="M739.75,458.5s7-7,15-6c0,0,4.68.94,5.89,5.53q.06.23.11.47c1,5,0,16-7,21,0,0-4,2-7,0Z"/><path class="cls-5" d="M738.25,458s-16,6-22,10c0,0-14,8-8,24,0,0,7,16,24,10a21.52,21.52,0,0,0,10-8,98.29,98.29,0,0,0,8-15s3-13-2-17A17.53,17.53,0,0,0,738.25,458Z"/><path class="cls-7" d="M711.93,626.65s-5,12.33,4.24,18.84l23.39-7.6S747.25,619,730.25,612Z"/><path class="cls-5" d="M631,560.29c10.09-26.36,33.58-18,33.58-18,36.54,15.15,70.56,67.09,70.56,67.09-8.56,17.74-27.9,24.58-27.9,24.58-25-17-45-25-45-25s-30.5-10.85-35-27C627.25,582,624.78,576.58,631,560.29Z"/><path class="cls-7" d="M1419.25,640s8,2,11,12l-25,11s-11-9-9-18S1419.25,640,1419.25,640Z"/><path class="cls-5" d="M1417.25,541c-27.24-7.43-39,17-39,17-12.13,37.65,14.66,91.29,14.66,91.29,19.06,5,34.34-5.29,34.34-5.29s0-65,3-88C1430.25,556,1428.25,544,1417.25,541Z"/><path class="cls-5" d="M1427.25,528s4,14,5,26c0,0-2,18-38,24s-44-13-44-13-3-11,1-27c0,0,1-5,12-6l55-7S1426.25,524,1427.25,528Z"/><path class="cls-7" d="M1421.25,511a45.78,45.78,0,0,1,1,16s-30,12-61,6c0,0-1-8,0-12Z"/><path class="cls-7" d="M1414.25,478s10,18,11,35c0,0-28,16-62,13,0,0-8-15-10-25Z"/><path class="cls-7" d="M1309.25,583a10.76,10.76,0,0,0,4,5s12,1,15-5a6.46,6.46,0,0,0-3-5S1317.25,585,1309.25,583Z"/><path class="cls-7" d="M1305.25,578a7.1,7.1,0,0,0,4,6s12,1,16-6a10.82,10.82,0,0,0-3-7S1311.25,580,1305.25,578Z"/><path class="cls-7" d="M1302.25,570s-1,6,3,9c0,0,15,0,17-8,0,0-2-4-4-5C1318.25,566,1305.25,571,1302.25,570Z"/><path class="cls-7" d="M1324.25,558s4,5,5,10a7.27,7.27,0,0,1-5,5s-5-2-9-9c0,0,8-7,9-6"/><path class="cls-7" d="M1314.25,565s-1,7-10,8c0,0-7,0-8-7,0,0,10-4,11-6Z"/><path class="cls-5" d="M1334.75,420.5c-.75.66-9,9-11,20,0,0-2.5,14.5,1.5,23.5,0,0,16,34,28,45a27,27,0,0,0,29,1s26-12,35-32c0,0,3-8-3-21,0,0-14-36-37-48C1377.25,409,1359.25,399,1334.75,420.5Z"/><path class="cls-2" d="M1324.25,459s-1-6,2-8c0,0,5-4,11,12,0,0,6,18-1,21C1336.25,484,1325.25,466,1324.25,459Z"/><path class="cls-8" d="M1334.75,420.5c-.75.66-9,9-11,20,0,0-2.5,14.5,1.5,23.5,0,0,16,34,28,45a27,27,0,0,0,29,1s26-12,35-32c0,0,3-8-3-21,0,0-14-36-37-48C1377.25,409,1359.25,399,1334.75,420.5Z"/><path class="cls-7" d="M1330.25,418l4,8s7.39-4.19,10.7-10.59Z"/><path class="cls-5" d="M1336.25,336s-25,2-32,7-17,27-11,51,26,24,26,24,35,2,53-17c0,0,8-10,1-26s-31-37-31-37A8.76,8.76,0,0,0,1336.25,336Z"/><path class="cls-9" d="M1294.75,358.5s7-1,11,0,9,2,9,8c0,0-1,23,4,33,0,0,5,8-3,8,0,0-12.34.89-17.67-2.06C1298.09,405.44,1285.75,386.5,1294.75,358.5Z"/><path class="cls-10" d="M1307.75,375.5s-8,3-11,6c0,0-2,3-1,5,0,0,10,0,11-4A24.42,24.42,0,0,0,1307.75,375.5Z"/><path class="cls-7" d="M1324.75,378.5s-1,14,2,22c0,0,4,7,14,6,0,0,18-1,27-12a7.2,7.2,0,0,0,0-7s-6-13-11-17c0,0-3-3-9-2,0,0-14,2-19,5C1328.75,373.5,1324.75,375.5,1324.75,378.5Z"/><path class="cls-5" d="M1328.75,380.5s1.39,16.56,4,24c0,0,1,2,12,1,0,0,14-1,23-11,0,0,1.86-1.93.11-5.65,0,0-5.23-12.08-9.59-15.8,0,0-2.3-3.48-7.53-2.55,0,0-12,2-17,5C1333.75,375.5,1328.75,377.71,1328.75,380.5Z"/><circle class="cls-7" cx="1368.25" cy="451" r="20"/><circle class="cls-7" cx="1354.75" cy="508.5" r="13.5"/><path class="cls-5" d="M1345.54,459.84a224.18,224.18,0,0,0-1.83,40.08s12.59,7.56,24.58,7.12c0,0,18.73-7.69,25.55-40,0,0,3.48-14.14-29.6-15.92C1364.23,451.14,1346.21,450.8,1345.54,459.84Z"/><path class="cls-5" d="M1370.25,412s23,2,21,32c0,0-13,5-16,11,0,0-9,3-16-1,0,0-6-11-14-15C1345.25,439,1346.25,410,1370.25,412Z"/><path class="cls-5" d="M1338.91,504.07s-24.33,28.51-26.09,32.62c0,0,8.89,14.49,11.94,15.31,0,0,33-1,43.78-21.67a11.68,11.68,0,0,0-.54-9s-8.21-15.8-21.85-19.86C1346.15,501.5,1341.73,500.89,1338.91,504.07Z"/><path class="cls-7" d="M1307,562.19s-4.78,6.81-10.78,5.81c0,0-5-4.09-6-9.54h0s9-1.46,10-3.46h0l6.78,7.19"/><path class="cls-7" d="M1296.25,544s-8,2-9,3-1,9,2,11,11.48-3.24,11.48-3.24l-4.48-9.89"/><path class="cls-5" d="M1308.25,535l-12,9s4,18,18,22c0,0,8-4,11-10a12.13,12.13,0,0,0,1-5c0-5.1-9-13-12-16A5.64,5.64,0,0,0,1308.25,535Z"/><path class="cls-7" d="M1380.25,548a19.47,19.47,0,0,1,18-2c10,4,18,22,12,28Z"/><path class="cls-7" d="M1325.25,624s3,13-7,18l-22-11s4-19,15-22Z"/><path class="cls-5" d="M1292.25,743s4,15,3,30h-67s-8-8,2-10l29-6a43.59,43.59,0,0,1,12-18Z"/><path class="cls-7" d="M1285.25,739s-9,3-14,15c0,0-2,4-6,3l-5-2s9-19,17-20Z"/><path class="cls-8" d="M1258.48,757.16S1267,757,1274.13,773"/><path class="cls-5" d="M1294.25,622s20,15,27,18c0,0,9,4,6,15,0,0-11,23-33,91,0,0-14,6-27-4C1267.25,742,1270.25,647,1294.25,622Z"/><path class="cls-5" d="M1307.25,610s32-49,69-63c0,0,22-7,33,19,0,0,6.82,17.55,2.18,33.39l-.18.61c-5,16-35,17-35,17s-19,0-47,14C1329.25,631,1315.25,628,1307.25,610Z"/><path class="cls-5" d="M1297.25,606s-16,15-18,33c0,0-1,7,11,9a6.3,6.3,0,0,0,7-4,28.34,28.34,0,0,0,1-12s-1-7,6-20c0,0,3-5,1-5A27.67,27.67,0,0,0,1297.25,606Z"/><path class="cls-5" d="M1494,761.41,1448.25,763s-7.66-9,2.27-11.33l28.77-7a43.59,43.59,0,0,1,11.36-18.41s6.61-8.24,7.61-9.24,21,15,24.75,24Z"/><path class="cls-7" d="M1497.25,723s-7.71,5.2-10,18c0,0-.88,5.11-5,5l-3-1s4.91-20,12.5-22.71Z"/><path class="cls-8" d="M1478.25,745s11,3,16,16"/><path class="cls-5" d="M1399.82,659.57s23.12-9.52,29.27-14c0,0,8-5.69,16,2.51,0,0,8.14,16.21,55.33,69.89,0,0-3.89,15-19.13,21C1481.25,739,1409,693,1399.82,659.57Z"/><path class="cls-5" d="M1382.81,632.69s.78,21.92,13,35.26c0,0,4.62,5.36,14-2.37a6.3,6.3,0,0,0,1.59-7.9,28.34,28.34,0,0,0-8.38-8.65s-5.93-3.85-11.12-17.67c0,0-1.79-5.55-3.11-4A27.67,27.67,0,0,0,1382.81,632.69Z"/><path class="cls-5" d="M594,528s-4,14-5,26c0,0,2,18,38,24s44-13,44-13,3-11-1-27c0,0-1-5-12-6l-55-7S595,524,594,528Z"/><path class="cls-7" d="M600,511a45.78,45.78,0,0,0-1,16s30,12,61,6c0,0,1-8,0-12Z"/><path class="cls-7" d="M607,478s-10,18-11,35c0,0,31.28,16,65.28,13,0,0,7-14,6.72-25Z"/><path class="cls-4" d="M699,456s1-6-2-8c0,0-5-4-11,12,0,0-6,18,1,21C687,481,698,463,699,456Z"/><path class="cls-7" d="M631.14,580.68a19.47,19.47,0,0,0,1-18.08c-4.56-9.76-23-16.72-28.64-10.39Z"/><path class="cls-7" d="M544.64,639.87s-12.9,3.17-12.81,14.45l19.83,14.55s15.07-12.24,12.72-23.39Z"/><path class="cls-5" d="M472,743s-4,15-3,30h67s8-8-2-10l-29-6a43.59,43.59,0,0,0-12-18Z"/><path class="cls-5" d="M688.47,417.5c.75.66,9,9,11,20,0,0,2.5,14.5-1.5,23.5,0,0-12.72,34-23.72,46,0,0-9,11-23,3,0,0-36.28-15-45.28-35,0,0-3-8,3-21,0,0,14-36,37-48C646,406,664,396,688.47,417.5Z"/><path class="cls-7" d="M479,739s9,3,14,15c0,0,2,4,6,3l5-2s-9-19-17-20Z"/><path class="cls-8" d="M505.75,757.16S497.22,757,490.1,773"/><path class="cls-5" d="M559.63,665.33S541.25,661,527.25,653c0,0-13-6-17,4,0,0-6.26,21.11-42,83,0,0,11,8,31,6C499.25,746,557.15,699.9,559.63,665.33Z"/><path class="cls-5" d="M561.25,656s53.59-31.35,70.56-67.08c0,0,8.77-21.36-16.24-34.44,0,0-16.93-8.23-33.1-4.9l-.62.13c-16.35,3.68-19.8,33.5-19.8,33.5s-5.56,24-21.8,50.8C540.25,634,544,646.56,561.25,656Z"/><path class="cls-5" d="M584.09,642.81s-6.81,20.85-22.27,30.28c0,0-5.92,3.87-12.81-6.15a6.3,6.3,0,0,1,.66-8,28.34,28.34,0,0,1,10.45-6s6.76-2.06,15.58-13.9c0,0,3.26-4.83,4.11-3A27.67,27.67,0,0,1,584.09,642.81Z"/><circle class="cls-7" cx="718.75" cy="483.5" r="13.5" transform="translate(-144.33 557.48) rotate(-38.83)"/><path class="cls-7" d="M698,413l-6.72,11s-19.84-12.09-25-18c0,0,4-4,5-4Z"/><path class="cls-5" d="M700,335s25,2,32,7,17,27,11,51-26,24-26,24-35,2-53-17c0,0-8-10-1-26s31-37,31-37A8.76,8.76,0,0,1,700,335Z"/><path class="cls-9" d="M741.47,357.5s-7-1-11,0-9,2-9,8c0,0,1,23-4,33,0,0-5,8,3,8,0,0,12.34.89,17.67-2.06C738.14,404.44,750.47,385.5,741.47,357.5Z"/><path class="cls-11" d="M728.47,374.5s8,3,11,6c0,0,2,3,1,5,0,0-10,0-11-4A24.42,24.42,0,0,1,728.47,374.5Z"/><path class="cls-7" d="M711.47,377.5s1,14-2,22c0,0-4,7-14,6,0,0-18-1-27-12a7.2,7.2,0,0,1,0-7s6-13,11-17c0,0,3-3,9-2,0,0,14,2,19,5C707.47,372.5,711.47,374.5,711.47,377.5Z"/><path class="cls-5" d="M707.47,379.5s-1.39,16.56-4,24c0,0-1,2-12,1,0,0-14-1-23-11,0,0-1.86-1.93-.11-5.65,0,0,5.23-12.08,9.59-15.8,0,0,2.3-3.48,7.53-2.55,0,0,12,2,17,5C702.47,374.5,707.47,376.71,707.47,379.5Z"/><path class="cls-5" d="M716,735s-4,15-3,30h67s8-8-2-10l-29-6a43.59,43.59,0,0,0-12-18Z"/><path class="cls-7" d="M723,731s9,3,14,15c0,0,2,4,6,3l5-2s-9-19-17-20Z"/><path class="cls-8" d="M749.75,749.16S741.22,749,734.1,765"/><path class="cls-5" d="M742.87,635.14s-17.23,7.72-33.21,9.86c0,0-12.41,2-10.41,14,0,0,4,9,14,80,0,0,16,10.63,30.64-3.11C743.89,735.89,761.89,664.11,742.87,635.14Z"/><path class="cls-5" d="M739.61,602.4s12.7,17.88,11.08,35.92c0,0-.41,7.06-12.57,6.64a6.3,6.3,0,0,1-6.07-5.31,28.34,28.34,0,0,1,1.4-12s2.37-6.66-1.91-20.79c0,0-1.95-5.5,0-5.1A27.67,27.67,0,0,1,739.61,602.4Z"/><path class="cls-12" d="M722.25,468a14.11,14.11,0,0,1,15,8s4,9-1,18c0,0-4,8-17,8"/><path class="cls-12" d="M715.75,487.5a9.14,9.14,0,0,0,8.74,8.22"/><circle class="cls-7" cx="675.58" cy="448.94" r="20" transform="translate(-132.19 522.77) rotate(-38.83)"/><path class="cls-5" d="M698.82,441.58a224.18,224.18,0,0,1,26.56,30.07s-5.07,13.78-14.69,21c0,0-19.41,5.75-45-15.11,0,0-11.58-8.83,13.08-31C678.81,446.53,692.64,435,698.82,441.58Z"/><path class="cls-5" d="M649.57,419.81s-16.66,16,3.7,38.1c0,0,13.26-4.26,19.36-1.46,0,0,8.89-3.31,11.84-10.81,0,0-2.22-12.33,1.5-20.46C686,425.17,667,403.2,649.57,419.81Z"/><path class="cls-5" d="M705.47,344.5s5.84-28,8.42-32l.64.28s-6.06,30.69-7.06,31.69A1.39,1.39,0,0,1,705.47,344.5Z"/><circle class="cls-5" cx="714.72" cy="309.25" r="3.75"/></g></svg>