<svg xmlns="http://www.w3.org/2000/svg" viewBox="0 0 1920 1080"><defs><style>.cls-1,.cls-7,.cls-9{fill:none;}.cls-2{fill:#e2e2e2;}.cls-10,.cls-2,.cls-4,.cls-6,.cls-7,.cls-9{stroke:#1b1f32;}.cls-10,.cls-11,.cls-12,.cls-2,.cls-3,.cls-4,.cls-5,.cls-6,.cls-7,.cls-9{stroke-miterlimit:10;}.cls-10,.cls-2,.cls-3,.cls-4,.cls-5,.cls-6,.cls-7{stroke-width:2px;}.cls-11,.cls-3{fill:#ffcc62;stroke:#ff9d00;}.cls-4{fill:#595462;}.cls-12,.cls-5{fill:#00adab;stroke:#007774;}.cls-6,.cls-8{fill:#403c47;}.cls-10{fill:#101218;}</style></defs><title>AI_Loader_12</title><g id="Layer_31" data-name="Layer 31"><rect class="cls-1" width="1920" height="1080"/></g><g id="_10" data-name="10"><circle class="cls-2" cx="1118.51" cy="329.14" r="3.75" transform="translate(-31.8 138.95) rotate(-7.01)"/><path class="cls-2" d="M1132,363s-9.21-27-12.26-30.71l-.6.36s9.76,29.73,10.88,30.6A1.39,1.39,0,0,0,1132,363Z"/><polygon class="cls-3" points="1080.13 486.63 957.66 304.7 960 330.76 1070.37 493.76 1080.13 486.63"/><path class="cls-4" d="M1087.52,495.62c-.47-.21,43.72,65.19,43.72,65.19s-1.72,6.48-10.74,7.33l-44.39-66.37,11.4-6.14"/><path class="cls-4" d="M1064.7,496l-11.34,4.39s1.22,5.88,5.54,7a94.42,94.42,0,0,1,13.51-3.82S1067.43,494.37,1064.7,496Z"/><path class="cls-4" d="M1086.94,480.11s4.16,5.27,1.09,15.09l-16.41,9.53s-6.89-3.68-8.11-9.55Z"/><path class="cls-4" d="M964.44,501.37c-1,.95-40.77,55.05-40.77,55.05s-7.84-3.39-9.59-8.48l39.73-54.1Z"/><path class="cls-4" d="M970.93,491.68,988,490.52s.85,3-1.25,4.94L976.53,500s-3.1,1.85-11-.54Z"/><path class="cls-4" d="M959.93,483.93l-3.77-16.7s-3.16.06-4.38,2.61l-1.39,11.09s-.89,3.49,3.66,10.37Z"/><path class="cls-5" d="M960.29,484.14c0-1,125.31-185,125.31-185l-1.19,24L971,490.68Z"/><polygon class="cls-4" points="959.49 480.1 975.97 490.93 965.34 503.42 951.76 494.74 959.49 480.1"/><path class="cls-2" d="M905.29,739.66s-4.63,14.82-4.27,29.85L968,772.34s8.33-7.65-1.58-10.08L937.66,755a43.59,43.59,0,0,0-11.23-18.49Z"/><path class="cls-6" d="M912.45,736s8.87,3.38,13.35,15.58c0,0,1.83,4.08,5.87,3.25l5.08-1.79s-8.19-19.36-16.14-20.7Z"/><path class="cls-7" d="M938.43,755.24s-8.51-.52-16.31,15.16"/><path class="cls-6" d="M891.72,619.59s15.3-.21,21.52,24c0,0-22.63,8.94-28.77,4.13s-9.71-21.44-9.71-21.44Z"/><path class="cls-2" d="M819.84,550.52c17.29-22.31,40.52-15.74,40.52-15.74,32.34,22.79,44,87.63,44,87.63-12.24,15.43-30.62,16.42-30.62,16.42s-39.09-51.93-55.32-68.51C818.47,570.32,812.85,559.53,819.84,550.52Z"/><path class="cls-2" d="M909,629.31s-20.6,14.17-27.71,16.88c0,0-9.16,3.63-6.61,14.74,0,0,7.93,21.14,27.14,90,0,0,15.87-.56,29.26-10C931.09,740.9,932,655.27,909,629.31Z"/><path class="cls-2" d="M903.53,599.19s14.62,16.35,15,34.45c0,0,.38,7.06-11.75,8a6.3,6.3,0,0,1-6.62-4.6,28.34,28.34,0,0,1,.06-12s1.61-6.89-4.22-20.45c0,0-2.55-5.24-.56-5.07A27.67,27.67,0,0,1,903.53,599.19Z"/><path class="cls-2" d="M806.8,506.17s-6.66,12.95-10,24.52c0,0-1.56,18,32.57,31s45.69-4.15,45.69-4.15,5.09-10.2,4.3-26.67c0,0,0-5.1-10.6-8.23L816.21,505S808.56,502.45,806.8,506.17Z"/><path class="cls-6" d="M824.26,490.92s-5.91,8.66-6.69,17.68c0,0,24.4,16.26,56,16.43,0,0,1.51-6.8,1.31-10.92Z"/><path class="cls-6" d="M835.26,463.84a49,49,0,0,0-13.51,26.88s25.91,20,56.76,28.28c0,0,17.11-8.22,20-18Z"/><path class="cls-6" d="M777.85,614s-14,6.85-13.33,18l25.27,13s16.9-13,14-24Z"/><path class="cls-2" d="M712.29,741.66s-4.63,14.82-4.27,29.85L775,774.34s8.33-7.65-1.58-10.08L744.66,757a43.59,43.59,0,0,0-11.23-18.49Z"/><path class="cls-6" d="M719.45,738s8.87,3.38,13.35,15.58c0,0,1.83,4.08,5.87,3.25l5.08-1.79s-8.19-19.36-16.14-20.7Z"/><path class="cls-7" d="M745.43,757.24s-8.51-.52-16.31,15.16"/><path class="cls-6" d="M850.08,558.57a19.47,19.47,0,0,0,2.59-17.92c-3.67-10.13-21.39-18.72-27.59-12.92Z"/><path class="cls-2" d="M796.89,636.72s-24.87-2.53-32.05-5.07c0,0-9.33-3.16-14.58,7,0,0-8,36.35-37.95,101.26,0,0,9,10.58,29.78,1.78C742.09,741.66,797.59,671.36,796.89,636.72Z"/><path class="cls-2" d="M801.66,630.32s36.36-34.45,49.57-71.74c0,0,6.11-21.89-20.12-32.33a53.79,53.79,0,0,0-30.22.13l-.61.2C784.39,531.91,784,561.93,784,561.93s.41,19-13,47.29A98,98,0,0,0,801.66,630.32Z"/><path class="cls-2" d="M815.89,619.48s-3.89,25-17.5,36.93c0,0-5.16,4.83-13.68-3.86a6.3,6.3,0,0,1-.73-8,28.34,28.34,0,0,1,9.26-7.7s6.31-3.19,13-16.38c0,0,1.78-3.27,3.52-3.68C809.72,616.76,813,615.38,815.89,619.48Z"/><path class="cls-8" d="M943.52,441s12,4,9,19c0,0-8,5-13,0Z"/><path class="cls-2" d="M938.52,456c1,0,9,1,12,4,0,0-1.11,22.52-9.05,31.76,0,0-12.95,5.24-20.95,1.24,0,0-3-27,2-34A52.41,52.41,0,0,1,938.52,456Z"/><path class="cls-2" d="M915.52,535.78s-9-28.78,3-44.78c0,0,16-9,25,0,0,0-2.45,27.9-9.73,33.45Z"/><path class="cls-2" d="M945.52,425s19,4,10,37c0,0-2,2-6,1,0,0,3-11-3-16C946.52,447,941.52,432,945.52,425Z"/><path class="cls-2" d="M919.52,544s-4-1-5-7c0,0,7-13,12-13s5.78,1.68,5.78,1.68Z"/><path class="cls-6" d="M931.52,528s0-2-5-3c0,0-7,4-9,11,0,0,2,3,4,4C921.52,540,931.52,531,931.52,528Z"/><path class="cls-2" d="M903.52,403s37,15,44,25c0,0,5,9,2,17,0,0-12,39-49,60,0,0-18,12-42-5,0,0-24-22-26-39a23.13,23.13,0,0,1,2-9s17-44,36-52C870.52,400,882.52,394,903.52,403Z"/><path class="cls-6" d="M938.52,424l-6,6s-7,2-17-12Z"/><path class="cls-2" d="M1118.52,517s10-25,27-34c0,0,21,2,26,24,0,0-15,23-42,25Z"/><path class="cls-2" d="M1115.52,539s9,0,11-6-14-15-14-15l-12,4Z"/><path class="cls-2" d="M1169,739.66s4.63,14.82,4.27,29.85l-66.94,2.83s-8.33-7.65,1.58-10.08l28.72-7.22a43.59,43.59,0,0,1,11.23-18.49Z"/><path class="cls-6" d="M1161.86,736s-8.87,3.38-13.35,15.58c0,0-1.83,4.08-5.87,3.25l-5.08-1.79s8.19-19.36,16.14-20.7Z"/><path class="cls-7" d="M1135.88,755.24s8.51-.52,16.31,15.16"/><path class="cls-6" d="M1124.46,614.76s-14.44,5.06-11.95,30c0,0,24.32.62,28.44-6s1.75-23.47,1.75-23.47Z"/><path class="cls-2" d="M1219.32,570.05c-10.66-26.14-34.79-26.05-34.79-26.05-37.27,13.26-66,72.56-66,72.56,7.64,18.16,25.08,24,25.08,24s51.61-39.52,71.69-51.12C1215.31,589.49,1223.62,580.61,1219.32,570.05Z"/><path class="cls-2" d="M1101.73,639.15s25,1.29,32.45-.12c0,0,9.7-1.7,13.35,9.1,0,0,4.31,22.17,24,90.88,0,0-13.81,7.83-30.18,6.78C1141.34,745.78,1095.76,673.29,1101.73,639.15Z"/><path class="cls-2" d="M1097.86,607.57s-8.68,20.14-3.32,37.44c0,0,1.88,6.82,13.68,3.86a6.3,6.3,0,0,0,4.82-6.46,28.34,28.34,0,0,0-3.88-11.4s-3.71-6-2.49-20.73c0,0,.75-5.78-1.08-5A27.67,27.67,0,0,0,1097.86,607.57Z"/><path class="cls-2" d="M1260,524.22s5.07,13.65,7,25.54c0,0-.6,18.1-36,26.87s-44.87-9.56-44.87-9.56-3.84-10.73-1.09-27c0,0,.61-5.06,11.5-6.91l54.29-11.23S1258.74,520.31,1260,524.22Z"/><path class="cls-6" d="M1244.52,507s4.84,9.3,4.53,18.35c0,0-26.16,13.24-57.53,9.65,0,0-.69-6.93,0-11Z"/><path class="cls-6" d="M1236.52,479a49,49,0,0,1,11,28s-25.52,18.52-57,24c0,0-12.83-13.22-14.82-23.22Z"/><path class="cls-2" d="M1237.52,478s2-8-4-19c0,0-19.56-38.31-44-47,0,0-21-8-47.35,20.41-.68.73-10.75,12.86-12.35,21.94,0,0-3.25,10.27,5.7,22.64,0,0,26,33,41,46,0,0,12,10,33-9C1209.52,514,1234.52,492,1237.52,478Z"/><path class="cls-3" d="M1136.52,478s-1-8,5-8.76c0,0,7.45-2,15,10.76,0,0,8,15-.66,20.6C1155.86,500.6,1140.52,484,1136.52,478Z"/><path class="cls-7" d="M1237.52,478s2-8-4-19c0,0-19.56-38.31-44-47,0,0-21-8-47.35,20.41-.68.73-10.75,12.86-12.35,21.94,0,0-3.25,10.27,5.7,22.64,0,0,26,33,41,46,0,0,12,10,33-9C1209.52,514,1234.52,492,1237.52,478Z"/><path class="cls-6" d="M1287.46,625s12.76,3.89,12.1,15.06l-24,16s-16.9-13-14-24Z"/><path class="cls-9" d="M1297.77,642s.48-12.16-9.82-13.88"/><circle class="cls-6" cx="1156.07" cy="504.15" r="13.5" transform="translate(-45.89 122.11) rotate(-5.93)"/><path class="cls-9" d="M1146.16,504.66S1143.45,500,1154,493"/><path class="cls-2" d="M1366,741.66s4.63,14.82,4.27,29.85l-66.94,2.83s-8.33-7.65,1.58-10.08l28.72-7.22a43.59,43.59,0,0,1,11.23-18.49Z"/><path class="cls-6" d="M1358.86,738s-8.87,3.38-13.35,15.58c0,0-1.83,4.08-5.87,3.25l-5.08-1.79s8.19-19.36,16.14-20.7Z"/><path class="cls-7" d="M1332.88,757.24s8.51-.52,16.31,15.16"/><path class="cls-6" d="M1100.43,539.83a10.76,10.76,0,0,0,4.75,4.3s12-.93,14-7.34a6.46,6.46,0,0,0-3.76-4.46S1108.65,540.53,1100.43,539.83Z"/><path class="cls-6" d="M1095.68,535.54a7.1,7.1,0,0,0,4.91,5.28s12-.93,14.83-8.48a10.82,10.82,0,0,0-4.08-6.43S1101.93,536.55,1095.68,535.54Z"/><path class="cls-6" d="M1091.44,528.12s0,6.08,4.4,8.4c0,0,14.81-2.4,15.5-10.62,0,0-2.61-3.63-4.75-4.3C1106.6,521.61,1094.56,528.63,1091.44,528.12Z"/><path class="cls-6" d="M1112.34,511.87s4.75,4.3,6.54,9.07a7.27,7.27,0,0,1-4.14,5.74s-5.26-1.17-10.32-7.44c0,0,6.78-8.19,7.92-7.36"/><path class="cls-6" d="M1100,524.78s-2.91,6.45-11.83,4.91c0,0-6.72-1.94-5.74-8.95,0,0,10.72-1.06,12.23-2.71Z"/><path class="cls-6" d="M1092,521.24s-6.48,5.22-12,2.59c0,0-3.67-5.32-3.11-10.84h0s9,1.1,10.57-.54h0l4.51,8.79"/><path class="cls-6" d="M1082.84,503.09s-8.24-.3-9.48.38-.36,8.14,2,10.89,8.82.31,8.82.31l-1.56-10.74"/><path class="cls-6" d="M1211.31,570.41a19.47,19.47,0,0,1-1.61-18c4.22-9.91,22.39-17.52,28.26-11.39Z"/><path class="cls-2" d="M1269.1,650.35s24-6.87,30.66-10.63c0,0,8.63-4.75,15.58,4.29,0,0,14.31,34.37,55.19,93,0,0-7,12-29,7C1341.52,744,1274.51,684.58,1269.1,650.35Z"/><path class="cls-2" d="M1262.52,643s-37.52-33.19-52-70c0,0-6.85-21.66,19-33a53.79,53.79,0,0,1,30.21-.91l.61.18c16.06,4.79,17.45,34.78,17.45,34.78s.25,19,14.61,46.81A98,98,0,0,1,1262.52,643Z"/><path class="cls-2" d="M1249.62,635.26s6.35,24.46,21.07,35c0,0,5.62,4.3,13.23-5.19a6.3,6.3,0,0,0-.07-8.06,28.34,28.34,0,0,0-10-6.74s-6.59-2.55-14.51-15c0,0-2.1-3.08-3.87-3.32C1255.49,631.95,1252.07,630.9,1249.62,635.26Z"/><path class="cls-6" d="M1138.56,435.5c.92.38,4,6,4,6s11.83-10.25,16.43-21.34Z"/><path class="cls-2" d="M1136.3,352.89s-24.57,5-30.91,10.85-13.58,28.87-4.69,52,28.73,20.65,28.73,20.65,35-2.29,50.53-23.34c0,0,6.72-10.9-2.18-25.93s-35.28-32.94-35.28-32.94A8.76,8.76,0,0,0,1136.3,352.89Z"/><path class="cls-10" d="M1097.85,380.29s6.83-1.85,10.92-1.34,9.18.89,9.91,6.84c0,0,1.81,23,8,32.27,0,0,5.94,7.33-2,8.31,0,0-12.14,2.38-17.79.11C1106.89,426.47,1092.33,409.18,1097.85,380.29Z"/><path class="cls-11" d="M1112.83,395.58s-7.57,4-10.19,7.3c0,0-1.62,3.22-.38,5.08,0,0,9.93-1.22,10.43-5.31A24.42,24.42,0,0,0,1112.83,395.58Z"/><path class="cls-6" d="M1130.07,396.48s.72,14,4.67,21.59c0,0,4.82,6.46,14.63,4.25,0,0,17.74-3.19,25.33-15.2a7.2,7.2,0,0,0-.85-6.95s-7.54-12.17-13-15.53c0,0-3.34-2.61-9.18-.89,0,0-13.65,3.69-18.25,7.28C1133.43,391,1129.7,393.5,1130.07,396.48Z"/><path class="cls-2" d="M1134.28,398s3.4,16.27,6.9,23.33c0,0,1.24,1.86,12-.47,0,0,13.77-2.7,21.49-13.72,0,0,1.61-2.15-.58-5.62,0,0-6.66-11.35-11.44-14.51,0,0-2.71-3.17-7.78-1.61,0,0-11.67,3.45-16.26,7C1138.63,392.4,1133.94,395.21,1134.28,398Z"/><circle class="cls-6" cx="1180.58" cy="447.71" r="20" transform="translate(557.74 1546.02) rotate(-81.21)"/><path class="cls-2" d="M1156.81,453a224.18,224.18,0,0,0-7.94,39.33s11.29,9.39,23.2,10.79c0,0,19.69-4.74,31.36-35.59,0,0,5.6-13.44-26.82-20.26C1176.61,447.27,1158.85,444.18,1156.81,453Z"/><path class="cls-6" d="M1088.28,500.6s.92-7.75,3.55-9.5a9.13,9.13,0,0,1,7.53,3.36s2.92,7.56-.16,11.49Z"/><path class="cls-2" d="M1096.87,497.78l-14,5.31s-1.16,18.4,11.18,26.13c0,0,8.8-1.62,13.35-6.55a12.13,12.13,0,0,0,2.35-4.53c1.42-4.9-5-15-7.08-18.7A5.64,5.64,0,0,0,1096.87,497.78Z"/><path class="cls-2" d="M1144.37,492.58s-37.06,5.59-41.09,7.55c0,0-3.72,15.57,1.89,22.09,0,0,22.67,18.18,44.37,9.62a11.68,11.68,0,0,0,5.48-7.14s4.15-17.31-3.5-29.32C1151.52,495.38,1148.58,492,1144.37,492.58Z"/><path class="cls-2" d="M1182.32,413.06s-19,1-20,19.07c-.06,1,1.78,14.93,1,20,0,0,8.51,9.57,19.39,7,0,0,4.47-10.25,17.51-9.93,0,0,8.62-7.46,3.9-21.23A22.9,22.9,0,0,0,1182.32,413.06Z"/><path class="cls-2" d="M939.65,343.89s25.57,4,31.91,9.85,13.58,28.87,4.69,52-28.73,20.65-28.73,20.65-35-2.29-50.53-23.34c0,0-6.72-10.9,2.18-25.93s34.28-31.94,34.28-31.94A8.76,8.76,0,0,1,939.65,343.89Z"/><path class="cls-10" d="M979.52,375s-19-7-23-8-7-1-10,3c0,0-11,16-22,27,0,0-3,5,1,9,0,0,17,14,44.54,10.47C970.06,416.47,982.52,403,979.52,375Z"/><path class="cls-12" d="M948.52,377.58s7.61,7.44,9.46,11.26c0,0,.82,4-.78,5.57,0,0-11.58-5.66-11.21-9.77C946,384.64,945.93,381.64,948.52,377.58Z"/><path class="cls-6" d="M928.52,377a188.83,188.83,0,0,1-10,18s-4,5.84-11.22,2.54c0,0-10.3-2.17-13.85-14.78a8.85,8.85,0,0,1,2.07-6.69s8.38-11,13.34-13.66a7.18,7.18,0,0,1,7.39.2s10.27,3.39,11.88,8.22A10.82,10.82,0,0,1,928.52,377Z"/><path class="cls-2" d="M924.06,375.51s-7.95,14.5-12.12,21c0,0-.4,3-8.42-.5,0,0-6.23-1.58-10.07-13.24,0,0-.83-2.28,1.59-5.43,0,0,7.09-10.8,11.48-13.34,0,0,4-2,7-1,0,0,6.11,2,9,6C922.52,369,924.88,372.85,924.06,375.51Z"/><path class="cls-12" d="M979,387.5s-6.22,2.25-9.62,4.79a41.32,41.32,0,0,0-1.87,5.31s6.93,0,10.23-2.63C977.77,395,979.37,393.57,979,387.5Z"/><ellipse class="cls-5" cx="919.52" cy="462" rx="20" ry="15.64" transform="translate(75.01 1050.02) rotate(-61.53)"/><circle class="cls-6" cx="871.46" cy="427.02" r="20" transform="matrix(1, -0.08, 0.08, 1, -31.72, 71.97)"/><path class="cls-6" d="M935.84,520.05s1.64,6.88,10.69,7c0,0,7-.64,7.32-7.71,0,0-10.33-3.06-11.5-5Z"/><path class="cls-6" d="M944.43,518.09s5.38,6.34,11.26,4.8c0,0,4.6-4.53,5.1-10.06h0s-9.1-.62-10.28-2.52h0l-6.09,7.78"/><path class="cls-6" d="M956.81,502s8.15,1.26,9.24,2.16-1.18,8.06-4,10.33-8.72-1.36-8.72-1.36l3.55-10.26"/><path class="cls-6" d="M951.94,498.52s.56-7.79-1.7-10a9.13,9.13,0,0,0-8,1.88s-4.29,6.87-2,11.32Z"/><path class="cls-2" d="M944,494.13,956.81,502s-2.33,18.29-15.9,23.56c0,0-8.33-3.25-11.87-8.95a12.13,12.13,0,0,1-1.46-4.89c-.47-5.08,7.77-13.77,10.48-17A5.64,5.64,0,0,1,944,494.13Z"/><circle class="cls-6" cx="887.93" cy="487.53" r="13.5" transform="translate(-45.61 94.32) rotate(-5.93)"/><path class="cls-2" d="M894.78,434a224.18,224.18,0,0,1,5.07,39.8s-15.35,9.65-27.33,10.19c0,0-15.88-7.25-25.29-38.87,0,0-4.62-13.81,28.22-18.27C875.45,426.86,893.38,425.07,894.78,434Z"/><path class="cls-2" d="M857.49,397.13s-17.39,12.4-8,27.87c.52.85,8.3,10.48,10.57,15,0,0,12.44,3,19.93-5.28a23,23,0,0,1,12.75-18.12s2.85-11-8.87-19.68A22.9,22.9,0,0,0,857.49,397.13Z"/><path class="cls-2" d="M902.67,472.36s32.76,18.21,35.84,21.45c0,0-2,15.89-9.5,20,0,0-27.6,9.09-44.93-6.52a11.68,11.68,0,0,1-2.63-8.61S883.62,481,895,472.48C895,472.48,898.92,470.37,902.67,472.36Z"/><path class="cls-6" d="M936.69,546.45a10.76,10.76,0,0,1-4.42,4.63s-12,0-14.51-6.29a6.46,6.46,0,0,1,3.42-4.72S928.55,547.75,936.69,546.45Z"/><path class="cls-6" d="M941.11,541.82a7.1,7.1,0,0,1-4.51,5.63s-12,0-15.42-7.37a10.82,10.82,0,0,1,3.6-6.71S935,543.29,941.11,541.82Z"/><path class="cls-6" d="M943.79,534.11s.47,6.06-3.77,8.7c0,0-14.94-1.3-16.24-9.45,0,0,2.34-3.81,4.42-4.63C928.2,528.73,940.72,534.85,943.79,534.11Z"/><path class="cls-9" d="M768,631.5s2-12,12-15"/><path class="cls-2" d="M936.95,351s9.21-27,12.26-30.71l.6.36s-9.76,29.73-10.88,30.6A1.39,1.39,0,0,1,936.95,351Z"/><circle class="cls-2" cx="950.43" cy="317.14" r="3.75" transform="translate(519.69 1221.77) rotate(-82.99)"/></g></svg>