<svg xmlns="http://www.w3.org/2000/svg" viewBox="0 0 1920 1080"><defs><style>.cls-1,.cls-4,.cls-5{fill:none;}.cls-2{fill:#403c47;}.cls-2,.cls-3,.cls-4,.cls-5,.cls-6,.cls-9{stroke:#1b1f32;}.cls-10,.cls-11,.cls-2,.cls-3,.cls-4,.cls-5,.cls-6,.cls-7,.cls-8,.cls-9{stroke-miterlimit:10;}.cls-2,.cls-3,.cls-4,.cls-6,.cls-7,.cls-8,.cls-9{stroke-width:2px;}.cls-3{fill:#e2e2e2;}.cls-6{fill:#595462;}.cls-11,.cls-7{fill:#00adab;stroke:#007774;}.cls-10,.cls-8{fill:#ffcc62;stroke:#ff9d00;}.cls-9{fill:#101218;}</style></defs><title>AI_Loader_4</title><g id="Layer_31" data-name="Layer 31"><rect class="cls-1" width="1920" height="1080"/></g><g id="_4" data-name="4"><path class="cls-2" d="M943,639s3.31,11.17,15,15.18l22.29-15.28s2.23-22.29-17.85-24.39Z"/><path class="cls-3" d="M912.52,741.15s-4.26,14.93-3.52,29.94l67,1.17s8.14-7.86-1.83-10l-28.89-6.5a43.59,43.59,0,0,0-11.68-18.21Z"/><path class="cls-2" d="M919.59,737.27s8.95,3.16,13.74,15.24c0,0,1.93,4,5.95,3.1l5-1.91s-8.67-19.15-16.65-20.29Z"/><path class="cls-4" d="M946,755.9s-8.52-.31-15.92,15.56"/><path class="cls-3" d="M979.46,648.54s-18.87.51-34.45-3.65c0,0-12.22-2.92-15,8.93,0,0-3,17.79-21,87.18,0,0,13.88,8,32.7,1C941.7,742,985.9,682.6,979.46,648.54Z"/><path class="cls-3" d="M989,617.06s4.86,21.39-3.56,37.42c0,0-3.09,6.36-14.15,1.3a6.3,6.3,0,0,1-3.56-7.23,28.34,28.34,0,0,1,5.89-10.5s4.75-5.24,6.23-19.93c0,0,.31-5.82,2-4.7A27.67,27.67,0,0,1,989,617.06Z"/><path class="cls-5" d="M962.91,619.56s8.47-.68,13.84,12.66"/><path class="cls-3" d="M857.87,588c4.59-27.86,29.28-24.35,29.28-24.35,38.84,7.49,82.61,51.53,82.61,51.53-4.82,19.1-25.67,28.8-25.67,28.8-27.91-11.62-47-17.78-47-17.78s-32.51-10.65-39.71-21.72C857.42,604.48,855,605.21,857.87,588Z"/><path class="cls-3" d="M720,727s-7,6-11,20l-9,14s-19,1-18,14h56l5-23s1-11-2-17Z"/><path class="cls-4" d="M739,770.36S733,760,700,761"/><path class="cls-3" d="M896,555a86.43,86.43,0,0,1,5,23s-3,32-43,35c0,0-48,1-50-21,0,0-2.34-23.81,4.83-34.9L885,552S895,551,896,555Z"/><path class="cls-2" d="M721,729s-9,9-6,18c0,0,9,2,14,1,0,0,0-13,7-19Z"/><path class="cls-2" d="M860.41,599.75S863,584,845,575c0,0-23-10-35,5Z"/><path class="cls-3" d="M749,674s-26,22-32,57c0,0,2,13,23,10,0,0,41-24,53-46,0,0,5-7-6-18,0,0-13-9-19-10C768,667,760,666,749,674Z"/><path class="cls-3" d="M860,603s-34,59-64,82c0,0-16.42-2.42-31-17-1-1,6-64.22,46.48-92.61,0,0,8.52-4.39,26.52,1.61C838,577,864,587,860,603Z"/><path class="cls-2" d="M886,540s3,9,3,16c0,0-29,22-55,8,0,0-10-8-11-21Z"/><path class="cls-2" d="M883,517s6,13,8,25c0,0-16.87,18.85-64.43,14.42,0,0-11.57-17.42-12.57-28.42Z"/><path class="cls-2" d="M787,473c-1,0-13,7-12,17s5,13,9,15,12-2,14-8S787,473,787,473Z"/><path class="cls-3" d="M813,497s-19-11-33,2c0,0-5,5-3,10l9,31s23,6,28,2C814,542,820,518,813,497Z"/><path class="cls-3" d="M777,578s1-29,4-35,18-12,31-5c0,0,9,5.93,9,13,0,1-15,27-22,31C799,582,785,586,777,578Z"/><path class="cls-6" d="M774.87,601.44c1-1,55.89-39.61,55.89-39.61s-3.23-7.91-8.28-9.77l-54.92,38.59Z"/><path class="cls-6" d="M765,607.72l-1.51,17.05s3,.91,5-1.14l4.71-10.14s1.91-3.06-.31-11Z"/><path class="cls-6" d="M757.53,596.56l-16.61-4.12s.12-3.16,2.7-4.33L754.74,587s3.51-.81,10.29,3.88Z"/><path class="cls-7" d="M757.74,596.93c-1,0-187.6,121.42-187.6,121.42l24-.69L764,607.75Z"/><polygon class="cls-6" points="753.71 596.04 764.19 612.75 776.9 602.38 768.5 588.61 753.71 596.04"/><path class="cls-3" d="M787,458s-14,0-19,21c0,0-1,12,4,23a14.63,14.63,0,0,0,5-3s1-14,10-18c0,0,6-14,0-22"/><path class="cls-2" d="M770,578s-1,6.64,3,8.82c0,0,12-3.82,14-6.82,0,0-1-5-2-6C785,574,773,574,770,578Z"/><path class="cls-2" d="M789,600s-4,4-9,3c0,0-7-10-7-14,0,0,4-5,9-5Z"/><path class="cls-2" d="M789,578c-.71-.71-6,1-9,5,0,0,5,16,9,18,0,0,6-1,9-8C798,593,793,582,789,578Z"/><path class="cls-2" d="M793,571"/><path class="cls-2" d="M793,571s10,8,11,17c0,0-2,6-6,7,0,0-8-12-11-18C787,577,789,572,793,571Z"/><path class="cls-2" d="M814,553s-16,2-20,6c0,0-3,6,1,10l15-2Z"/><path class="cls-2" d="M821,578a10.82,10.82,0,0,0,7-3s5-6,4-9H822Z"/><path class="cls-2" d="M814,582a14.63,14.63,0,0,0,8-3s4-6,3-11c0,0-6-2-9-2Z"/><path class="cls-2" d="M806,566l-2,17s6,4,11,0c0,0,4-8,4-14Z"/><path class="cls-3" d="M789,453s41-23,79-19c0,0,8,1,10,6,0,0,11,25,11,77,0,0-27,40-76,18,0,0-34-37-30-73C783,462,784,456,789,453Z"/><path class="cls-2" d="M820,460s16,14,28-8Z"/><ellipse class="cls-7" cx="844" cy="496" rx="19" ry="20" transform="translate(-107.15 264.35) rotate(-16.75)"/><path class="cls-2" d="M869,457s-6,9-2,15c0,0,19,9,23,7,0,0,5-11-1-19Z"/><path class="cls-2" d="M1144.14,526.17s1.8,14.49-9.81,18.81l-22.7-14.66s-2.84-22.23,17.18-24.87Z"/><path class="cls-3" d="M1238.8,533.7c11.5-25.78-11.05-36.44-11.05-36.44-36.56-15.12-97.33-2.43-97.33-2.43C1123.93,513.43,1136,533,1136,533c29.7,5.65,49,11,49,11s33,9,45.11,3.72C1230.11,547.72,1231.69,549.63,1238.8,533.7Z"/><path class="cls-3" d="M1282.23,498.5s1.22,14.51-.11,26.48c0,0-5.43,17.28-41.92,16.22S1199.54,520,1199.54,520s-.82-11.37,6.19-26.3c0,0,1.95-4.71,12.93-3.57l55.32,3.74S1282,494.38,1282.23,498.5Z"/><path class="cls-2" d="M1213.28,475a45.78,45.78,0,0,0-1,16s35,12,66,6c0,0-.28-7,0-12Z"/><path class="cls-2" d="M1219.28,442s-10,18-11,35c0,0,39.72,14,73.72,11,0,0,7.28-12,7-23Z"/><path class="cls-3" d="M1357,278s-19,13-30,33c0,0,13,17,36,15,0,0,14-17,17-45Z"/><path class="cls-2" d="M1275,375s-4-14,11-19l12,15s-5,9-10,11Z"/><path class="cls-5" d="M1279,374s-1-11,9-14"/><path class="cls-3" d="M1358,265s-4,10-3,14c0,0,9,7,25,3,0,0,7-4,8-14C1388,268,1370,261,1358,265Z"/><polygon class="cls-8" points="1435.03 260.63 1650.8 221.4 1625.98 213.08 1432.41 248.83 1435.03 260.63"/><path class="cls-6" d="M1423.83,263.8c.38-.34-77.25,13.92-77.25,13.92s-5.25-4.18-2.41-12.77l78.6-14.05,1.06,12.91"/><path class="cls-6" d="M1432.67,242.75l.52-12.15s-5.87-1.24-8.65,2.26a94.42,94.42,0,0,1-1.92,13.9S1433,245.9,1432.67,242.75Z"/><path class="cls-6" d="M1438.26,269.49s-6.49,1.69-14.26-5.06l-2.15-18.85s6.13-4.84,12-3.6Z"/><path class="cls-2" d="M1369,258s3.32,7,2.16,14a14.8,14.8,0,0,1-7.16,2s-4-12-5-13C1359,261,1362,256,1369,258Z"/><path class="cls-2" d="M1378,256s5,13,2,16c0,0-5.82,3.39-8.67,1.25C1371,273,1371,260,1367,257,1367,257,1371,254,1378,256Z"/><path class="cls-2" d="M1385,253s6,5,2,18a35.48,35.48,0,0,1-7,1s-1-14-3-16A12,12,0,0,1,1385,253Z"/><path class="cls-2" d="M1369,279s16,1,18-2c0,0,2.43-5.66.21-9.33,0,0-14.21.33-17.21,3.33A13.05,13.05,0,0,0,1369,279Z"/><path class="cls-2" d="M1403,258s2-9-5-13c0,0-7,0-10,3l2,10Z"/><path class="cls-2" d="M1415,255s-4.26-7.62-6.6-10.5c-.4-.5-6.4-2.5-11.4.5,0,0,6,9,6,12Z"/><path class="cls-2" d="M1422,253s0-8-5-10c0,0-6-2-9,0,0,0,5,6,6,10h8"/><path class="cls-3" d="M1291,468a21,21,0,0,0,14-4s26.23-20.5,31-46c0,0,1.13-16.59-31-38.18-.83-.56-14.39-8.61-23.6-8.77,0,0-10.35-1.06-16.35,3.94,0,0-36,26-56,69,0,0-6,13,25,17C1234,461,1276.7,467.22,1291,468Z"/><path class="cls-8" d="M1258,381s8.79-1.87,10.48,4c0,0,3.15,7-8.29,16.48,0,0-14.19,11.57-24.19,1.57C1236,403,1252,384.63,1258,381Z"/><path class="cls-4" d="M1291,468a21,21,0,0,0,14-4s26.23-20.5,31-46c0,0,1.13-16.59-31-38.18-.83-.56-14.39-8.61-23.6-8.77,0,0-10.35-1.06-16.35,3.94,0,0-36,26-56,69,0,0-6,13,25,17C1234,461,1276.7,467.22,1291,468Z"/><path class="cls-2" d="M1230.85,530.33a19.47,19.47,0,0,1,7.35-16.55c8.5-6.62,28.07-4.45,30.23,3.75Z"/><path class="cls-2" d="M1279,623.68s10.76,7.79,6.44,18.21l-23.85,6s-9.36-17-3-26.46Z"/><path class="cls-3" d="M1308.28,743s4,15,3,30h-67s-8-8,2-10l29-6a43.59,43.59,0,0,1,12-18Z"/><path class="cls-2" d="M1301.28,739s-9,3-14,15c0,0-2,4-6,3l-5-2s9-19,17-20Z"/><path class="cls-4" d="M1274.51,757.16S1283,757,1290.16,773"/><path class="cls-3" d="M1255.51,641.62s18.65,2.9,34.63.76c0,0,14.3-.67,14.25,10.1,0,0-2.21,18.72,7.61,89.52,0,0-13.13,6.46-30.91-2.92C1281.09,739.08,1244.8,674.58,1255.51,641.62Z"/><path class="cls-3" d="M1280,520c14.59,10.21,9,44,9,44a268.83,268.83,0,0,0-1.4,55.11s-12.91,9.33-32.6,9.89c0,0-36-78-28.5-91.64,0,0,6.5-18.36,25.5-21.36C1252,516,1270,513,1280,520Z"/><path class="cls-3" d="M1241.32,611.55s-1.53,21.88,9.24,36.44c0,0,4,5.81,14.19-.88a6.3,6.3,0,0,0,2.41-7.69,28.34,28.34,0,0,0-7.43-9.48s-5.49-4.45-9.2-18.74c0,0-1.2-5.71-2.67-4.35A27.67,27.67,0,0,0,1241.32,611.55Z"/><path class="cls-3" d="M1349.63,329.35s15.8-23.79,16.85-28.45l-.65-.26s-17.6,25.87-17.61,27.28A1.39,1.39,0,0,0,1349.63,329.35Z"/><circle class="cls-3" cx="1368.23" cy="298.01" r="3.75" transform="translate(184.8 1046.58) rotate(-44.6)"/><path class="cls-2" d="M1292.35,367.24l-7.78,10.27S1304.61,389.35,1312,392c0,0,.37-4.07,0-5Z"/><path class="cls-3" d="M1360.26,326.6s-19-16.4-27.45-17.87-31.16,6.86-44,28,1.17,35.36,1.17,35.36,23.15,26.32,49.32,25.8c0,0,12.74-1.33,19.21-17.54s4.58-48.05,4.58-48.05A8.76,8.76,0,0,0,1360.26,326.6Z"/><path class="cls-9" d="M1315.09,312.85s5.63,4.28,7.72,7.83,4.9,7.81.62,12c0,0-17.08,15.44-20.69,26,0,0-2.19,9.18-7.8,3.48,0,0-9.29-8.16-10.94-14C1284,348.18,1288.84,326.1,1315.09,312.85Z"/><path class="cls-10" d="M1312.12,334s-7.75-3.59-12-3.62c0,0-3.54.68-4.26,2.8,0,0,7,7.12,10.57,5A24.42,24.42,0,0,0,1312.12,334Z"/><path class="cls-2" d="M1321.92,348.25s-10.67,9.12-14.26,16.87c0,0-2.18,7.76,5.56,14.18,0,0,13.35,12.11,27.5,10.8a7.2,7.2,0,0,0,5-4.92s5-13.4,4.38-19.77c0,0,0-4.24-4.9-7.81,0,0-11.25-8.56-16.9-10C1328.29,347.59,1324.06,346.14,1321.92,348.25Z"/><path class="cls-3" d="M1324,351.8s-10.82,12.62-14.28,19.7c0,0-.72,2.12,7.71,9.25,0,0,10.54,9.27,24,8.65,0,0,2.68,0,4.1-3.89,0,0,4.93-12.21,4.52-17.92,0,0,.86-4.08-3.47-7.15,0,0-9.85-7.14-15.5-8.59C1331.09,351.85,1326,349.84,1324,351.8Z"/><path class="cls-3" d="M1176,619.23s12.69,8.95,21.54,21.1l-51.42,43s-11.27-1-4.88-9l18.41-23.2a43.59,43.59,0,0,1-2.33-21.51Z"/><path class="cls-2" d="M1168,620.65s-5,8.07-1.13,20.49c0,0,1,4.35-2.68,6.15l-5.12,1.67s-5.27-20.35.22-26.25Z"/><path class="cls-4" d="M1159.13,651.75s6.44-5.59,22.17,2.12"/><path class="cls-3" d="M1112.75,539.93s18.88,0,34.34-4.59c0,0,12.14-3.25,15.22,8.51,0,0,0,9.85,20,78.73,0,0-10.22,16.23-29.23,9.7C1153,632.28,1107.24,574.14,1112.75,539.93Z"/><path class="cls-3" d="M1102.33,508.71s-4.27,21.51,4.58,37.31c0,0,3.26,6.27,14.18.91a6.3,6.3,0,0,0,3.36-7.33,28.34,28.34,0,0,0-6.17-10.34s-4.89-5.11-6.77-19.75c0,0-.47-5.81-2.1-4.65A27.67,27.67,0,0,0,1102.33,508.71Z"/><path class="cls-3" d="M1391.35,279.54s16.33,2.32,23.08-.4c0,0,10.43-14.34,7.56-32.14,0,0-3.94,1.61-30.36,4.37-1,.1-5.66,3.61-5.34,6.59C1386.29,258,1387,276,1391.35,279.54Z"/><path class="cls-3" d="M1391,276s14-6,22,5c0,0-5,60-15,69,0,0-24,6-39-14,0,0-3.6-4.5-.56-10.93.17-.35.41-.68.56-1.07C1362,316,1381,286,1391,276Z"/><path class="cls-5" d="M1398,350s-11-22.76-41-20.88"/><circle class="cls-2" cx="1368.58" cy="349.52" r="13.5" transform="translate(268.81 1235.91) rotate(-53.19)"/><path class="cls-3" d="M1365,394s8-13,14.74-35.5c0,0-8.4-12-19.52-16.55,0,0-20.24-.64-39.66,26,0,0-9,11.48,20.5,26.64C1341.06,394.61,1360,402,1365,394Z"/><circle class="cls-2" cx="1335.33" cy="396.1" r="20" transform="translate(427.8 1452.69) rotate(-65.86)"/><path class="cls-5" d="M1323,396s.12-16.68,17.06-19.34"/><path class="cls-3" d="M1311.5,419.54s-16.91-15.72,3.12-38.15c0,0,13.38,14.61,30.38,4.17,0,0,8.94,3.17,12,10.63,0,0-4.82,14.19-7,18.81C1350,415,1331,437,1311.5,419.54Z"/><path class="cls-5" d="M1320,370s32.78-6.81,42.89,26.1"/><path class="cls-5" d="M1365.44,345.63a9.14,9.14,0,0,1,8.44-8.52"/><path class="cls-5" d="M1128.5,510.5s-8.49-.44-13.49,13"/><path class="cls-3" d="M869,432s16-3,22,9c0,0,7,14,4,35a37.9,37.9,0,0,1-14-1s-2-13-17-15C864,460,858,445,869,432Z"/><path class="cls-3" d="M797,398s25.4-15.14,34-15,23.85,9.44,34,32c9,20-3,30-3,30s-31.4,21.42-57,16c0,0-10.68-1.85-14-19s2.07-37.89,2.07-37.89A10.12,10.12,0,0,1,797,398Z"/><path class="cls-3" d="M798.17,406s-9.93-26.78-9.89-31.55l.69-.1s11.2,29.21,10.89,30.59A1.39,1.39,0,0,1,798.17,406Z"/><circle class="cls-3" cx="787.24" cy="371.2" r="3.75" transform="translate(-76.8 475.98) rotate(-32.16)"/><path class="cls-9" d="M852,396s-15-1-26,13c0,0-5,7-2,11,0,0,9,18,10,25,0,0,3,4,11,1,0,0,20.44-6.73,23.22-14.37C868.22,431.63,870,413,852,396Z"/><path class="cls-11" d="M832,416.23s10.86,1.09,15.26,3.34c0,0,3.11,2.49,2.18,4.69,0,0-12.9,2.33-14.9-1.37A19.22,19.22,0,0,1,832,416.23Z"/><path class="cls-11" d="M859.5,406.5a40,40,0,0,0-3.11,9.38s.11,3.62,2.11,4.62c0,0,5-4,4.23-7.74A13.39,13.39,0,0,0,859.5,406.5Z"/><path class="cls-2" d="M815,429s6,13,9,18c0,0,4,6-2,9,0,0-21,5-25,1a29.37,29.37,0,0,1-9-30s1-6,21-3C809,424,814,425,815,429Z"/><path class="cls-3" d="M810.85,431.37S816,444,818.53,448.86c0,0,3.47,6.14-1.7,8.28,0,0-17.9,3.68-21.31,0,0,0-11.93-10.12-7.67-27.61,0,0,.85-5.52,17.9-2.76C805.74,426.77,810,427.69,810.85,431.37Z"/><path class="cls-3" d="M861,469c.95-.32,26-8,38,13a9.74,9.74,0,0,1,1,9s-7,28-14,36a35.05,35.05,0,0,1-31-10s-3-24,1-43C856,474,858,470,861,469Z"/><path class="cls-3" d="M841,560s-6-13-17-15c0,0-16,6-20,22,0,0,8,10,29,2C833,569,839,565,841,560Z"/><path class="cls-3" d="M825,548s16-29,27-35c0,0,28-8,29,27,0,0-8,16-42,24C839,564,825,565,825,548Z"/><path class="cls-5" d="M755.5,670.5c-2,0-9,5-7,15,1,4,10,23,37,16,0,0,9-3,8.63-12.75"/><path class="cls-3" d="M777,658s12,3,16,7c0,0-4,11-3,18a13.84,13.84,0,0,1-5,10s-20,9-27-11c0,0,0-8,7-11C765,671,775,665,777,658Z"/></g></svg>