<svg xmlns="http://www.w3.org/2000/svg" viewBox="0 0 1920 1080"><defs><style>.cls-1,.cls-7,.cls-9{fill:none;}.cls-2{fill:#e2e2e2;}.cls-10,.cls-2,.cls-3,.cls-6,.cls-7,.cls-8,.cls-9{stroke:#1b1f32;}.cls-10,.cls-11,.cls-12,.cls-2,.cls-3,.cls-4,.cls-5,.cls-6,.cls-7,.cls-8,.cls-9{stroke-miterlimit:10;}.cls-10,.cls-2,.cls-3,.cls-4,.cls-5,.cls-6,.cls-9{stroke-width:2px;}.cls-3{fill:#595462;}.cls-12,.cls-4{fill:#00adab;stroke:#007774;}.cls-11,.cls-5{fill:#ffcc62;stroke:#ff9d00;}.cls-6,.cls-8{fill:#403c47;}.cls-10{fill:#101218;}</style></defs><title>AI_Loader_18</title><g id="Layer_31" data-name="Layer 31"><rect class="cls-1" width="1920" height="1080"/></g><g id="_14" data-name="14"><circle class="cls-2" cx="1387.68" cy="280.26" r="3.75" transform="translate(965.71 1631.61) rotate(-84.08)"/><path class="cls-2" d="M1393.24,316.28s-2.93-28.41-5.08-32.68l-.67.22s2.86,31.16,3.75,32.25A1.39,1.39,0,0,0,1393.24,316.28Z"/><path class="cls-3" d="M591.32,556.41c1.2.76,64,24.52,64,24.52s-1.17,8.46-5.6,11.52l-62.77-23.77Z"/><path class="cls-3" d="M580.24,552.76l-5.69-16.14s2.71-1.64,5.1-.13l7.08,8.65s2.61,2.49,2.42,10.73Z"/><path class="cls-3" d="M575.73,565.43l-15.07,8.11s.9,3,3.69,3.52l11.06-1.64s3.6-.08,9-6.31Z"/><path class="cls-4" d="M575.84,565c-1,.22-148.84-50-148.84-50l23-3,129,39Z"/><polygon class="cls-3" points="572.15 566.89 578.17 548.1 593.05 555 588.33 570.41 572.15 566.89"/><polygon class="cls-5" points="1324.04 398.18 1227.71 201.15 1226.44 227.29 1313.4 403.9 1324.04 398.18"/><path class="cls-3" d="M1330.13,408.09c-.43-.27,34.36,70.57,34.36,70.57s-2.59,6.19-11.64,5.79L1318,412.61l12.14-4.52"/><path class="cls-3" d="M1307.48,405.29l-11.84,2.79s.4,6,4.52,7.72a94.42,94.42,0,0,1,13.9-1.93S1310.4,404.1,1307.48,405.29Z"/><path class="cls-3" d="M1331.69,392.65s3.39,5.79-1,15.1l-17.56,7.19s-6.32-4.59-6.72-10.58Z"/><path class="cls-6" d="M860,561s3-3,3-6c0,0-2-3-3-3,0,0-7.76,5.78-8.38,10.39Z"/><path class="cls-6" d="M879.5,554.53s-4.09-2.61-7-2a3.7,3.7,0,0,0-1.39,3.33,7.47,7.47,0,0,0,3.52,2.37l4.9-3.66"/><path class="cls-6" d="M882,575l8.53-6.87S896,573,894,578c0,0-4,5-9,5Z"/><path class="cls-6" d="M876,568l7.47-8s6.53,1,7.53,7c0,0-2,6-7,8Z"/><path class="cls-6" d="M869,562s5-9,8-9c0,0,5,2,7,6,0,0-3,6-6,8Z"/><path class="cls-6" d="M867,565c0-1-5-6-7-7,0,0-8,1-9,6,0,0,3,7,7,11Z"/><path class="cls-2" d="M859,574s3-11,9-13c0,0,4-1,9,3,0,0,12,10,9,20a13.94,13.94,0,0,1-9,6Z"/><path class="cls-6" d="M609,580l-9,5.11s3,2.89,9,1.89c0,0,6-1,6-5Z"/><path class="cls-6" d="M602,577l-12.64,1.47S591,583,598,585c0,0,8,1,11-3Z"/><path class="cls-6" d="M596,572l-9-2s-3,5,1,8c0,0,7,3,13,0Z"/><path class="cls-6" d="M599,565l-5-7s1-4,7-2c0,0,6,4,8,8Z"/><path class="cls-2" d="M617,582s-5,3-13,0c0,0-15-7-11-20,0,0,2-3,18,2Z"/><path class="cls-2" d="M688,558c10.46,25.11-16,32-16,32-16,5-63-7-63-7-7.82-11.13-1.67-21-1.67-21,12.7-6.22,47.24-14.48,55.78-14.73C663.1,547.31,683,546,688,558Z"/><circle class="cls-6" cx="680.14" cy="565.64" r="13.5" transform="translate(-140.96 236.51) rotate(-17.91)"/><path class="cls-7" d="M677.48,561.41a9.14,9.14,0,0,0-10.8,5.23"/><path class="cls-2" d="M718,545c-.84-.07-23-1-34.89,6.85-2.42,1.6-4,4.37-5.73,7.14,0,0-3.62,10.58.55,19.1,0,0,6.7,7.35,40.07,7.91,0,0,8.27-1,15-11C733,575,743,547,718,545Z"/><path class="cls-6" d="M751.42,575.49s-19.26,8.3-28.94-4.36c0,0-6.83-14,3.27-21.45C725.75,549.68,740.43,553.76,751.42,575.49Z"/><path class="cls-2" d="M755,538s-16.61-4.76-32.8,2.46c0,0-8.2,3.54-4.2,16.54,0,0,7-5,14,3,0,0,8,11,24,6Z"/><path class="cls-2" d="M879,580.53s-1.45,35.84-9.07,42.09c0,0-15.82,14.06-32.55,1.22,0,0-12.48-12.27-7.32-26.45,0,0,13.66-13,21.28-19.27C851.36,578.11,873.21,557.27,879,580.53Z"/><path class="cls-7" d="M872.5,619.5s5-13-3-24c0,0-6.34-10.08-22.69-6.88"/><path class="cls-6" d="M837.32,616.31s14.6,12.8,23.48,5.17c0,0,7-6.37,3.37-14.16a18.33,18.33,0,0,0-11.6-10Z"/><path class="cls-8" d="M846.62,613.66s8.79,7.95,16.29,5"/><path class="cls-2" d="M671,723s-19-2-26,5l-10,43.28,55.31,1.26s8.21-7.79-1.74-10L664,757s1-6,1-7c2.1-3.22,7.53-6.08,9-10Z"/><path class="cls-6" d="M673,732s-5,11-12,13c0,0,1.33,4.51,4.17,4.75S675,742,675,740Z"/><path class="cls-2" d="M664,757s-23-3-28,14"/><path class="cls-6" d="M794.92,730s5.67,14.59-5,21.63c0,0-19.29,2.21-22.53-6.12,0,0,.49-16,4.66-17.64S794.92,730,794.92,730Z"/><path class="cls-2" d="M722.89,653.72c19.17-20.72,41.73-12.15,41.73-12.15,30.23,25.52,36.25,91.13,36.25,91.13C787.33,747,762,735.16,762,735.16s-27.51-43.91-42.23-61.83C719.8,673.33,715.14,662.09,722.89,653.72Z"/><path class="cls-2" d="M782.32,758.44s-14.6-23.44-15.28-31a20,20,0,0,0-16.18-9.55s-5.5,3.22-77,3c0,0-10.42,13.06-5,28.52C668.93,749.41,751.1,773.5,782.32,758.44Z"/><path class="cls-2" d="M808.46,756.81s-18.59,11.64-36.5,9c0,0-7-.82-5.89-12.93a6.3,6.3,0,0,1,5.66-5.75,28.34,28.34,0,0,1,11.86,2.1s6.51,2.76,20.87-.69c0,0,5.6-1.62,5.09.31A27.67,27.67,0,0,1,808.46,756.81Z"/><path class="cls-2" d="M793.18,774.41,838.92,776s7.66-9-2.27-11.33l-28.77-7a43.59,43.59,0,0,0-11.36-18.41s-6.61-8.24-7.61-9.24-21,15-24.75,24Z"/><path class="cls-6" d="M789.92,736s7.71,5.2,10,18c0,0,.88,5.11,5,5l3-1s-4.91-20-12.5-22.71Z"/><path class="cls-9" d="M808.92,758s-11,3-16,16"/><path class="cls-2" d="M1365,436s-16-2-19-1c0,0,8,13,10,13Z"/><path class="cls-6" d="M1330.75,437.88l-8.41-1.44S1323,441,1326,443a6.93,6.93,0,0,0,5,0Z"/><path class="cls-6" d="M1329,431l-10.05-3.94A11.21,11.21,0,0,0,1323,437s5,3,7,2Z"/><path class="cls-6" d="M1332,424s0-9,2-11c0,0,5,0,7,4,0,0,2.09,10.94,1,15Z"/><path class="cls-6" d="M1327,422l-9-5s-3,3,0,9a14.54,14.54,0,0,0,8,5Z"/><path class="cls-2" d="M1346,436s-3-12-20-17c0,0-7-1-5,5,0,0,6,19,9,21Z"/><path class="cls-2" d="M1503.5,741.66s4.63,14.82,4.27,29.85l-66.94,2.83s-8.33-7.65,1.58-10.08l28.72-7.22a43.59,43.59,0,0,1,11.23-18.49Z"/><path class="cls-6" d="M1496.34,738s-8.87,3.38-13.35,15.58c0,0-1.83,4.08-5.87,3.25L1472,755s8.19-19.36,16.14-20.7Z"/><path class="cls-9" d="M1470.36,757.24s8.51-.52,16.31,15.16"/><path class="cls-6" d="M1445.23,630.33s11.87,9.65,1.08,32.23c0,0-23.09-7.66-24.71-15.3s6.31-22.67,6.31-22.67Z"/><path class="cls-7" d="M1443,634s8.55,11.48.41,19.34"/><path class="cls-2" d="M716.8,644.47s-1.59,14.47-.55,26.47c0,0,5,17.41,41.5,17.26S798.93,668,798.93,668s1.11-11.35-5.53-26.45c0,0-1.83-4.76-12.84-3.9L725.17,640S717.11,640.36,716.8,644.47Z"/><path class="cls-6" d="M723,624s-2.1,9.19,0,18c0,0,34,9.78,64,0,0,0-.69-12.15-2.18-16Z"/><path class="cls-6" d="M727.5,598.5s-11.44,15.81-8,32c0,0,32.12,14.49,66,10,0,0,10.39-17.49,7.78-27.35Z"/><path class="cls-2" d="M1328.87,701.12s9.7,12.12,14.81,26.26l-61.34,27s-10.54-4.11-2.19-10l24.14-17.16a43.59,43.59,0,0,1,3.75-21.31Z"/><path class="cls-6" d="M1320.86,700.27s-7,6.37-6.78,19.36c0,0-.22,4.47-4.29,5.16l-5.38.18s.6-21,7.52-25.15Z"/><path class="cls-9" d="M1303.65,727.67s7.74-3.58,20.7,8.21"/><path class="cls-2" d="M1419.3,534.93c-28.22-.59-37.72,21.59-37.72,21.59C1379,596,1422,645.89,1422,645.89c19.7.19,32-13.47,32-13.47s-15.78-63.05-18.46-86.09C1435.56,546.33,1430.7,535.17,1419.3,534.93Z"/><path class="cls-2" d="M1418,655s24.64-4.25,31.62-7.28c0,0,9.09-3.8,15,5.93,0,0,8,23.63,42.32,86.31,0,0-14.8,3.41-31,6C1476,746,1419.73,689.65,1418,655Z"/><path class="cls-2" d="M1404.73,628s-1.33,21.89,9.57,36.35c0,0,4.08,5.78,14.18-1a6.3,6.3,0,0,0,2.34-7.71,28.34,28.34,0,0,0-7.51-9.41s-5.53-4.4-9.37-18.66c0,0-1.25-5.69-2.71-4.32A27.67,27.67,0,0,0,1404.73,628Z"/><path class="cls-2" d="M1435,518.47s1.59,14.47.55,26.47c0,0-5,17.41-41.5,17.26S1352.89,542,1352.89,542s-1.11-11.35,5.53-26.45c0,0,1.83-4.76,12.84-3.9l55.39,2.36S1434.7,514.36,1435,518.47Z"/><path class="cls-6" d="M1434,497a153,153,0,0,1-3,18s-38,9.78-68,0c0,0,2.51-11.15,4-15Z"/><path class="cls-6" d="M1446,471s-3,17-10,32c0,0-40,10-72-2,0,0-3.3-18.47,1.46-27.48Z"/><path class="cls-2" d="M1430.9,484.19s16.69-8.39,19.09-22.11c0,0,11.24-44.7.78-68.44,0,0-11.12-20.23-53.52-7.8-1,.28-21.58,4.25-26.71,14.44a105.75,105.75,0,0,0-7.62,24.67s-6.22,39.6-5.37,59.43c0,0,.74,14.12,20,13.39C1377.51,497.77,1418.66,491.62,1430.9,484.19Z"/><path class="cls-5" d="M1365.09,417.77s5.5-5.9,9.94-1.77c0,0,6.32,4.43,1.35,18.4,0,0-6.38,15.76-16.23,12.71C1360.14,447.11,1363,424.69,1365.09,417.77Z"/><path class="cls-6" d="M1303,587s-16,5-11.8,19.72l27,10.1s13.52-16.46,8.21-26.55Z"/><path class="cls-6" d="M1371.54,527.93s9.32-5.93,19.23-1.71c11.53,4.9,21.15,26.12,15.45,32.41Z"/><path class="cls-2" d="M1300.73,584.12s30.46-39.76,66.17-56.8c0,0,21.13-8.36,34.26,16.63a53.79,53.79,0,0,1,3,30.07l-.13.62c-3.65,16.36-33.46,19.86-33.46,19.86s-18.93,1.58-45.67,17.87A98,98,0,0,1,1300.73,584.12Z"/><path class="cls-7" d="M1304.5,590.5s-13,6-9.6,16.79"/><path class="cls-6" d="M846.71,682.18s-1.12,13.29,9.5,16.82l23.73-16.4s4.06-19.6-17.1-21.9Z"/><path class="cls-2" d="M755.48,675.71c-2.14-28.15,23.1-32.44,23.1-32.44,39.31-4.4,83.7,13.43,83.7,13.43a98,98,0,0,1-5.61,36.77c-31.3.3-47.55,4.91-47.55,4.91s-36.2,7.67-49.75-5.07C759.38,693.31,756.64,691,755.48,675.71Z"/><path class="cls-2" d="M880.62,689.69S859,677.07,853.55,671.78c0,0-7.18-6.74-16.15.29,0,0-9.33,10.78-59.13,62.21,0,0,11,9.28,30.19,12.91C808.46,747.18,866.88,721.5,880.62,689.69Z"/><path class="cls-2" d="M900.12,670.13s-6.28,24.48-21,35.06c0,0-5.61,4.31-13.24-5.16a6.3,6.3,0,0,1,0-8.06,28.34,28.34,0,0,1,10-6.77s6.59-2.57,14.47-15.05c0,0,2.09-3.09,3.86-3.33C894.24,666.82,897.67,665.77,900.12,670.13Z"/><path class="cls-7" d="M861.63,664.49s18.06-2.16,14.55,19.74"/><path class="cls-2" d="M1282.24,605s24.87,2.56,32.41,1.52c0,0,9.77-1.21,12.87,9.77,0,0-1.36,21.81,8.48,92.72,0,0-13.12,10.56-30.79,2.13C1305.21,711.13,1274.54,638.78,1282.24,605Z"/><path class="cls-2" d="M1272.58,582.22s-5.16,24.74,3.35,40.72c0,0,3.13,6.34,14.16,1.21a6.3,6.3,0,0,0,3.52-7.25,28.34,28.34,0,0,0-6-10.47s-4.78-5.21-6.34-19.89c0,0-.51-3.69-2-4.69C1279.32,581.85,1276.71,579.4,1272.58,582.22Z"/><path class="cls-9" d="M1430.9,484.19s16.69-8.39,19.09-22.11c0,0,11.24-44.7.78-68.44,0,0-11.12-20.23-53.52-7.8-1,.28-21.58,4.25-26.71,14.44a105.75,105.75,0,0,0-7.62,24.67s-6.22,39.6-5.37,59.43c0,0,.74,14.12,20,13.39C1377.51,497.77,1418.66,491.62,1430.9,484.19Z"/><path class="cls-6" d="M1388.83,385l.17,7s19,0,28-6"/><path class="cls-2" d="M1410.7,307.4s-25.07-.59-32.55,3.66-19.7,25.1-16.2,49.59,23.38,26.55,23.38,26.55,34.61,5.6,54.47-11.44c0,0,9-9.12,3.68-25.76s-27-40-27-40A8.76,8.76,0,0,0,1410.7,307.4Z"/><path class="cls-10" d="M1367.09,325.49s7.07-.27,10.94,1.14,8.75,2.92,8.13,8.89c0,0-3.37,22.77.57,33.24,0,0,4.15,8.47-3.81,7.65,0,0-12.36-.39-17.36-3.87C1365.56,372.53,1355.25,352.42,1367.09,325.49Z"/><path class="cls-11" d="M1378.27,343.74s-8.27,2.16-11.56,4.83c0,0-2.3,2.78-1.51,4.87,0,0,9.95,1,11.35-2.84A24.42,24.42,0,0,0,1378.27,343.74Z"/><path class="cls-6" d="M1394.87,348.48s-2.44,13.82-.28,22.09c0,0,3.26,7.38,13.31,7.41,0,0,18,.86,28.09-9.15a7.2,7.2,0,0,0,.72-7s-4.63-13.55-9.19-18c0,0-2.67-3.29-8.75-2.92,0,0-14.13.54-19.41,3C1399.37,343.92,1395.18,345.5,1394.87,348.48Z"/><path class="cls-2" d="M1398.64,350.89s-.33,16.62,1.5,24.28c0,0,.79,2.09,11.83,2.23,0,0,14,.45,24-8.57,0,0,2-1.73.7-5.61,0,0-4-12.56-7.9-16.7,0,0-1.93-3.7-7.22-3.31,0,0-12.14.75-17.43,3.22C1404.13,346.43,1398.93,348.11,1398.64,350.89Z"/><path class="cls-2" d="M1327.82,441.53s1.45,35.84,9.07,42.09c0,0,15.82,14.06,32.55,1.22,0,0,12.48-12.27,7.32-26.45,0,0-13.66-13-21.28-19.27C1355.48,439.11,1333.63,418.27,1327.82,441.53Z"/><path class="cls-7" d="M1336.6,482.83s-8.17-9.73-3.11-20.33A21.61,21.61,0,0,1,1356,450.45"/><path class="cls-6" d="M1369.52,477.31s-14.6,12.8-23.48,5.17c0,0-7-6.37-3.37-14.16a18.33,18.33,0,0,1,11.6-10Z"/><circle class="cls-6" cx="1401.92" cy="427.06" r="20" transform="translate(301.67 1395.15) rotate(-58.29)"/><path class="cls-2" d="M1375.94,425s-15.57,17.49-25.76,35.87c0,0,6.69,13.07,17.1,19,0,0,25.11-1.78,48-25.57,0,0,10.43-10.16-16.71-29.17C1398.54,425.15,1384.11,415.26,1375.94,425Z"/><path class="cls-2" d="M1414,389.18s-25.17-1.91-33.56,28c0,0,6.37,11.33,17.65,13a65.79,65.79,0,0,1,25.93-.81s14.33-9.2,10.08-22.88C1434.14,406.56,1428.53,392.5,1414,389.18Z"/><path class="cls-8" d="M1360.22,474.66s-8.79,7.95-16.29,5"/><path class="cls-2" d="M822.3,555.12S810.09,546.1,770,534c0,0-17-2-28,11,0,0-28.09,39.68-26,64,0,0,1,7,4,7,8.06,0,13-9,43,16,0,0,14,14,31.47,2.62,0,0,33.47-21.11,33.53-64.62C828,570,827,559,822.3,555.12Z"/><path class="cls-6" d="M812,550l-8,11s-11,0-21-12Z"/><path class="cls-2" d="M801.71,474s25,2,32,7,17,27,11,51-26,24-26,24-35,2-53-17c0,0-8-10-1-26s31-37,31-37A8.76,8.76,0,0,1,801.71,474Z"/><path class="cls-10" d="M843.21,496.5s-7-1-11,0-9,2-9,8c0,0,1,23-4,33,0,0-5,8,3,8,0,0,12.34.89,17.67-2.06C839.88,543.44,852.21,524.5,843.21,496.5Z"/><path class="cls-12" d="M830.21,513.5s8,3,11,6c0,0,2,3,1,5,0,0-10,0-11-4A24.42,24.42,0,0,1,830.21,513.5Z"/><path class="cls-6" d="M813.21,516.5s1,14-2,22c0,0-4,7-14,6,0,0-18-1-27-12a7.2,7.2,0,0,1,0-7s6-13,11-17c0,0,3-3,9-2,0,0,14,2,19,5C809.21,511.5,813.21,513.5,813.21,516.5Z"/><path class="cls-2" d="M809.21,518.5s-1.39,16.56-4,24c0,0-1,2-12,1,0,0-14-1-23-11,0,0-1.86-1.93-.11-5.65,0,0,5.23-12.08,9.59-15.8,0,0,2.3-3.48,7.53-2.55,0,0,12,2,17,5C804.21,513.5,809.21,515.71,809.21,518.5Z"/><circle class="cls-6" cx="799.9" cy="586.05" r="20" transform="translate(-137.69 908.87) rotate(-55.23)"/><path class="cls-2" d="M822.82,572.32a224.18,224.18,0,0,1,31.91,24.32s-2.29,14.5-10.32,23.42c0,0-17.92,9.42-47-6.07,0,0-13.08-6.41,6.8-32.92C804.16,581.07,815.47,567,822.82,572.32Z"/><path class="cls-2" d="M766.73,565.45s-11.47,20,14.31,35.5c0,0,11.77-23.79,29.28-17.84,0,0,7.6-5.68,8.3-13.71a79.27,79.27,0,0,0-15.11-9.27S777.72,546.54,766.73,565.45Z"/><path class="cls-7" d="M674.5,588.5s-18-2-20-18c0,0-3-21,13-23"/><path class="cls-2" d="M807.21,488.5s5.84-28,8.42-32l.64.28s-6.06,30.69-7.06,31.69A1.39,1.39,0,0,1,807.21,488.5Z"/><circle class="cls-2" cx="816.46" cy="453.25" r="3.75"/></g></svg>