<svg xmlns="http://www.w3.org/2000/svg" viewBox="0 0 1920 1080"><defs><style>.cls-1,.cls-6,.cls-7{fill:none;}.cls-2{fill:#e2e2e2;}.cls-11,.cls-2,.cls-4,.cls-5,.cls-6,.cls-7,.cls-9{stroke:#1b1f32;}.cls-10,.cls-11,.cls-12,.cls-2,.cls-3,.cls-4,.cls-5,.cls-6,.cls-7,.cls-8,.cls-9{stroke-miterlimit:10;}.cls-2,.cls-3,.cls-4,.cls-5,.cls-7,.cls-8,.cls-9{stroke-width:2px;}.cls-10,.cls-3{fill:#ffcc62;stroke:#ff9d00;}.cls-4{fill:#595462;}.cls-11,.cls-5{fill:#403c47;}.cls-12,.cls-8{fill:#00adab;stroke:#007774;}.cls-9{fill:#101218;}</style></defs><title>AI_Loader_15</title><g id="Layer_31" data-name="Layer 31"><rect class="cls-1" width="1920" height="1080"/></g><g id="_13" data-name="13"><path class="cls-2" d="M1279,309.28s-2.93-28.41-5.08-32.68l-.67.22s2.86,31.16,3.75,32.25A1.39,1.39,0,0,0,1279,309.28Z"/><circle class="cls-2" cx="1273.48" cy="273.26" r="3.75" transform="translate(870.26 1511.75) rotate(-84.08)"/><polygon class="cls-3" points="1238.44 364.84 1171.82 155.9 1166.77 181.57 1227.08 368.95 1238.44 364.84"/><path class="cls-4" d="M1243,375.54c-.39-.33,23.72,74.82,23.72,74.82s-3.47,5.74-12.36,4l-24-76.15,12.67-2.71"/><path class="cls-4" d="M1221,369.47l-12.12,1s-.48,6,3.35,8.29a94.42,94.42,0,0,1,14,.11S1224.09,368.72,1221,369.47Z"/><path class="cls-4" d="M1246.82,360.49s2.51,6.22-3.18,14.79l-18.42,4.55s-5.58-5.46-5.11-11.44Z"/><path class="cls-2" d="M744.8,723s-19-2-26,5l-10,43.28,55.31,1.26s8.21-7.79-1.74-10L737.8,757s1-6,1-7c2.1-3.22,7.53-6.08,9-10Z"/><path class="cls-5" d="M746.8,732s-5,11-12,13c0,0,1.33,4.51,4.17,4.75S748.8,742,748.8,740Z"/><path class="cls-2" d="M737.8,757s-23-3-28,14"/><path class="cls-5" d="M865.8,719s7,14-3,22c0,0-19,4-23-4,0,0-1-16,3-18S865.8,719,865.8,719Z"/><path class="cls-6" d="M860.8,721s4,13-3,19"/><path class="cls-2" d="M771.54,666.48c11.49-25.79,35.61-24.93,35.61-24.93C844,656,870.78,716.18,870.78,716.18c-8.21,17.9-36,14.82-36,14.82s-40.17-32.73-59.87-45C774.92,686,766.9,676.89,771.54,666.48Z"/><path class="cls-2" d="M855.9,748.47s-16.72-22-18.1-29.47a20,20,0,0,0-17-8s-5.18,3.71-76.36,10.17c0,0-9.16,14-2.28,28.86C742.16,750,826.22,766.36,855.9,748.47Z"/><path class="cls-2" d="M881.78,744.42s-17.43,13.32-35.51,12.33c0,0-7.07-.16-7.07-12.33a6.3,6.3,0,0,1,5.1-6.25,28.34,28.34,0,0,1,12,1s6.74,2.14,20.71-2.63c0,0,5.43-2.14,5.1-.16A27.67,27.67,0,0,1,881.78,744.42Z"/><path class="cls-2" d="M732.6,644.47S731,658.94,732,670.94c0,0,5,17.41,41.5,17.26S814.73,668,814.73,668s1.11-11.35-5.53-26.45c0,0-1.83-4.76-12.84-3.9L741,640S732.91,640.36,732.6,644.47Z"/><path class="cls-5" d="M733.62,623s2.07,10.19,4.18,19c0,0,35,9.78,65,0,0,0-.69-12.15-2.18-16Z"/><path class="cls-5" d="M731.25,596.69s-2.9,16.12.55,32.31c0,0,38.64,15.74,72.52,11.26,0,0,7.37-17.25,4.77-27.11Z"/><path class="cls-5" d="M854.8,549a17.47,17.47,0,0,1,12,12l-25,5-4-14Z"/><path class="cls-2" d="M842.8,571s3-17,22-17c0,0,16,2,27,21,0,0,6,12-2,21,0,0-6,8-19,5Z"/><path class="cls-2" d="M845.8,542s12-3,25,10c0,0-1,4-5,4,0,0-6-5-19,1C846.8,557,835.8,549,845.8,542Z"/><path class="cls-2" d="M777.8,530s52,3,64,18c0,0,10.27,10.27,7.36,20q-.15.51-.36,1c-4,10-17,40-30,52,0,0-28,24-59-2,0,0-18-15-21-25,0,0,1-37,22-57C760.8,537,768.8,530,777.8,530Z"/><path class="cls-5" d="M764.8,550s5,16-11,20l-20-12s-6-7,6-12,26,4,26,4"/><path class="cls-2" d="M728.8,552c.88-.48,20-5,31,22,0,0-15,28-43,39,0,0-16,5-25-1,0,0-11-9-5-21C686.8,591,708.8,563,728.8,552Z"/><path class="cls-2" d="M725.8,629s-26-5-34-19c0,0-4-17,9-24,0,0,17-8,31,5,0,0,11,13,11,23Z"/><path class="cls-2" d="M753.8,624s5,3,2,5a40.49,40.49,0,0,1-30,1s-7.67-4.33,3.17-10.17Z"/><path class="cls-5" d="M862.8,578s11-8,21,0c0,0,5,5,4,11,0,0-2,9-14,10Z"/><path class="cls-6" d="M869.8,591s12.92,3.1,16-8.45"/><path class="cls-5" d="M827.8,550l-8,11s-11,0-21-12Z"/><path class="cls-2" d="M1114.47,697s9.26,12.46,13.88,26.77l-62.26,24.76s-10.39-4.48-1.84-10L1089,722.22a43.59,43.59,0,0,1,4.5-21.16Z"/><path class="cls-5" d="M1106.49,695.88S1099.23,702,1099,715c0,0-.38,4.46-4.47,5h-5.39s1.34-21,8.4-24.87Z"/><path class="cls-7" d="M1088.32,722.65s7.86-3.3,20.4,8.93"/><path class="cls-5" d="M1163.47,586.14s-14.61-4.54-27.44,16.94c0,0,19.16,15,26.43,12.11s15.39-17.81,15.39-17.81Z"/><path class="cls-2" d="M1258.76,556.18c-5.87-27.61-29.64-31.79-29.64-31.79-39,6.47-77.76,59.76-77.76,59.76,4.31,19.22,20.43,28.1,20.43,28.1s57.78-29.78,79.6-37.65C1251.39,574.61,1261.14,567.33,1258.76,556.18Z"/><path class="cls-2" d="M1138.21,594.57s17.17,18.17,23.56,22.31c0,0,8.19,5.47,3.37,15.8,0,0-11.16,12-44.35,75.32,0,0-16.42,3.12-27.54-8.94C1093.26,699.06,1110.33,615.15,1138.21,594.57Z"/><path class="cls-2" d="M1153.39,568.52s-19,11-25,28.09c0,0-2.55,6.59,8.69,11.25a6.3,6.3,0,0,0,7.72-2.32,28.34,28.34,0,0,0,3.68-11.47s.6-7,10.36-18.13c0,0,4.05-4.19,2.1-4.65A27.67,27.67,0,0,0,1153.39,568.52Z"/><path class="cls-2" d="M1303.82,515.47s1.59,14.47.55,26.47c0,0-5,17.41-41.5,17.26S1221.69,539,1221.69,539s-1.11-11.35,5.53-26.45c0,0,1.83-4.76,12.84-3.9l55.39,2.36S1303.51,511.36,1303.82,515.47Z"/><path class="cls-5" d="M1302.8,494a153,153,0,0,1-3,18s-38,9.78-68,0c0,0,2.51-11.15,4-15Z"/><path class="cls-5" d="M1313.8,472a115.19,115.19,0,0,1-9,28s-40,10-72-2c0,0-3.3-18.47,1.46-27.48Z"/><path class="cls-2" d="M1339.8,397s9,11,13,25c0,0-1,20-22,17,0,0-15-9-17-12C1313.8,427,1318.8,399,1339.8,397Z"/><path class="cls-2" d="M1305.8,374s21-6,31,7c0,0,9,14,11,21,0,0-2.95,3.86-9,2.43,0,0-10-13.43-18-15.43C1320.8,389,1305.8,382,1305.8,374Z"/><path class="cls-4" d="M725.61,621.84c1.4-.2,68.39,4,68.39,4s2.42-8.19-.37-12.8l-67-4.18Z"/><path class="cls-4" d="M714,620.61,702.18,633s1.79,2.6,4.59,2.21l10-5s3.4-1.19,6.62-8.78Z"/><path class="cls-4" d="M715.11,607.2l-10.4-13.6s2.07-2.39,4.81-1.69l9.41,6s3.25,1.56,5.62,9.46Z"/><path class="cls-8" d="M715,607.61c-.8-.6-222.34-22.39-222.34-22.39l19.16,14.45L713.21,620Z"/><polygon class="cls-4" points="712.45 604.41 710.2 624 726.6 623.84 728.64 607.85 712.45 604.41"/><path class="cls-2" d="M1220.63,399.45s-3.34-7.34,9.83-10.74c0,0,12.18,16,11.79,26.8,0,0-11.27,4.58-15.46-2.23Z"/><path class="cls-5" d="M1250.7,404.43s5,6.29,1.83,10.61c0,0-6.81,4.19-13.36,1.18,0,0-4-4.59-2.16-9.24Z"/><path class="cls-5" d="M1249.92,395.52s5,6.29,1.83,10.61c0,0-9,4.39-14.74.85l-1.11-7.53Z"/><path class="cls-5" d="M1246.38,386a9.78,9.78,0,0,1,4.06,10.42s-9.89,4.91-12.64,4.26c0,0-5.87-8.18-4.37-10.25h0Z"/><path class="cls-5" d="M1233.67,399.64s-5.31.92-8.12-5.57c0,0,.26-7.21,9.17-8,0,0,5.31-.92,3.67,6Z"/><path class="cls-5" d="M1229.52,393.45s4.09-5.32,10.33-3.91c0,0,3.47,9.43,2.52,14.34,0,0-6.3,3.06-8.07,1.7C1234.31,405.58,1229,397,1229.52,393.45Z"/><path class="cls-2" d="M1213.8,396s-27,14-29,22c0,0-5,17,11,25,0,0,14,5,23-4,0,0,5-15,7-23C1225.8,416,1233.8,392,1213.8,396Z"/><path class="cls-6" d="M1185.3,417.5s5-10,15-10c0,0,16-1,17,13"/><path class="cls-5" d="M1214.8,440s-19,4-23-7c0,0-3-9,4-14a18.33,18.33,0,0,1,15-3Z"/><path class="cls-2" d="M1300.8,479s18-5,23-18c0,0,19.68-41.69,14-67,0,0-7-22-51-18-1,.09-22,0-29,9a105.75,105.75,0,0,0-12.24,22.73S1231.8,445.38,1228.8,465c0,0-2,14,17,17C1245.8,482,1287.35,483.93,1300.8,479Z"/><path class="cls-5" d="M1273.63,377l.17,7s19,0,28-6"/><path class="cls-8" d="M1249.07,401.11s6.53-4.72,10.09.19c0,0,5.34,5.56-2.24,18.31,0,0-9.31,14.22-18.38,9.33C1238.55,428.94,1245.73,407.5,1249.07,401.11Z"/><path class="cls-5" d="M1264.06,621.09s11,7.57,7,18L1243.3,647s-12.18-17.48-6.08-27.11Z"/><path class="cls-2" d="M1297.3,741.66s4.63,14.82,4.27,29.85l-66.94,2.83s-8.33-7.65,1.58-10.08l28.72-7.22a43.59,43.59,0,0,1,11.23-18.49Z"/><path class="cls-5" d="M1290.14,738s-8.87,3.38-13.35,15.58c0,0-1.83,4.08-5.87,3.25l-5.08-1.79s8.19-19.36,16.14-20.7Z"/><path class="cls-7" d="M1264.16,757.24s8.51-.52,16.31,15.16"/><path class="cls-5" d="M1235.21,543.14s1.14-11,10.59-16.14c11-6,33.61-.37,35,8Z"/><path class="cls-2" d="M1238.88,639.71s25,.73,32.44-.85c0,0,9.66-1.92,13.55,8.8,0,0,.93,28.35,15.93,98.35,0,0-13,5-31.24-2.12C1269.56,743.88,1233.68,674,1238.88,639.71Z"/><path class="cls-2" d="M1236.55,632s-12.27-48.56-3.46-87.13c0,0,6.56-21.75,34.3-16.53a53.79,53.79,0,0,1,25.46,16.29l.41.49c10.56,13-5.2,38.56-5.2,38.56s-10.51,15.83-14.34,46.9A98,98,0,0,1,1236.55,632Z"/><path class="cls-2" d="M1227.59,617.71s-3.34,25.05,6.32,40.37c0,0,3.58,6.1,14.21.17a6.3,6.3,0,0,0,3-7.49,28.34,28.34,0,0,0-6.7-10s-5.15-4.85-7.78-19.38c0,0-.78-3.64-2.34-4.53C1234.28,616.85,1231.5,614.59,1227.59,617.71Z"/><path class="cls-2" d="M1298.5,300.4s-25.07-.59-32.55,3.66-19.7,25.1-16.2,49.59,23.38,26.55,23.38,26.55,34.61,5.6,54.47-11.44c0,0,9-9.12,3.68-25.76s-27-40-27-40A8.76,8.76,0,0,0,1298.5,300.4Z"/><path class="cls-9" d="M1254.9,318.49s7.07-.27,10.94,1.14,8.75,2.92,8.13,8.89c0,0-3.37,22.77.57,33.24,0,0,4.15,8.47-3.81,7.65,0,0-12.36-.39-17.36-3.87C1253.37,365.53,1243.05,345.42,1254.9,318.49Z"/><path class="cls-10" d="M1266.07,336.74s-8.27,2.16-11.56,4.83c0,0-2.3,2.78-1.51,4.87,0,0,9.95,1,11.35-2.84A24.42,24.42,0,0,0,1266.07,336.74Z"/><path class="cls-5" d="M1282.67,341.48s-2.44,13.82-.28,22.09c0,0,3.26,7.38,13.31,7.41,0,0,18,.86,28.09-9.15a7.2,7.2,0,0,0,.72-7s-4.63-13.55-9.19-18c0,0-2.67-3.29-8.75-2.92,0,0-14.13.54-19.41,3C1287.17,336.92,1283,338.5,1282.67,341.48Z"/><path class="cls-2" d="M1286.44,343.89s-.33,16.62,1.5,24.28c0,0,.79,2.09,11.83,2.23,0,0,14,.45,24-8.57,0,0,2-1.73.7-5.61,0,0-4-12.56-7.9-16.7,0,0-1.93-3.7-7.22-3.31,0,0-12.14.75-17.43,3.22C1291.93,339.43,1286.73,341.11,1286.44,343.89Z"/><circle class="cls-5" cx="1267.66" cy="412.08" r="20" transform="translate(-41.11 664.86) rotate(-28.94)"/><path class="cls-2" d="M1245.94,397.51s-22.11,7.69-40,18.79c0,0-.52,14.67,5.66,25,0,0,22.8,10.67,54.34,1,0,0,14.06-3.79-.39-33.61C1265.59,408.67,1257.8,393,1245.94,397.51Z"/><path class="cls-2" d="M1296.8,385s-21-14-43,8c0,0,0,13,9,20a65.79,65.79,0,0,1,23,12s17-1,20-15C1305.8,410,1307.8,395,1296.8,385Z"/><path class="cls-11" d="M1208,433.14s-11.55,2.62-16.65-3.63"/><path class="cls-6" d="M1266.47,632s2.33,2.82.83,7.43"/><path class="cls-2" d="M814.51,473s25,2,32,7,17,27,11,51-26,24-26,24-35,2-53-17c0,0-8-10-1-26s31-37,31-37A8.76,8.76,0,0,1,814.51,473Z"/><path class="cls-9" d="M856,493.5s-7-1-11,0-9,2-9,8c0,0,1,23-4,33,0,0-5,8,3,8,0,0,12.34.89,17.67-2.06C852.68,540.44,865,521.5,856,493.5Z"/><path class="cls-12" d="M843,512.5s8,3,11,6c0,0,2,3,1,5,0,0-10,0-11-4A24.42,24.42,0,0,1,843,512.5Z"/><path class="cls-5" d="M826,515.5s1,14-2,22c0,0-4,7-14,6,0,0-18-1-27-12a7.2,7.2,0,0,1,0-7s6-13,11-17c0,0,3-3,9-2,0,0,14,2,19,5C822,510.5,826,512.5,826,515.5Z"/><path class="cls-2" d="M822,517.5s-1.39,16.56-4,24c0,0-1,2-12,1,0,0-14-1-23-11,0,0-1.86-1.93-.11-5.65,0,0,5.23-12.08,9.59-15.8,0,0,2.3-3.48,7.53-2.55,0,0,12,2,17,5C817,512.5,822,514.71,822,517.5Z"/><ellipse class="cls-8" cx="807.02" cy="593.32" rx="17.5" ry="16.2" transform="translate(14.79 1206.26) rotate(-74.05)"/><path class="cls-2" d="M797.8,602s33-31,57-30c0,0,25,1,20,32,0,0-31,22-70,16C804.8,620,796.8,615,797.8,602Z"/><path class="cls-2" d="M768.8,608s-2-12,30-8c0,0,15,4,15,13,0,0-1,10-15,9C798.8,622,776.8,621,768.8,608Z"/><path class="cls-5" d="M731.8,607s-4-4-1-10c0,0,10-2,15,2,0,0,1,6-1,8Z"/><path class="cls-5" d="M774.8,606a18.58,18.58,0,0,0-8,0s-5.15,3.44-6.7,6.33a4.34,4.34,0,0,0-.3.67c-1,3,0,9,4,13,0,0,5,2,8,0,0,0-4-8-2-12A61.31,61.31,0,0,1,774.8,606Z"/><path class="cls-5" d="M785.8,607s-4.2-3.56-12.6-1.28c0,0-5.4,6.28-6.4,9.28,0,0-1,7,4,11.49,0,0,3,2.51,8-.49,0,0-2-7,1-12A23,23,0,0,1,785.8,607Z"/><path class="cls-5" d="M794.8,612s-5-7-12-5c0,0-5,5-6,9,0,0-1,6,2,11,0,0,3,2,9,0,0,0-1-7,1-11A59.23,59.23,0,0,1,794.8,612Z"/><path class="cls-5" d="M762.8,632s-2.9-3.84-1-8l18,3s2,4,0,7C779.8,634,766.8,634,762.8,632Z"/><path class="cls-5" d="M744.8,625s4,4,11,1c0,0,3-11,2-19,0,0-8.63-3-11.31-1Z"/><path class="cls-5" d="M734.8,624s4,5,12,2l2-20a14.2,14.2,0,0,0-11-1Z"/><path class="cls-5" d="M730.8,604s-4,6-3,19c0,0,4,3,8,2,0,0,2-13,2-20A9.36,9.36,0,0,0,730.8,604Z"/><path class="cls-2" d="M767.8,536s-19-11-43,15c0,0,2,6,7,7,0,0,15-9,23,1,0,0,14,3,20-5C774.8,554,779.8,542,767.8,536Z"/><path class="cls-5" d="M825.14,674.37s.5,13.33,11.46,15.54l21.57-19.16s1.63-23.75-19.63-19.67Z"/><path class="cls-2" d="M774.92,743.87s-4.39,14.89-3.79,29.91l67,1.76s8.21-7.79-1.74-10l-28.83-6.76A43.59,43.59,0,0,0,796,740.42Z"/><path class="cls-5" d="M782,740.05s8.92,3.24,13.6,15.36c0,0,1.89,4.05,5.92,3.16l5.05-1.87s-8.5-19.23-16.47-20.44Z"/><path class="cls-7" d="M808.31,758.91s-8.52-.38-16.06,15.42"/><path class="cls-2" d="M733.8,679c-5.54-27.68,19-35,19-35,38.49-9.14,84.71,3.18,84.71,3.18a98,98,0,0,1-1.11,37.18c-31,4.09-46.61,10.64-46.61,10.64s-35,12-50,1C739.8,696,736.8,694,733.8,679Z"/><path class="cls-2" d="M860.89,675s-24.09-6.69-30.74-10.41c0,0-8.66-4.69-15.54,4.4,0,0-6.27,12.81-41.3,75.24,0,0,13,6.18,32.49,4.78C805.8,749,855.73,709.26,860.89,675Z"/><path class="cls-2" d="M874.76,651.1s.17,25.27-11.34,39.26c0,0-4.32,5.6-14.12-1.61a6.3,6.3,0,0,1-2-7.81,28.34,28.34,0,0,1,7.9-9.08s5.71-4.16,10.15-18.25c0,0,1.23-3.52,2.89-4.2C868.23,649.41,871.27,647.52,874.76,651.1Z"/><path class="cls-6" d="M837.8,655s17.67-4.33,16.83,17.83"/><path class="cls-6" d="M893.08,578.52s-4.78-14-18.78-13c0,0-11,1-15,7"/><path class="cls-6" d="M686.3,592.5s6-14,24-9"/><path class="cls-2" d="M818,485.5s5.84-28,8.42-32l.64.28S821,484.5,820,485.5A1.39,1.39,0,0,1,818,485.5Z"/><circle class="cls-2" cx="827.26" cy="450.25" r="3.75"/></g></svg>