<svg xmlns="http://www.w3.org/2000/svg" viewBox="0 0 1920 1080"><defs><style>.cls-1,.cls-7,.cls-8{fill:none;}.cls-11,.cls-2{fill:#ffcc62;stroke:#ff9d00;}.cls-10,.cls-11,.cls-2,.cls-3,.cls-4,.cls-5,.cls-6,.cls-7,.cls-8,.cls-9{stroke-miterlimit:10;}.cls-2,.cls-3,.cls-4,.cls-5,.cls-6,.cls-7,.cls-9{stroke-width:2px;}.cls-3{fill:#595462;}.cls-3,.cls-5,.cls-6,.cls-7,.cls-8,.cls-9{stroke:#1b1f32;}.cls-10,.cls-4{fill:#00adab;stroke:#007774;}.cls-5{fill:#403c47;}.cls-6{fill:#e2e2e2;}.cls-9{fill:#101218;}</style></defs><title>AI_Loader_2</title><g id="Layer_31" data-name="Layer 31"><rect class="cls-1" width="1920" height="1080"/></g><g id="_2_-_1" data-name="2 - 1"><polygon class="cls-2" points="1329.85 358.35 1503.65 224.59 1477.79 228.58 1322.12 349.06 1329.85 358.35"/><path class="cls-3" d="M1321.35,366.29c.18-.48-62.28,47.77-62.28,47.77s-6.58-1.31-8-10.25l63.42-48.51,6.86,11"/><path class="cls-3" d="M1319.57,343.54l-5.1-11s-5.79,1.59-6.66,6a94.42,94.42,0,0,1,4.67,13.24S1321.33,346.17,1319.57,343.54Z"/><path class="cls-3" d="M1336.79,364.74s-5,4.48-15,2L1311.25,351s3.23-7.11,9-8.7Z"/><path class="cls-3" d="M825.6,225.56c.74,1.2,46.65,50.17,46.65,50.17s-4.77,7.09-10.1,7.88l-45.91-49Z"/><path class="cls-3" d="M817.26,217.4l2-17s3.15-.28,4.63,2.13l2.55,10.89s1.25,3.38-2.55,10.7Z"/><path class="cls-3" d="M807.63,226.79l-17.1.65s-.52,3.12,1.76,4.79l10.65,3.4s3.27,1.51,10.87-1.7Z"/><path class="cls-4" d="M807.9,226.48C806.93,226.25,649,69.4,649,69.4L672.31,75l144,142.21Z"/><polygon class="cls-3" points="803.78 226.53 817.45 212.31 827.78 225.05 816.75 236.81 803.78 226.53"/></g><g id="_2" data-name="2"><path class="cls-5" d="M1238.89,627.93s9.46,9.33,3.62,19L1218,649.25s-14.58-14.26-1.78-27.46Z"/><path class="cls-6" d="M1196,525c-28.06,3.09-25,28-25,28,5.4,39.19,42,86,42,86a82.28,82.28,0,0,0,33-15,288.13,288.13,0,0,1-13.32-55.34s-2.78-32.26-17.26-40.7C1215.42,528,1213.34,523.09,1196,525Z"/><path class="cls-6" d="M1275.28,735s4,15,3,30h-67s-8-8,2-10l29-6a43.59,43.59,0,0,1,12-18Z"/><path class="cls-5" d="M1268.28,731s-9,3-14,15c0,0-2,4-6,3l-5-2s9-19,17-20Z"/><path class="cls-7" d="M1241.51,749.16S1250,749,1257.16,765"/><path class="cls-6" d="M1207.9,648s18.87.21,34.39-4.19c0,0,12.18-3.11,15.12,8.69,0,0-.08,9.85,19,79,0,0-10.41,16.11-29.34,9.36C1247.12,740.86,1209,684,1207.9,648Z"/><path class="cls-6" d="M1193.68,618.34s-.94,21.91,10.23,36.17c0,0,4.18,5.7,14.16-1.27a6.3,6.3,0,0,0,2.2-7.76,28.34,28.34,0,0,0-7.68-9.27s-5.61-4.3-9.71-18.49c0,0-1.35-5.67-2.78-4.27A27.67,27.67,0,0,0,1193.68,618.34Z"/><path class="cls-6" d="M1209,515l-56-2s-12-2-13,3c0,0-11,25-6,39,0,0,17,23,56,18,0,0,37-8,31-50C1221,523,1220,515,1209,515Z"/><path class="cls-5" d="M1150,500s-2,10-1,15c0,0,26,13,63,2,0,0-1-12-2-15Z"/><path class="cls-5" d="M1152,479s-4,5-6,22c0,0,16,11,66,5,0,0,7-14,10-17C1222,489,1167,475,1152,479Z"/><path class="cls-6" d="M1300,402s1.92-11-3-14c0,0-18,2-27,15a18.09,18.09,0,0,0,14,11Z"/><path class="cls-6" d="M1300,400s25,12,30,38c0,0,1,16-14,16-1,0-14,1-19-8,0,0-14-31-15-32S1283,397,1300,400Z"/><path class="cls-5" d="M1306,430s7-3,15,2c0,0,10,8,1,18,0,0-12,6-16-3Z"/><path class="cls-6" d="M1277,418c.82-.19,15.87-1.48,28.37,7.68A35.8,35.8,0,0,1,1312,432s5,10,2,19c0,0-2,6-35,11,0,0-9,3-17-6C1262,456,1247,425,1277,418Z"/><path class="cls-5" d="M1250,459s20.19,5.66,28.1-8.17c0,0,4.9-14.83-6.1-20.83C1272,430,1258,436,1250,459Z"/><path class="cls-6" d="M1264,417s11-5,28,0c0,0,9,6,5,21,0,0-8-1-14,9,0,0-12,13-27,4Z"/><path class="cls-6" d="M1203,389s29,0,64,23c0,0,12,13,3,26,0,0-26,41-46,55,0,0-3,3-10-1s-29-8-57-4c0,0-15,4-13-16,0,0,6-62,48-80C1192,392,1199,389,1203,389Z"/><path class="cls-5" d="M1284,393s-1.62,5.71-6.81,5.35c0,0-2.19-4.35-.19-7.35C1277,391,1279,386,1284,393Z"/><path class="cls-5" d="M1288.82,397s7.87-1.77,8.19-8.83c0,0-6.74-7.38-10.82-8,0,0-6.07-.42-7.38,6.74C1278.8,386.88,1282.66,395.55,1288.82,397Z"/><path class="cls-5" d="M1309,377s1-7,7-7c0,0,2,0,3,3,0,0-1.88,7-6,7C1312,380,1309,378,1309,377Z"/><path class="cls-6" d="M1285,366a25.45,25.45,0,0,1,17-9s4,0,6,2c0,0,4,7-18,23,0,0-6,3-10-4Z"/><path class="cls-5" d="M1299,371c1-.11,10,3,13,9,0,0-2,6-7,7,0,0-16-2-17-5C1288,382,1290,372,1299,371Z"/><path class="cls-6" d="M1185,339s2-6,7-6c0,0,78,18,94,29l-.54,2.28L1281,383l-89-18S1179,354,1185,339Z"/><path class="cls-5" d="M1197,360s10-6,4-17c0,0-7-11-15-4Z"/><path class="cls-6" d="M1202,383s1-35-10-44c0,0-12-8-26,3,0,0-12,8-9,50,0,0,3,22,29,11C1186,403,1202,397,1202,383Z"/><path class="cls-5" d="M1182,370s-13,0-18,15c0,0-2,15,10,17,0,0,19-1,18-16S1182,370,1182,370Z"/><path class="cls-5" d="M799.1,620.86s-12.17,5.47-10.11,16.46L811,648.2s12.72-14.67,8.46-25.25Z"/><path class="cls-8" d="M791,639s-2-12,8-15"/><circle class="cls-5" cx="849.5" cy="319.5" r="13.5" transform="translate(30.29 710.17) rotate(-46.11)"/><path class="cls-8" d="M842,313s-5,2-1,14"/><path class="cls-5" d="M951,576s15,3,16,28c0,0-24,4-29-2s-5-23-5-23Z"/><path class="cls-6" d="M850.85,544.93c6.92-27.37,34-25.61,34-25.61,38.75,7.94,72.29,57.64,72.29,57.64-5,19-21.48,27.31-21.48,27.31s-56.61-32-78.11-40.64C857.52,563.63,848.06,556,850.85,544.93Z"/><path class="cls-6" d="M895,679.39s-14.1,6.49-25,16.83l42.75,51.59s11.26,1.06,6.42-7.92L905.3,713.73a43.59,43.59,0,0,0,6.2-20.72Z"/><path class="cls-5" d="M902.58,682.23s3.43,8.84-2.62,20.35c0,0-1.8,4.09,1.52,6.53l4.73,2.57s8.89-19.05,4.55-25.85Z"/><path class="cls-7" d="M905.68,714.43s-5.32-6.67-22.18-1.95"/><path class="cls-6" d="M973.56,600.21s-24.73-3.67-31.78-6.54c0,0-9.17-3.59-14.88,6.28,0,0-4,17.7-36.87,81.16,0,0,7.38,13.58,23.63,15.8C913.64,696.9,972.66,634.85,973.56,600.21Z"/><path class="cls-6" d="M983.6,570s4.52,21.46-4.15,37.36c0,0-3.19,6.31-14.17,1.08a6.3,6.3,0,0,1-3.45-7.29,28.34,28.34,0,0,1,6.05-10.41s4.83-5.17,6.54-19.83c0,0,.4-5.82,2-4.67A27.67,27.67,0,0,1,983.6,570Z"/><path class="cls-6" d="M729.25,772.41,775,774s7.66-9-2.27-11.33l-28.77-7a43.59,43.59,0,0,0-11.36-18.41S726,729,725,728s-21,15-24.75,24Z"/><path class="cls-5" d="M727,731a49.84,49.84,0,0,1,9,21s.88,5.11,5,5l3-1s-3-20-10-24Z"/><path class="cls-7" d="M745,756s-11,3-16,16"/><path class="cls-6" d="M816.38,516s-2.48,14.35-2.19,26.39c0,0,3.92,17.68,40.35,19.79s42.35-17.64,42.35-17.64,1.8-11.26-3.89-26.74c0,0-1.53-4.86-12.57-4.68L825,512.07S816.95,511.93,816.38,516Z"/><path class="cls-5" d="M824.53,498.47a45.78,45.78,0,0,0,.72,16s31.11,8.72,61.29-.57c0,0,.14-8.06-1.29-11.93Z"/><path class="cls-5" d="M818,478s-1.65,9.79,6,25c0,0,34,9,64-2,0,0,1.84-20.22-1.44-29.88Z"/><path class="cls-6" d="M819,479s-1.78-.29-8-6c0,0-27.13-25-25.8-51,0,0,.84-18.85,31.8-29,.95-.31,16-5,25-3,0,0,10,1,18,14,0,0,26.61,48.08,30,64,0,0,2,14-23,15C867,483,826,482,819,479Z"/><path class="cls-4" d="M859.72,408.61s-4.46-4.13-7.78-2.73c0,0-6.09,2,4,15.79,0,0,11.74,14.91,18.09,10.71C874,432.38,865,413.29,859.72,408.61Z"/><path class="cls-7" d="M819,479s-1.78-.29-8-6c0,0-27.13-25-25.8-51,0,0,.84-18.85,31.8-29,.95-.31,16-5,25-3,0,0,10,1,18,14,0,0,26.61,48.08,30,64,0,0,2,14-23,15C867,483,826,482,819,479Z"/><path class="cls-5" d="M870.93,261.45a10.76,10.76,0,0,1,3.75,5.19s-2.25,11.83-8.83,13.12a6.46,6.46,0,0,1-4-4.23S870.72,269.7,870.93,261.45Z"/><path class="cls-5" d="M867.18,256.26a7.1,7.1,0,0,1,4.71,5.46s-2.25,11.83-10.06,13.81a10.82,10.82,0,0,1-5.94-4.76S867.51,262.58,867.18,256.26Z"/><path class="cls-5" d="M860.28,251.23s6,.64,7.87,5.3c0,0-4,14.45-12.26,14.24,0,0-3.32-3-3.75-5.19C852.14,265.58,860.44,254.39,860.28,251.23Z"/><path class="cls-5" d="M842.83,269.22s3.75,5.19,8.3,7.49a7.27,7.27,0,0,0,6.16-3.48s-.59-5.35-6.27-11.08c0,0-8.88,5.84-8.19,7.07"/><path class="cls-5" d="M856.4,257.77s6.19-3.42,3.92-12.19c0,0-2.49-6.54-9.39-5,0,0-.19,10.77-1.7,12.41Z"/><path class="cls-5" d="M852.21,250s4.67-6.88,1.6-12.14c0,0-5.6-3.22-11.05-2.22h0s1.84,8.93.32,10.58h0l9.13,3.78"/><path class="cls-5" d="M833.37,242.4s-1-8.19-.39-9.48,8.08-1,11,1.07,1,8.77,1,8.77l-10.83-.67"/><path class="cls-5" d="M869.9,557.89a19.47,19.47,0,0,0-.67-18.1c-5.43-9.3-24.41-14.56-29.46-7.75Z"/><path class="cls-6" d="M819.42,647.35s-24-6.87-30.66-10.63c0,0-8.63-4.75-15.58,4.29,0,0-11.68,22.66-52.56,81.29,0,0,3.68,14.78,19.5,19.09C740.14,741.39,814,681.58,819.42,647.35Z"/><path class="cls-6" d="M817,636.88s45.08-37.32,54.82-75.66c0,0,4.48-22.65-22.6-30.65,0,0-18.2-4.8-33.42,1.59l-.59.25c-15.33,6.77-12.95,36.69-12.95,36.69s2.14,18.88-8.61,48.28C793.67,617.38,798.23,631,817,636.88Z"/><path class="cls-6" d="M831,629s-2.92,25.1-16.05,37.58c0,0-5,5-13.82-3.32a6.3,6.3,0,0,1-1-8,28.34,28.34,0,0,1,9-8s6.18-3.43,12.31-16.87c0,0,1.65-3.34,3.38-3.82C824.73,626.52,828,625,831,629Z"/><circle class="cls-6" cx="764.26" cy="300.22" r="3.75" transform="matrix(0.8, -0.6, 0.6, 0.8, -28.1, 515.61)"/><path class="cls-5" d="M1147.57,525.33a19.47,19.47,0,0,1,17.84,3.14c8.47,6.65,12,33.46,4.6,37.53Z"/><path class="cls-5" d="M1078.92,594.85s2.38,13.07-7.94,17.6l-21.39-12.15s5-18.76,16.14-21.18Z"/><path class="cls-6" d="M1115.27,681.37s12.54,9.15,21.19,21.44l-52.1,42.12s-11.25-1.19-4.73-9l18.78-22.9a43.59,43.59,0,0,1-2-21.54Z"/><path class="cls-5" d="M1107.31,682.66s-5.11,8-1.46,20.47c0,0,1,4.37-2.78,6.11l-5.15,1.59s-4.95-20.43.65-26.24Z"/><path class="cls-7" d="M1097.9,713.62s6.53-5.48,22.13,2.48"/><path class="cls-6" d="M1058.39,576.38s42.65-45.11,81.3-53.57c0,0,22.79-3.72,29.88,23.61,0,0,4.19,18.35-2.71,33.35l-.27.58c-7.28,15.1-37.11,11.71-37.11,11.71s-24.67,0-54.41,9.75C1075.07,601.81,1063.68,595.35,1058.39,576.38Z"/><path class="cls-6" d="M1270.45,347.58s17.73-22.39,19.17-26.95l-.63-.31s-19.69,24.31-19.82,25.72A1.39,1.39,0,0,0,1270.45,347.58Z"/><circle class="cls-6" cx="1291.6" cy="317.9" r="3.75" transform="translate(95.99 900.83) rotate(-39.82)"/><path class="cls-6" d="M1277.36,341.55s-19.81-15.38-28.35-16.41-30.76,8.47-42.52,30.24,3,35.26,3,35.26,24.49,25.08,50.6,23.19c0,0,12.65-2,18.27-18.52s2.06-48.23,2.06-48.23A8.76,8.76,0,0,0,1277.36,341.55Z"/><path class="cls-9" d="M1232,330l1,1c2.92,2.92,1,2.14-3.09,6.57,0,0-16.86,16.67-19.91,27.43,0,0-2,7-7,3.52,0,0-1-.52-.66-1.43C1202.34,367.08,1206.47,344.6,1232,330Z"/><path class="cls-5" d="M1224.44,351.93S1213,360,1208.65,367.38c0,0-2.9,7.52,4.19,14.64,0,0,12.15,13.32,26.36,13.35a7.2,7.2,0,0,0,5.43-4.42s6.29-12.86,6.23-19.27c0,0,.43-4.22-4.14-8.24,0,0-10.39-9.59-15.88-11.57C1230.84,351.87,1226.76,350,1224.44,351.93Z"/><path class="cls-5" d="M825,387c0,1,4,6,4,6s-14,7-26,7Z"/><path class="cls-6" d="M767.8,329.68s21.25-13.32,29.85-13.49,29.76,11.51,39.27,34.35-6.53,34.78-6.53,34.78-26.89,22.5-52.67,18c0,0-12.39-3.25-16.32-20.26s2.78-48.19,2.78-48.19A8.76,8.76,0,0,1,767.8,329.68Z"/><path class="cls-9" d="M814.53,323s-6.21,3.38-8.82,6.57-6,7-2.44,11.79c0,0,14.53,17.86,16.49,28.86,0,0,.76,9.4,7.18,4.63,0,0,10.43-6.65,12.95-12.2C839.88,362.61,838.46,340,814.53,323Z"/><path class="cls-10" d="M814.25,344.36s8.21-2.37,12.41-1.75c0,0,3.4,1.21,3.79,3.41,0,0-8,6-11.21,3.36A24.42,24.42,0,0,1,814.25,344.36Z"/><path class="cls-5" d="M802.4,356.91s9.16,10.63,11.53,18.84c0,0,1,8-7.65,13.17,0,0-15,9.94-28.82,6.49a7.2,7.2,0,0,1-4.18-5.62s-2.95-14-1.32-20.21c0,0,.62-4.2,6-7,0,0,12.43-6.75,18.23-7.33C796.21,355.29,800.61,354.5,802.4,356.91Z"/><path class="cls-6" d="M800.38,360.9s8.78,14.12,11.12,21.64c0,0,.39,2.2-9,8,0,0-11.83,7.56-25,4.91,0,0-2.64-.44-3.47-4.47,0,0-3-12.81-1.74-18.4,0,0-.23-4.16,4.52-6.54,0,0,10.82-5.56,16.62-6.14C793.39,359.88,798.72,358.67,800.38,360.9Z"/><path class="cls-6" d="M777.89,334s-12-25.92-12.33-30.68l.68-.16s13.46,28.24,13.25,29.64A1.39,1.39,0,0,1,777.89,334Z"/><circle class="cls-5" cx="834.15" cy="379.07" r="20" transform="translate(96.54 922.61) rotate(-60.82)"/><path class="cls-6" d="M818.62,360.28a224.18,224.18,0,0,1,17.94-35.89s14.68-.46,24.93,5.77c0,0,12.6,15.85,2.83,47.35,0,0-3.85,14-33.61-.53C830.71,377,814.8,368.49,818.62,360.28Z"/><path class="cls-6" d="M816.89,414.1s21.06,9.47,33.94-17.7c0,0-24.82-9.39-20.61-27.4,0,0-6.4-7-14.46-6.93A79.27,79.27,0,0,0,808,378S797,405,816.89,414.1Z"/><path class="cls-5" d="M833,245s-7.69-1.34-10.12.69a9.13,9.13,0,0,0,1.06,8.18s6.4,5,11.06,3.14Z"/><path class="cls-6" d="M829.23,256.82l4.15-14.41s18.25-2.66,27,9c0,0-.9,8.9-5.44,13.84a12.13,12.13,0,0,1-4.32,2.71c-4.77,1.81-15.35-3.79-19.22-5.53A5.64,5.64,0,0,1,829.23,256.82Z"/><path class="cls-6" d="M830,305.71s2.23-37.42,3.82-41.6c0,0,15.17-5.11,22.17-.11,0,0,20.15,20.94,13.58,43.32a11.68,11.68,0,0,1-6.62,6.1s-16.87,5.69-29.52-.84C833.44,312.58,829.84,310,830,305.71Z"/><path class="cls-6" d="M1222.52,353.47s-11,7.79-15.24,14.82c0,0-2.88,7.14,3.74,13.73,0,0,11.31,12.35,24.8,12.14a7.15,7.15,0,0,0,5.22-4.26s6.18-12.22,6.23-18.26c0,0,.48-4-3.79-7.7,0,0-9.71-8.86-14.88-10.64C1228.6,353.31,1224.76,351.65,1222.52,353.47Z"/><path class="cls-11" d="M1214,347a10.76,10.76,0,0,1,4-5s3-1,5,0c0,0-2,4-5,5Z"/><path class="cls-6" d="M1188,366s13.93,1.48,21.47,14.24c0,0,8.53,14.76-8.47,25.76,0,0-13,10-27,5,0,0-11-5-9-16,0,0,10-10,5-21C1170,374,1179,365,1188,366Z"/><path class="cls-8" d="M1329.5,437.5A16.84,16.84,0,0,0,1314,425a32.17,32.17,0,0,0-8,1"/><path class="cls-6" d="M1050.39,598.52s18.86-.86,34.09-6.14c0,0,13.88-3.49,16,7.07,0,0,2.26,21.9,25.94,89.33,0,0-13.1,10.87-32.39,5.21C1094,694,1046.43,633,1050.39,598.52Z"/><path class="cls-6" d="M1043.1,568.2s-7.52,20.6-1.2,37.57c0,0,2.26,6.7,13.88,3.08a6.3,6.3,0,0,0,4.45-6.73,28.34,28.34,0,0,0-4.51-11.16s-4-5.8-3.66-20.56c0,0,.43-5.82-1.36-4.91A27.67,27.67,0,0,0,1043.1,568.2Z"/></g></svg>