<svg xmlns="http://www.w3.org/2000/svg" viewBox="0 0 1920 1080"><defs><style>.cls-1,.cls-6,.cls-8{fill:none;}.cls-2,.cls-7{fill:#403c47;}.cls-10,.cls-2,.cls-3,.cls-5,.cls-6,.cls-7,.cls-8{stroke:#1b1f32;}.cls-10,.cls-11,.cls-12,.cls-2,.cls-3,.cls-4,.cls-5,.cls-6,.cls-7,.cls-8,.cls-9{stroke-miterlimit:10;}.cls-10,.cls-2,.cls-3,.cls-4,.cls-5,.cls-8,.cls-9{stroke-width:2px;}.cls-3{fill:#e2e2e2;}.cls-12,.cls-13,.cls-4{fill:#ffcc62;}.cls-12,.cls-4{stroke:#ff9d00;}.cls-5{fill:#595462;}.cls-11,.cls-9{fill:#00adab;stroke:#007774;}.cls-10{fill:#101218;}.cls-13{opacity:0.5;}</style></defs><title>AI_Loader_8</title><g id="Layer_31" data-name="Layer 31"><rect class="cls-1" width="1920" height="1080"/></g><g id="_7" data-name="7"><path class="cls-2" d="M1126,561s-3-3-3-6c0,0,2-3,3-3,0,0,7.76,5.78,8.38,10.39Z"/><path class="cls-2" d="M1106.5,554.53s4.09-2.61,7-2a3.7,3.7,0,0,1,1.39,3.33,7.47,7.47,0,0,1-3.52,2.37l-4.9-3.66"/><path class="cls-2" d="M1104,575l-8.53-6.87S1090,573,1092,578c0,0,4,5,9,5Z"/><path class="cls-2" d="M1110,568l-7.47-8s-6.53,1-7.53,7c0,0,2,6,7,8Z"/><path class="cls-2" d="M1117,562s-5-9-8-9c0,0-5,2-7,6,0,0,3,6,6,8Z"/><path class="cls-2" d="M1119,565c0-1,5-6,7-7,0,0,8,1,9,6,0,0-3,7-7,11Z"/><path class="cls-3" d="M1127,574s-3-11-9-13c0,0-4-1-9,3,0,0-12,10-9,20a13.94,13.94,0,0,0,9,6Z"/><polygon class="cls-4" points="1408 566 1554.79 517.19 1537.08 513.27 1405 553 1408 566"/><path class="cls-5" d="M1401.73,567.87c.26-.35-58.92,23.54-58.92,23.54s-8.45-4.76-5.62-13.36l62.23-21.46,2.32,11.28"/><path class="cls-5" d="M1406.78,547.9l-1.65-12.05s-6-.17-8.11,3.77a94.42,94.42,0,0,1,.59,14S1407.69,550.92,1406.78,547.9Z"/><path class="cls-5" d="M1417.05,573.2s-6.08,2.82-14.94-2.43l-5.48-18.17s5.17-5.85,11.17-5.68Z"/><path class="cls-2" d="M1377,580l9,5.11s-3,2.89-9,1.89c0,0-6-1-6-5Z"/><path class="cls-2" d="M1384,577l12.64,1.47S1395,583,1388,585c0,0-8,1-11-3Z"/><path class="cls-2" d="M1390,572l9-2s3,5-1,8c0,0-7,3-13,0Z"/><path class="cls-2" d="M1387,565l5-7s-1-4-7-2c0,0-6,4-8,8Z"/><path class="cls-3" d="M1369,582s5,3,13,0c0,0,15-7,11-20,0,0-2-3-18,2Z"/><path class="cls-3" d="M1298,558c-10.46,25.11,16,32,16,32,16,5,63-7,63-7,7.82-11.13,1.67-21,1.67-21-12.7-6.22-47.24-14.48-55.78-14.73C1322.9,547.31,1303,546,1298,558Z"/><circle class="cls-2" cx="1305.85" cy="565.64" r="13.5" transform="translate(366.12 1634.33) rotate(-72.09)"/><path class="cls-6" d="M1308.52,561.41a9.14,9.14,0,0,1,10.8,5.23"/><path class="cls-3" d="M1268,545c.84-.07,23-1,34.89,6.85,2.42,1.6,4,4.37,5.73,7.14,0,0,3.62,10.58-.55,19.1,0,0-6.7,7.35-40.07,7.91,0,0-8.27-1-15-11C1253,575,1243,547,1268,545Z"/><path class="cls-2" d="M1234.58,575.49s19.26,8.3,28.94-4.36c0,0,6.83-14-3.27-21.45C1260.24,549.68,1245.57,553.76,1234.58,575.49Z"/><path class="cls-3" d="M1231,538s16.61-4.76,32.8,2.46c0,0,8.2,3.54,4.2,16.54,0,0-7-5-14,3,0,0-8,11-24,6Z"/><path class="cls-3" d="M1107,580.53s1.45,35.84,9.07,42.09c0,0,15.82,14.06,32.55,1.22,0,0,12.48-12.27,7.32-26.45,0,0-13.66-13-21.28-19.27C1134.64,578.11,1112.78,557.27,1107,580.53Z"/><path class="cls-6" d="M1113.5,619.5s-5-13,3-24c0,0,6.34-10.08,22.69-6.88"/><path class="cls-2" d="M1148.68,616.31s-14.6,12.8-23.48,5.17c0,0-7-6.37-3.37-14.16a18.33,18.33,0,0,1,11.6-10Z"/><path class="cls-7" d="M1139.37,613.66s-8.79,7.95-16.29,5"/><path class="cls-3" d="M1315,723s19-2,26,5l10,43.28-55.31,1.26s-8.21-7.79,1.74-10L1322,757s-1-6-1-7c-2.1-3.22-7.53-6.08-9-10Z"/><path class="cls-2" d="M1313,732s5,11,12,13c0,0-1.33,4.51-4.17,4.75S1311,742,1311,740Z"/><path class="cls-3" d="M1322,757s23-3,28,14"/><path class="cls-2" d="M1191.08,730s-5.67,14.59,5,21.63c0,0,19.29,2.21,22.53-6.12,0,0-.49-16-4.66-17.64S1191.08,730,1191.08,730Z"/><path class="cls-3" d="M1263.11,653.72c-19.17-20.72-41.73-12.15-41.73-12.15-30.23,25.52-36.25,91.13-36.25,91.13,13.54,14.31,38.84,2.46,38.84,2.46s27.51-43.91,42.23-61.83C1266.2,673.33,1270.85,662.09,1263.11,653.72Z"/><path class="cls-3" d="M1203.68,758.44s14.6-23.44,15.28-31a20,20,0,0,1,16.18-9.55s5.5,3.22,77,3c0,0,10.42,13.06,5,28.52C1317.07,749.41,1234.89,773.5,1203.68,758.44Z"/><path class="cls-3" d="M1177.53,756.81s18.59,11.64,36.5,9c0,0,7-.82,5.89-12.93a6.3,6.3,0,0,0-5.66-5.75,28.34,28.34,0,0,0-11.86,2.1s-6.51,2.76-20.87-.69c0,0-5.6-1.62-5.09.31A27.67,27.67,0,0,0,1177.53,756.81Z"/><path class="cls-3" d="M1192.82,774.41,1147.07,776s-7.66-9,2.27-11.33l28.77-7a43.59,43.59,0,0,1,11.36-18.41s6.61-8.24,7.61-9.24,21,15,24.75,24Z"/><path class="cls-2" d="M1196.07,736s-7.71,5.2-10,18c0,0-.88,5.11-5,5l-3-1s4.91-20,12.5-22.71Z"/><path class="cls-8" d="M1177.07,758s11,3,16,16"/><path class="cls-3" d="M621,436s16-2,19-1c0,0-8,13-10,13Z"/><path class="cls-5" d="M668,414.71c-.9,1.09-32.6,60.25-32.6,60.25s-8.24-2.25-10.69-7l31.69-59.17Z"/><path class="cls-5" d="M673,404.2l16.74-3.56s1.27,2.9-.54,5.07l-9.5,5.9s-2.8,2.27-11,1Z"/><path class="cls-5" d="M661.06,398.09l-6.09-16s-3.12.5-4,3.2l.19,11.18s-.39,3.58,5.09,9.75Z"/><path class="cls-9" d="M661.44,398.25c-.09-1,97.94-200.86,97.94-200.86l2.21,23.9L672.95,403.21Z"/><polygon class="cls-5" points="660.08 394.36 677.93 402.75 669.16 416.61 654.49 409.94 660.08 394.36"/><path class="cls-2" d="M655.25,437.88l8.41-1.44S663,441,660,443a6.93,6.93,0,0,1-5,0Z"/><path class="cls-2" d="M657,431l10.05-3.94A11.21,11.21,0,0,1,663,437s-5,3-7,2Z"/><path class="cls-2" d="M654,424s0-9-2-11c0,0-5,0-7,4,0,0-2.09,10.94-1,15Z"/><path class="cls-2" d="M659,422l9-5s3,3,0,9a14.54,14.54,0,0,1-8,5Z"/><path class="cls-3" d="M640,436s3-12,20-17c0,0,7-1,5,5,0,0-6,19-9,21Z"/><path class="cls-3" d="M482.49,741.66s-4.63,14.82-4.27,29.85l66.94,2.83s8.33-7.65-1.58-10.08L514.87,757a43.59,43.59,0,0,0-11.23-18.49Z"/><path class="cls-2" d="M489.66,738s8.87,3.38,13.35,15.58c0,0,1.83,4.08,5.87,3.25L514,755s-8.19-19.36-16.14-20.7Z"/><path class="cls-8" d="M515.64,757.24s-8.51-.52-16.31,15.16"/><path class="cls-2" d="M540.77,630.33s-11.87,9.65-1.08,32.23c0,0,23.09-7.66,24.71-15.3s-6.31-22.67-6.31-22.67Z"/><path class="cls-6" d="M543,634s-8.55,11.48-.41,19.34"/><path class="cls-3" d="M1269.2,644.47s1.59,14.47.55,26.47c0,0-5,17.41-41.5,17.26S1187.07,668,1187.07,668s-1.11-11.35,5.53-26.45c0,0,1.83-4.76,12.84-3.9l55.39,2.36S1268.88,640.36,1269.2,644.47Z"/><path class="cls-2" d="M1263,624s2.1,9.19,0,18c0,0-34,9.78-64,0,0,0,.69-12.15,2.18-16Z"/><path class="cls-2" d="M1258.5,598.5s11.44,15.81,8,32c0,0-32.12,14.49-66,10,0,0-10.39-17.49-7.78-27.35Z"/><path class="cls-3" d="M657.12,701.12s-9.7,12.12-14.81,26.26l61.34,27s10.54-4.11,2.19-10L681.7,727.21A43.59,43.59,0,0,0,678,705.91Z"/><path class="cls-2" d="M665.14,700.27s7,6.37,6.78,19.36c0,0,.22,4.47,4.29,5.16l5.38.18s-.6-21-7.52-25.15Z"/><path class="cls-8" d="M682.35,727.67s-7.74-3.58-20.7,8.21"/><path class="cls-3" d="M566.69,534.93c28.22-.59,37.72,21.59,37.72,21.59C607,596,564,645.89,564,645.89c-19.7.19-32-13.47-32-13.47s15.78-63.05,18.46-86.09C550.44,546.33,555.3,535.17,566.69,534.93Z"/><path class="cls-3" d="M568,655s-24.64-4.25-31.62-7.28c0,0-9.09-3.8-15,5.93,0,0-8,23.63-42.32,86.31,0,0,14.8,3.41,31,6C510,746,566.27,689.65,568,655Z"/><path class="cls-3" d="M581.27,628s1.33,21.89-9.57,36.35c0,0-4.08,5.78-14.18-1a6.3,6.3,0,0,1-2.34-7.71,28.34,28.34,0,0,1,7.51-9.41s5.53-4.4,9.37-18.66c0,0,1.25-5.69,2.71-4.32A27.67,27.67,0,0,1,581.27,628Z"/><path class="cls-3" d="M551,518.47s-1.59,14.47-.55,26.47c0,0,5,17.41,41.5,17.26S633.11,542,633.11,542s1.11-11.35-5.53-26.45c0,0-1.83-4.76-12.84-3.9L559.35,514S551.29,514.36,551,518.47Z"/><path class="cls-2" d="M552,497a153,153,0,0,0,3,18s38,9.78,68,0c0,0-2.51-11.15-4-15Z"/><path class="cls-2" d="M540,471s3,17,10,32c0,0,40,10,72-2,0,0,3.3-18.47-1.46-27.48Z"/><path class="cls-3" d="M555.1,484.19s-16.69-8.39-19.09-22.11c0,0-11.24-44.7-.78-68.44,0,0,11.12-20.23,53.52-7.8,1,.28,21.58,4.25,26.71,14.44a105.75,105.75,0,0,1,7.62,24.67s6.22,39.6,5.37,59.43c0,0-.74,14.12-20,13.39C608.48,497.77,567.34,491.62,555.1,484.19Z"/><path class="cls-9" d="M620.91,417.77s-5.5-5.9-9.94-1.77c0,0-6.32,4.43-1.35,18.4,0,0,6.38,15.76,16.23,12.71C625.86,447.11,622.95,424.69,620.91,417.77Z"/><path class="cls-2" d="M683,587s16,5,11.8,19.72l-27,10.1s-13.52-16.46-8.21-26.55Z"/><path class="cls-2" d="M614.46,527.93s-9.32-5.93-19.23-1.71c-11.53,4.9-21.15,26.12-15.45,32.41Z"/><path class="cls-3" d="M685.26,584.12s-30.46-39.76-66.17-56.8c0,0-21.13-8.36-34.26,16.63a53.79,53.79,0,0,0-3,30.07l.13.62c3.65,16.36,33.46,19.86,33.46,19.86s18.93,1.58,45.67,17.87A98,98,0,0,0,685.26,584.12Z"/><path class="cls-6" d="M681.5,590.5s13,6,9.6,16.79"/><path class="cls-2" d="M1139.29,682.18s1.12,13.29-9.5,16.82l-23.73-16.4s-4.06-19.6,17.1-21.9Z"/><path class="cls-3" d="M1230.51,675.71c2.14-28.15-23.1-32.44-23.1-32.44-39.31-4.4-83.7,13.43-83.7,13.43a98,98,0,0,0,5.61,36.77c31.3.3,47.55,4.91,47.55,4.91s36.2,7.67,49.75-5.07C1226.62,693.31,1229.35,691,1230.51,675.71Z"/><path class="cls-3" d="M1105.38,689.69s21.58-12.62,27.06-17.91c0,0,7.18-6.74,16.15.29,0,0,9.33,10.78,59.13,62.21,0,0-11,9.28-30.19,12.91C1177.54,747.18,1119.12,721.5,1105.38,689.69Z"/><path class="cls-3" d="M1085.87,670.13s6.28,24.48,21,35.06c0,0,5.61,4.31,13.24-5.16a6.3,6.3,0,0,0,0-8.06,28.34,28.34,0,0,0-10-6.77s-6.59-2.57-14.47-15.05c0,0-2.09-3.09-3.86-3.33C1091.75,666.82,1088.33,665.77,1085.87,670.13Z"/><path class="cls-6" d="M1124.37,664.49s-18.06-2.16-14.55,19.74"/><path class="cls-3" d="M703.76,605s-24.87,2.56-32.41,1.52c0,0-9.77-1.21-12.87,9.77,0,0,1.36,21.81-8.48,92.72,0,0,13.12,10.56,30.79,2.13C680.79,711.13,711.46,638.78,703.76,605Z"/><path class="cls-3" d="M713.42,582.22s5.16,24.74-3.35,40.72c0,0-3.13,6.34-14.16,1.21a6.3,6.3,0,0,1-3.52-7.25,28.34,28.34,0,0,1,6-10.47s4.78-5.21,6.34-19.89c0,0,.51-3.69,2-4.69C706.68,581.85,709.29,579.4,713.42,582.22Z"/><path class="cls-8" d="M555.1,484.19s-16.69-8.39-19.09-22.11c0,0-11.24-44.7-.78-68.44,0,0,11.12-20.23,53.52-7.8,1,.28,21.58,4.25,26.71,14.44a105.75,105.75,0,0,1,7.62,24.67s6.22,39.6,5.37,59.43c0,0-.74,14.12-20,13.39C608.48,497.77,567.34,491.62,555.1,484.19Z"/><path class="cls-2" d="M597.17,385l-.17,7s-19,0-28-6"/><circle class="cls-3" cx="587.32" cy="280.26" r="3.75" transform="translate(-25.79 62.1) rotate(-5.92)"/><path class="cls-3" d="M575.3,307.4s25.07-.59,32.55,3.66,19.7,25.1,16.2,49.59-23.38,26.55-23.38,26.55-34.61,5.6-54.47-11.44c0,0-9-9.12-3.68-25.76s27-40,27-40A8.76,8.76,0,0,1,575.3,307.4Z"/><path class="cls-10" d="M618.9,325.49s-7.07-.27-10.94,1.14-8.75,2.92-8.13,8.89c0,0,3.37,22.77-.57,33.24,0,0-4.15,8.47,3.81,7.65,0,0,12.36-.39,17.36-3.87C620.43,372.53,630.74,352.42,618.9,325.49Z"/><path class="cls-11" d="M607.73,343.74s8.27,2.16,11.56,4.83c0,0,2.3,2.78,1.51,4.87,0,0-9.95,1-11.35-2.84A24.42,24.42,0,0,1,607.73,343.74Z"/><path class="cls-2" d="M591.13,348.48s2.44,13.82.28,22.09c0,0-3.26,7.38-13.31,7.41,0,0-18,.86-28.09-9.15a7.2,7.2,0,0,1-.72-7s4.63-13.55,9.19-18c0,0,2.67-3.29,8.75-2.92,0,0,14.13.54,19.41,3C586.63,343.92,590.82,345.5,591.13,348.48Z"/><path class="cls-3" d="M587.35,350.89s.33,16.62-1.5,24.28c0,0-.79,2.09-11.83,2.23,0,0-14,.45-24-8.57,0,0-2-1.73-.7-5.61,0,0,4-12.56,7.9-16.7,0,0,1.93-3.7,7.22-3.31,0,0,12.14.75,17.43,3.22C581.86,346.43,587.07,348.11,587.35,350.89Z"/><path class="cls-3" d="M581.75,316.28s2.93-28.41,5.08-32.68l.67.22s-2.86,31.16-3.75,32.25A1.39,1.39,0,0,1,581.75,316.28Z"/><path class="cls-3" d="M658.17,441.53s-1.45,35.84-9.07,42.09c0,0-15.82,14.06-32.55,1.22,0,0-12.48-12.27-7.32-26.45,0,0,13.66-13,21.28-19.27C630.51,439.11,652.37,418.27,658.17,441.53Z"/><path class="cls-6" d="M649.39,482.83s8.17-9.73,3.11-20.33A21.61,21.61,0,0,0,630,450.45"/><path class="cls-2" d="M616.48,477.31s14.6,12.8,23.48,5.17c0,0,7-6.37,3.37-14.16a18.33,18.33,0,0,0-11.6-10Z"/><circle class="cls-2" cx="584.08" cy="427.06" r="20" transform="translate(-137.28 370.8) rotate(-31.71)"/><path class="cls-3" d="M610.05,425s15.57,17.49,25.76,35.87c0,0-6.69,13.07-17.1,19,0,0-25.11-1.78-48-25.57,0,0-10.43-10.16,16.71-29.17C587.46,425.15,601.89,415.26,610.05,425Z"/><path class="cls-3" d="M572,389.18s25.17-1.91,33.56,28c0,0-6.37,11.33-17.65,13a65.79,65.79,0,0,0-25.93-.81s-14.33-9.2-10.08-22.88C551.86,406.56,557.46,392.5,572,389.18Z"/><path class="cls-7" d="M625.78,474.66s8.79,7.95,16.29,5"/><path class="cls-3" d="M1163.69,555.12s12.21-9,52.31-21.12c0,0,17-2,28,11,0,0,28.09,39.68,26,64,0,0-1,7-4,7-8.06,0-13-9-43,16,0,0-14,14-31.47,2.62,0,0-33.47-21.11-33.53-64.62C1158,570,1159,559,1163.69,555.12Z"/><path class="cls-2" d="M1174,550l8,11s11,0,21-12Z"/><path class="cls-3" d="M1169.78,490.5s-5.84-28-8.42-32l-.64.28s6.06,30.69,7.06,31.69A1.39,1.39,0,0,0,1169.78,490.5Z"/><circle class="cls-3" cx="1160.53" cy="455.25" r="3.75"/><path class="cls-3" d="M1184.28,474s-25,2-32,7-17,27-11,51,26,24,26,24,35,2,53-17c0,0,8-10,1-26s-31-37-31-37A8.76,8.76,0,0,0,1184.28,474Z"/><path class="cls-10" d="M1142.78,496.5s7-1,11,0,9,2,9,8c0,0-1,23,4,33,0,0,5,8-3,8,0,0-12.34.89-17.67-2.06C1146.12,543.44,1133.78,524.5,1142.78,496.5Z"/><path class="cls-12" d="M1155.78,513.5s-8,3-11,6c0,0-2,3-1,5,0,0,10,0,11-4A24.42,24.42,0,0,0,1155.78,513.5Z"/><path class="cls-2" d="M1172.78,516.5s-1,14,2,22c0,0,4,7,14,6,0,0,18-1,27-12a7.2,7.2,0,0,0,0-7s-6-13-11-17c0,0-3-3-9-2,0,0-14,2-19,5C1176.78,511.5,1172.78,513.5,1172.78,516.5Z"/><path class="cls-3" d="M1176.78,518.5s1.39,16.56,4,24c0,0,1,2,12,1,0,0,14-1,23-11,0,0,1.86-1.93.11-5.65,0,0-5.23-12.08-9.59-15.8,0,0-2.3-3.48-7.53-2.55,0,0-12,2-17,5C1181.78,513.5,1176.78,515.71,1176.78,518.5Z"/><circle class="cls-2" cx="1186.09" cy="586.05" r="20" transform="translate(-122.42 781.11) rotate(-34.77)"/><path class="cls-3" d="M1163.17,572.32a224.18,224.18,0,0,0-31.91,24.32s2.29,14.5,10.32,23.42c0,0,17.92,9.42,47-6.07,0,0,13.08-6.41-6.8-32.92C1181.84,581.07,1170.53,567,1163.17,572.32Z"/><path class="cls-3" d="M1219.27,565.45s11.47,20-14.31,35.5c0,0-11.77-23.79-29.28-17.84,0,0-7.6-5.68-8.3-13.71a79.27,79.27,0,0,1,15.11-9.27S1208.28,546.54,1219.27,565.45Z"/><path class="cls-6" d="M1311.5,588.5s18-2,20-18c0,0,3-21-13-23"/></g><g id="_7_-_2" data-name="7 - 2"><path class="cls-13" d="M1113,545s-146.5,21.5-186,32c0,0-33.5,7.5-3.5,12.5,0,0,125.5,19.5,200.5,24.5l-92.5-5.5s82,11,101,12l-110,3s-63,3,15,13c0,0-79-9-99-13,0,0,25,8,44,10,0,0-182-25-150-44,0,0-4-3-18,4C814.5,593.5,843.5,561.5,1113,545Z"/></g></svg>