<svg xmlns="http://www.w3.org/2000/svg" viewBox="0 0 566 566"><defs><style>.cls-1{fill:#00bdbb;}.cls-2,.cls-3,.cls-6{fill:#fff;}.cls-3,.cls-4,.cls-5,.cls-6{stroke:#00bdbb;stroke-miterlimit:10;}.cls-3{stroke-width:30px;}.cls-4,.cls-5{fill:none;}.cls-4{stroke-width:10px;}.cls-5,.cls-6{stroke-width:34px;}</style></defs><title>Logo_AI-Duel</title><g id="Layer_2" data-name="Layer 2"><rect class="cls-1" width="566" height="566" rx="30" ry="30"/><path class="cls-2" d="M646,144" transform="translate(-125 -92)"/></g><g id="Layer_3" data-name="Layer 3"><path class="cls-3" d="M226,527l-80,73s3,25,30,36l81-78Z" transform="translate(-125 -92)"/><polygon class="cls-3" points="508 35 106 428 145 465 536 67 543 33 508 35"/></g><g id="Layer_9" data-name="Layer 9"><path class="cls-2" d="M226,527l-80,73s3,25,30,36l81-78Z" transform="translate(-125 -92)"/><polygon class="cls-2" points="508 35 106 428 145 465 536 67 543 33 508 35"/><path class="cls-3" d="M164.37,480.2,302.77,620.8s16.91-5.91,23.94-23L187.21,457.18S171.32,461,164.37,480.2Z" transform="translate(-125 -92)"/></g><g id="Layer_8" data-name="Layer 8"><path class="cls-2" d="M164.37,480.2,302.77,620.8s16.91-5.91,23.94-23L187.21,457.18S171.32,461,164.37,480.2Z" transform="translate(-125 -92)"/><line class="cls-4" x1="521" y1="52" x2="134.06" y2="437.6"/></g><g id="Layer_10" data-name="Layer 10"><path class="cls-3" d="M588,527l80,73s-3,25-30,36l-81-78Z" transform="translate(-125 -92)"/><polygon class="cls-3" points="56 35 458 428 419 465 28 67 21 33 56 35"/></g><g id="Layer_11" data-name="Layer 11"><path class="cls-2" d="M588,527l80,73s-3,25-30,36l-81-78Z" transform="translate(-125 -92)"/><polygon class="cls-2" points="56 35 458 428 419 465 28 67 21 33 56 35"/><path class="cls-3" d="M649.63,480.2,511.23,620.8s-16.91-5.91-23.94-23l139.5-140.61S642.68,461,649.63,480.2Z" transform="translate(-125 -92)"/></g><g id="Layer_12" data-name="Layer 12"><path class="cls-2" d="M649.63,480.2,511.23,620.8s-16.91-5.91-23.94-23l139.5-140.61S642.68,461,649.63,480.2Z" transform="translate(-125 -92)"/><line class="cls-4" x1="43" y1="52" x2="429.94" y2="437.6"/></g><g id="Layer_5" data-name="Layer 5"><path class="cls-1" d="M423,263s-70-14-94,20-75,86-58,126,117,74,167,63,119-44,100-94-28-100-83-111S423,263,423,263Z" transform="translate(-125 -92)"/><path class="cls-5" d="M542.25,314c-44-75-126-75-126-75-2.74-.22-5.4-.35-8-.43H408c-2.6.07-5.26.2-8,.43,0,0-82,0-126,75,0,0-25.5,50.5-24.5,99.5,0,0,0,35,36.5,50.5,0,0,52.48,28.8,122,29.4h.25c69.52-.6,122-29.4,122-29.4,36.5-15.5,36.5-50.5,36.5-50.5C567.75,364.5,542.25,314,542.25,314Zm-20,82a55.79,55.79,0,0,1-34,43s-32.93,17.63-80.12,17.57S328,439,328,439a55.79,55.79,0,0,1-34-43c-7-43,28-82,28-82,32-37,81-36,81-36,1.68,0,3.35,0,5,0h.25c1.65,0,3.32,0,5,0,0,0,49-1,81,36C494.25,314,529.25,353,522.25,396Z" transform="translate(-125 -92)"/><ellipse class="cls-2" cx="353.49" cy="366.44" rx="31.5" ry="20.52" transform="translate(-176.84 582.57) rotate(-83.27)"/><ellipse class="cls-2" cx="465.49" cy="366.44" rx="20.52" ry="31.5" transform="translate(-164.72 -34.95) rotate(-6.73)"/><path class="cls-6" d="M263,319s-32,63-21,108c0,0-23-9-23-24C219,403,216,343,263,319Z" transform="translate(-125 -92)"/><path class="cls-6" d="M553,319s32,63,21,108c0,0,23-9,23-24C597,403,600,343,553,319Z" transform="translate(-125 -92)"/><circle class="cls-6" cx="228" cy="75" r="10"/><path class="cls-6" d="M352,173s-5,34-4,69c0,0,7-4,12-5,0,0-3-60-5-65Z" transform="translate(-125 -92)"/><path class="cls-6" d="M409,503a288.05,288.05,0,0,1-91-16s13,32,41,42c0,0,20.16,7.28,50,6.75,29.84.53,50-6.75,50-6.75,28-10,41-42,41-42A288.05,288.05,0,0,1,409,503Z" transform="translate(-125 -92)"/></g><g id="Layer_6" data-name="Layer 6"><path class="cls-1" d="M423,263s-70-14-94,20-75,86-58,126,117,74,167,63,119-44,100-94-28-100-83-111S423,263,423,263Z" transform="translate(-125 -92)"/><path class="cls-2" d="M542.25,314c-44-75-126-75-126-75-2.74-.22-5.4-.35-8-.43H408c-2.6.07-5.26.2-8,.43,0,0-82,0-126,75,0,0-25.5,50.5-24.5,99.5,0,0,0,35,36.5,50.5,0,0,52.48,28.8,122,29.4h.25c69.52-.6,122-29.4,122-29.4,36.5-15.5,36.5-50.5,36.5-50.5C567.75,364.5,542.25,314,542.25,314Zm-20,82a55.79,55.79,0,0,1-34,43s-32.93,17.63-80.12,17.57S328,439,328,439a55.79,55.79,0,0,1-34-43c-7-43,28-82,28-82,32-37,81-36,81-36,1.68,0,3.35,0,5,0h.25c1.65,0,3.32,0,5,0,0,0,49-1,81,36C494.25,314,529.25,353,522.25,396Z" transform="translate(-125 -92)"/><ellipse class="cls-2" cx="353.49" cy="366.44" rx="31.5" ry="20.52" transform="translate(-176.84 582.57) rotate(-83.27)"/><ellipse class="cls-2" cx="465.49" cy="366.44" rx="20.52" ry="31.5" transform="translate(-164.72 -34.95) rotate(-6.73)"/><path class="cls-2" d="M263,319s-32,63-21,108c0,0-23-9-23-24C219,403,216,343,263,319Z" transform="translate(-125 -92)"/><path class="cls-2" d="M553,319s32,63,21,108c0,0,23-9,23-24C597,403,600,343,553,319Z" transform="translate(-125 -92)"/><circle class="cls-2" cx="228" cy="75" r="10"/><path class="cls-2" d="M352,173s-5,34-4,69c0,0,7-4,12-5,0,0-3-60-5-65Z" transform="translate(-125 -92)"/><path class="cls-2" d="M409,503a288.05,288.05,0,0,1-91-16s13,32,41,42c0,0,20.16,7.28,50,6.75,29.84.53,50-6.75,50-6.75,28-10,41-42,41-42A288.05,288.05,0,0,1,409,503Z" transform="translate(-125 -92)"/></g></svg>