<svg xmlns="http://www.w3.org/2000/svg" viewBox="0 0 1920 1080"><defs><style>.cls-1,.cls-10,.cls-5{fill:none;}.cls-2{fill:#e2e2e2;}.cls-10,.cls-11,.cls-2,.cls-3,.cls-4,.cls-5,.cls-8{stroke:#1b1f32;}.cls-10,.cls-11,.cls-12,.cls-13,.cls-2,.cls-3,.cls-4,.cls-5,.cls-6,.cls-8,.cls-9{stroke-miterlimit:10;}.cls-12,.cls-2,.cls-3,.cls-4,.cls-5,.cls-6,.cls-8{stroke-width:2px;}.cls-3{fill:#595462;}.cls-11,.cls-4,.cls-7{fill:#403c47;}.cls-13,.cls-6{fill:#ffcc62;stroke:#ff9d00;}.cls-8{fill:#101218;}.cls-12,.cls-9{fill:#00adab;stroke:#007774;}</style></defs><title>AI_Loader_5</title><g id="Layer_31" data-name="Layer 31"><rect class="cls-1" width="1920" height="1080"/></g><g id="_5" data-name="5"><path class="cls-2" d="M830,408s-15,1-19,18c0,0-4,21,14,25,0,0,10-31,5-42"/><path class="cls-3" d="M961.8,398.67c-1.21.74-64.29,23.66-64.29,23.66s1.05,8.48,5.45,11.59L966,411Z"/><path class="cls-4" d="M919,406s10,3,11,5l-13,4Z"/><path class="cls-2" d="M914,418s8-8,7-12c0,0-2-8-22,0,0,0-8,8-1,11S914,418,914,418Z"/><path class="cls-4" d="M1136.48,614.54s-15.12,2.32-17.25,27.25c0,0,23.8,5.08,29.06-.69s6-22.75,6-22.75Z"/><path class="cls-2" d="M1203.45,538c-18.64-21.2-41.41-13.21-41.41-13.21-30.87,24.74-38.56,90.18-38.56,90.18,13.17,14.65,31.57,14.5,31.57,14.5s35.81-54.25,51-71.79C1206,557.68,1211,546.57,1203.45,538Z"/><path class="cls-2" d="M1146.23,739.66s4.63,14.82,4.27,29.85l-66.94,2.83s-8.33-7.65,1.58-10.08l28.72-7.22a43.59,43.59,0,0,1,11.23-18.49Z"/><path class="cls-4" d="M1139.07,736s-8.87,3.38-13.35,15.58c0,0-1.83,4.08-5.87,3.25l-5.08-1.79s8.19-19.36,16.14-20.7Z"/><path class="cls-5" d="M1113.09,755.24s8.51-.52,16.31,15.16"/><path class="cls-2" d="M1121,627s22.66,10.57,30.12,12.07c0,0,9.63,2.06,9,13.45,0,0-4.32,22.17-11.87,93.24,0,0-15.74,2.07-30.52-5C1117.72,740.69,1102.69,656.39,1121,627Z"/><path class="cls-2" d="M1121.46,596.38s-11.72,18.54-9.13,36.46c0,0,.79,7,12.91,5.95a6.3,6.3,0,0,0,5.77-5.63,28.34,28.34,0,0,0-2-11.87s-2.73-6.52.78-20.87c0,0,1.65-5.59-.29-5.09A27.67,27.67,0,0,0,1121.46,596.38Z"/><polygon class="cls-6" points="1087.79 504.39 959.38 326.6 962.58 352.58 1078.28 511.84 1087.79 504.39"/><path class="cls-3" d="M1095.48,513.13c-.47-.19,45.85,63.71,45.85,63.71s-1.5,6.54-10.49,7.68l-46.56-64.87,11.19-6.52"/><path class="cls-3" d="M1072.68,514.22,1061.49,519s1.41,5.83,5.77,6.84a94.42,94.42,0,0,1,13.37-4.26S1075.36,512.54,1072.68,514.22Z"/><path class="cls-3" d="M1094.39,497.65s4.33,5.13,1.58,15l-16.08,10.06s-7-3.45-8.42-9.28Z"/><circle class="cls-4" cx="1120.54" cy="494.52" r="13.5" transform="translate(-64.85 802.77) rotate(-38.39)"/><path class="cls-2" d="M1104.24,508.64s4.82,37.17,6.69,41.23c0,0,16.44,6.6,23.07,1.13,0,0,17.7-24.84,9.59-46.71a11.68,11.68,0,0,0-7-5.63s-17.22-4.51-29.39,2.88C1107.18,501.55,1103.77,504.42,1104.24,508.64Z"/><path class="cls-2" d="M1234.38,480.86s6.61,13,9.89,24.56c0,0,1.48,18-32.7,30.83s-45.68-4.33-45.68-4.33-5.05-10.22-4.19-26.69c0,0,0-5.1,10.63-8.19l52.64-17.4S1232.63,477.13,1234.38,480.86Z"/><path class="cls-4" d="M1217.33,466.35a85.86,85.86,0,0,1,6.86,17.61s-25.62,15.55-57.19,16c0,0-.19-5.85,0-10Z"/><path class="cls-4" d="M1203,436s13.58,12.7,17,29.38c0,0-24.77,21.36-55.1,31.39a147.23,147.23,0,0,1-21-16.86Z"/><path class="cls-7" d="M1093.13,432s-11.49,5.29-6.86,19.87c0,0,8.5,4.09,12.92-1.43Z"/><path class="cls-2" d="M1099.75,447.4c-1,.11-8.84,2-11.49,5.29,0,0,5.58,28.26,14.49,36.57,0,0,15.74,2.59,23.25-2.27,0,0-4.28-32-10-38.38A52.41,52.41,0,0,0,1099.75,447.4Z"/><path class="cls-2" d="M1088.38,412.36s-18.45,6.06-5.88,37.87c0,0,2.21,1.77,6.07.33,0,0-4.19-10.6,1.22-16.23C1089.81,434.33,1093.13,418.87,1088.38,412.36Z"/><path class="cls-2" d="M1128.3,558.78s3.87-1.43,4.2-7.51c0,0-8.39-12.15-13.36-11.6s-5.56,2.3-5.56,2.3Z"/><path class="cls-4" d="M1115.61,542.19s-.22-2,4.64-3.53c0,0,7.4,3.21,10.15,9.94,0,0-1.66,3.2-3.54,4.42C1126.87,553,1115.94,545.18,1115.61,542.19Z"/><path class="cls-2" d="M1127.71,385.88s-35.13,19-41,29.68c0,0-4,9.49-.12,17.12,0,0,16.21,37.45,55.29,54.26,0,0,19.21,10,41.2-9.58,0,0,21.44-24.5,21.56-41.62a23.13,23.13,0,0,0-3-8.73s-21.73-41.87-41.49-47.73C1160.18,379.27,1147.6,374.62,1127.71,385.88Z"/><ellipse class="cls-6" cx="1118.29" cy="446.28" rx="15.64" ry="20" transform="matrix(0.82, -0.57, 0.57, 0.82, -54.78, 717.63)"/><circle class="cls-4" cx="1162" cy="415" r="20" transform="translate(715.43 1565.24) rotate(-88.44)"/><path class="cls-4" d="M1114.45,536.77s-.87,7-9.85,8.18c0,0-7,.13-8.13-6.85,0,0,9.93-4.18,10.89-6.2Z"/><path class="cls-4" d="M1106.69,534.76s-4.65,6.9-10.67,6c0,0-5.07-4-6.17-9.43h0s9-1.62,9.94-3.64h0l6.9,7.07"/><path class="cls-4" d="M1092.62,520.11s-8,2.14-8.94,3.16,2.06,7.88,5.1,9.83,8.52-2.31,8.52-2.31l-4.66-9.8"/><path class="cls-4" d="M1097.08,516.13s-1.41-7.68.59-10.12a9.13,9.13,0,0,1,8.19,1s5,6.36,3.24,11Z"/><path class="cls-2" d="M1104.45,510.9l-11.84,9.22s4.32,17.92,18.39,21.67c0,0,7.93-4.14,10.82-10.2a12.13,12.13,0,0,0,.91-5c-.09-5.1-9.23-12.84-12.29-15.78A5.64,5.64,0,0,0,1104.45,510.9Z"/><circle class="cls-4" cx="1151.5" cy="476.5" r="13.5" transform="translate(-3.11 7.59) rotate(-0.38)"/><path class="cls-2" d="M1137.36,427.35a224.18,224.18,0,0,0,.68,40.12s16.57,7.36,28.51,6.17c0,0,14.68-9.45,19.47-42.09,0,0,2.59-14.33-30.54-14C1155.47,417.5,1137.46,418.29,1137.36,427.35Z"/><path class="cls-2" d="M1174.34,384.4s18,11.45,9.46,27.4c-.47.88-7.73,10.91-9.74,15.59,0,0-12.26,3.69-20.18-4.2a23,23,0,0,0-13.7-17.41s-3.44-10.87,7.8-20.13A22.9,22.9,0,0,1,1174.34,384.4Z"/><path class="cls-2" d="M1126.81,475.12s-19.1,32.25-20.12,36.61c0,0,9.71,12.73,18.31,12.51,0,0,28.42-6.08,35.5-28.3a11.68,11.68,0,0,0-2.07-8.76s-10.79-14.16-24.93-15.82C1133.49,471.34,1129,471.51,1126.81,475.12Z"/><path class="cls-4" d="M1111.5,563.1a10.76,10.76,0,0,0,4.9,4.12s12-1.37,13.73-7.84a6.46,6.46,0,0,0-3.92-4.32S1119.74,563.5,1111.5,563.1Z"/><path class="cls-4" d="M1106.6,559a7.1,7.1,0,0,0,5.1,5.1s12-1.37,14.51-9a10.82,10.82,0,0,0-4.31-6.28S1112.88,559.77,1106.6,559Z"/><path class="cls-4" d="M1103.08,551.62s.19,6.08,4.7,8.24c0,0,14.71-2.94,15.1-11.17,0,0-2.74-3.53-4.9-4.12C1118,544.56,1106.22,552,1103.08,551.62Z"/><path class="cls-2" d="M1082.23,347.76s-7.68-27.51-10.52-31.35l-.62.32s8.09,30.22,9.15,31.16A1.39,1.39,0,0,0,1082.23,347.76Z"/><circle class="cls-2" cx="1070.66" cy="313.2" r="3.75" transform="translate(-18.42 71.72) rotate(-3.8)"/><path class="cls-2" d="M1113.51,331.62s-29.45,2.66-36.33,7.83-13.76,21.65-8.73,45.87c4.46,21.47,20,22.52,20,22.52s38-1.1,55.53-20.52c0,0,7.56-7.77.17-23.6s-23.93-29.45-23.93-29.45A10.12,10.12,0,0,0,1113.51,331.62Z"/><path class="cls-8" d="M1067.81,362.31s11.55-9.62,28.68-4.75c0,0,8.16,2.73,8.08,7.73,0,0,3.29,19.85,6.59,26.11,0,0-.08,5-8.32,7.27,0,0-20.5,6.56-27.23,2C1075.61,400.67,1063.23,386.64,1067.81,362.31Z"/><path class="cls-9" d="M1095.85,367s-8.15,7.25-10.39,11.66c0,0-1.06,3.84,1,5.07,0,0,11.81-5.69,11.26-9.86A19.22,19.22,0,0,0,1095.85,367Z"/><path class="cls-10" d="M1143.5,475.5s0-4,2-5"/><path class="cls-9" d="M1067.91,375.21a40,40,0,0,1,8,5.77s2,3,1,5c0,0-6.4-.3-8-3.78A13.39,13.39,0,0,1,1067.91,375.21Z"/><path class="cls-4" d="M1117.14,367.29s2.78,14,3.29,19.85c0,0,.29,7.21,6.9,6.11,0,0,19.93-8.29,20.82-13.87a29.37,29.37,0,0,0-10.33-29.57s-4.33-4.27-18.76,9.9C1119.06,359.72,1115.6,363.46,1117.14,367.29Z"/><path class="cls-2" d="M1121.89,366.77s3.25,13.24,4.06,18.66c0,0,.79,7,6.24,5.7,0,0,16.65-7.53,17.25-12.51,0,0,3.71-15.2-10-26.85,0,0-3.93-4-16.11,8.28C1123.33,360,1120.42,363.29,1121.89,366.77Z"/><path class="cls-11" d="M1113.31,490s-1.14,5.5-.23,9.25"/><path class="cls-4" d="M1255.52,605.93s12.89,8.75,10.66,19.71l-26.85,9.31s-14.9-15.22-10.48-25.73Z"/><path class="cls-2" d="M1298.23,741.66s4.63,14.82,4.27,29.85l-66.94,2.83s-8.33-7.65,1.58-10.08l28.72-7.22a43.59,43.59,0,0,1,11.23-18.49Z"/><path class="cls-4" d="M1291.07,738s-8.87,3.38-13.35,15.58c0,0-1.83,4.08-5.87,3.25l-5.08-1.79s8.19-19.36,16.14-20.7Z"/><path class="cls-5" d="M1265.09,757.24s8.51-.52,16.31,15.16"/><path class="cls-4" d="M1193.83,530.89a19.47,19.47,0,0,1,0-18.11c5.06-9.51,23.82-15.52,29.13-8.9Z"/><path class="cls-2" d="M1233.48,625.75s25,1,32.45-.5c0,0,9.68-1.81,13.45,8.95,0,0,2.83,37.12,23.3,105.6,0,0-10.41,9.21-29.73-2.43C1272.94,737.36,1227.9,660,1233.48,625.75Z"/><path class="cls-2" d="M1255.75,544.52s-2,29.58,7.25,59.48c0,0-16.94,6-36,11,0,0-29.49-44.49-37.31-83.27,0,0-3-22.53,24.48-29.17,0,0,11.83-2.56,22.83,1.44C1237,504,1257,513,1255.75,544.52Z"/><path class="cls-2" d="M1217.09,606s.33,25.27,12.12,39c0,0,4.43,5.51,14.09-1.89a6.3,6.3,0,0,0,1.86-7.85,28.34,28.34,0,0,0-8.08-8.92s-5.8-4-10.51-18c0,0-1.3-3.49-3-4.14C1223.59,604.18,1220.51,602.35,1217.09,606Z"/><path class="cls-10" d="M1262.79,624.65s-.29-12.16-9.77-16.54"/><path class="cls-3" d="M972.93,395.17l5.91-16.06s-2.68-1.67-5.1-.19l-7.19,8.56s-2.64,2.45-2.57,10.7Z"/><path class="cls-3" d="M977.27,407.9l15,8.31s-.94,3-3.73,3.47l-11-1.79s-3.6-.13-8.93-6.43Z"/><path class="cls-12" d="M977.17,407.5c1,.23,212.79-68.26,212.79-68.26l-23.34-5.6L973.9,395.4Z"/><polygon class="cls-3" points="980.83 409.4 975.07 390.54 960.09 397.23 964.61 412.71 980.83 409.4"/><path class="cls-2" d="M956,428s8-1,4-14c0,0-20-2-29,4,0,0,2,12,10,12Z"/><path class="cls-4" d="M936,405s-8-1-10,4c0,0,0,8,6,12,0,0,6,1,9-3Z"/><path class="cls-4" d="M944,401s-8-1-10,4c0,0,1,10,7,13l7-3Z"/><path class="cls-4" d="M954,399a9.78,9.78,0,0,0-11,2s1,11,3,13c0,0,10,.71,11-1.64h0Z"/><path class="cls-4" d="M949,417s2,5,9,4c0,0,6-4,2-12,0,0-2-5-7,0Z"/><path class="cls-2" d="M945,468s16,7,24-3c0,0,4-5,2-13,0,0-4-15-13-27,0,0-9-7-17,5,0,0-2,19,4,37"/><path class="cls-4" d="M948,475s16,3,18-11a10.6,10.6,0,0,0-7-11"/><path class="cls-4" d="M920.66,525.93s-.1,10.2-2.1,14.89c0,0-28.12,7.38-62.07-11,0,0,3.44-11.54,5-14.27Z"/><path class="cls-4" d="M925,506s2.89,5.71,1.35,22.76c0,0-17.92,7.48-65.62-8.66,0,0-4-15.14-6.3-18.69C854.46,501.38,911.16,499,925,506Z"/><path class="cls-2" d="M893.59,407.41s-28.38-6-67.36,9.37c0,0-14.41,10.26-8.28,24.83,0,0,17,45.47,33.72,63.28,0,0,2.32,3.55,10,1.08s30-1.87,56.61,7.79c0,0,13.86,7,16-13,0,0,6.86-61.91-30.55-88.15C903.74,412.61,897.5,408.23,893.59,407.41Z"/><path class="cls-2" d="M838.37,350.32s22.53-11,31.1-10.29,28.39,14.57,35.46,38.27-10.14,33.9-10.14,33.9-29.09,19.56-54.26,12.38c0,0-12-4.53-14.11-21.86s7.82-47.63,7.82-47.63A8.76,8.76,0,0,1,838.37,350.32Z"/><path class="cls-8" d="M885.13,348.26l-1.18.78c-3.45,2.26-1.38,1.9,1.68,7.06,0,0,13.11,19.76,13.9,30.91,0,0,.53,7.26,6.13,4.87,0,0,1.09-.3.94-1.27C906.6,390.62,907.14,367.77,885.13,348.26Z"/><path class="cls-4" d="M888.06,371.27s9.6,10.24,12.31,18.34c0,0,1.3,8-7.09,13.48,0,0-14.61,10.56-28.53,7.69a7.2,7.2,0,0,1-4.41-5.44s-3.53-13.88-2.17-20.13c0,0,.44-4.22,5.73-7.22,0,0,12.13-7.27,17.91-8.09C881.8,369.91,886.17,368.94,888.06,371.27Z"/><path class="cls-2" d="M889.62,373.18s9.21,9.88,11.9,17.61c0,0,1.36,7.57-6.46,12.68,0,0-13.59,9.79-26.75,6.83a7.15,7.15,0,0,1-4.24-5.23s-3.56-13.23-2.37-19.14c0,0,.34-4,5.28-6.76,0,0,11.31-6.7,16.74-7.38C883.7,371.78,887.8,370.93,889.62,373.18Z"/><path class="cls-13" d="M899.28,368.58a10.76,10.76,0,0,0-2.9-5.71s-2.73-1.59-4.89-1c0,0,1.14,4.32,3.88,5.91Z"/><path class="cls-2" d="M861.9,354.63s-12.79-25.53-13.27-30.29l.68-.18s14.32,27.82,14.16,29.22A1.39,1.39,0,0,1,861.9,354.63Z"/><circle class="cls-2" cx="847.25" cy="321.26" r="3.75" transform="translate(-16.23 595.94) rotate(-38.41)"/><path class="cls-2" d="M926.8,427.23S956.33,438.58,961,452c0,0,4.14,14.63-11,24,0,0-8.71,7.64-47.12-9.61,0,0-19.63-10.38-.36-31C902.52,435.38,913.65,422.42,926.8,427.23Z"/><path class="cls-2" d="M886,416.79s15-15.18,28.79-3.4C915.58,414,925,422,928,426.22c0,0,1,12.77-8.4,18.83a23,23,0,0,0-19.93,9.68s-11.35,1-18-11.91A22.9,22.9,0,0,1,886,416.79Z"/><path class="cls-10" d="M956,470a8.66,8.66,0,0,0,8.5-2.5"/><path class="cls-4" d="M956.45,417.29s2.39-6.27-2.08-10.85c0,0-9.85,2-13.54,5.37,0,0,.69,7,2.78,7.76C943.61,419.57,953.66,419.57,956.45,417.29Z"/><path class="cls-4" d="M954.68,631.08s-3.46,7.49,2.45,16.09L983,639s-1.74-18.62-10-22.7S954.68,631.08,954.68,631.08Z"/><path class="cls-2" d="M878.81,567.45c11.29-25.87,37.7-19.72,37.7-19.72,36.94,14.16,61.92,68.66,61.92,68.66-8.08,18-25.65,23.44-25.65,23.44S902.14,599.07,882.34,587C882.34,587,874.25,577.9,878.81,567.45Z"/><path class="cls-4" d="M821.75,633.17S808.91,636.8,809.33,648l20.22,14s14.73-12.64,12.07-23.73Z"/><path class="cls-2" d="M913,741s-4,15-3,30h67s8-8-2-10l-29-6a43.59,43.59,0,0,0-12-18Z"/><path class="cls-4" d="M920,737s9,3,14,15c0,0,2,4,6,3l5-2s-9-19-17-20Z"/><path class="cls-5" d="M946.78,755.16S938.25,755,931.13,771"/><path class="cls-2" d="M738.25,770.41,784,772s7.66-9-2.27-11.33l-28.77-7a43.59,43.59,0,0,0-11.36-18.41S735,727,734,726s-21,15-24.75,24Z"/><path class="cls-4" d="M735,732s7.71,5.2,10,18c0,0,.88,5.11,5,5l3-1s-4.91-20-12.5-22.71Z"/><path class="cls-5" d="M754,754s-11,3-16,16"/><path class="cls-2" d="M985.89,639.6s-25,.7-32.44-.89c0,0-9.66-1.93-13.56,8.78,0,0-7.61,23.28-28.9,91.51,0,0,16.4,6.93,32.78,6.27C943.78,745.27,991.06,673.86,985.89,639.6Z"/><path class="cls-2" d="M990.51,613.11s8.2,20.34,2.44,37.51c0,0-2,6.77-13.77,3.54a6.3,6.3,0,0,1-4.67-6.57,28.34,28.34,0,0,1,4.14-11.31s3.85-5.93,3-20.67c0,0-.62-5.8,1.2-5A27.67,27.67,0,0,1,990.51,613.11Z"/><path class="cls-2" d="M859.84,528.49,915.06,538s12.15.51,12.11,5.61c0,0,5.63,26.73-2.14,39.4,0,0-21.36,19-58.5,6.11,0,0-34.57-15.43-20.07-55.3C846.45,533.86,849.07,526.23,859.84,528.49Z"/><path class="cls-4" d="M912,582s1.64-12.52-5-21-30.92-13.44-35-6Z"/><path class="cls-2" d="M837.34,653.27s53.56-23.59,73.4-57.81c0,0,10.49-20.57-13.37-35.66,0,0-16.2-9.59-32.59-7.6l-.63.08c-16.6,2.33-22.48,31.76-22.48,31.76s-3.1,18.75-21.47,44.09C820.2,628.14,820.88,642.45,837.34,653.27Z"/><path class="cls-2" d="M838.41,659.39s-22.77-10.32-28.77-15c0,0-7.84-6-16,2,0,0-16.57,22.68-65.61,74.67,0,0,3,16,21,21C749,742,828,692.46,838.41,659.39Z"/><path class="cls-2" d="M856,645.07s-5.46,21.24-20.28,31.65c0,0-5.66,4.24-13.18-5.32a6.3,6.3,0,0,1,.14-8.06,28.34,28.34,0,0,1,10-6.65s6.62-2.49,14.65-14.88c0,0,2.94-5,3.9-3.28A27.67,27.67,0,0,1,856,645.07Z"/><path class="cls-10" d="M813.5,647.5c.5-.5,1-8,10-10"/></g></svg>