<svg xmlns="http://www.w3.org/2000/svg" viewBox="0 0 1920 1080"><defs><style>.cls-1,.cls-10,.cls-5{fill:none;}.cls-2{fill:#e2e2e2;}.cls-10,.cls-11,.cls-2,.cls-3,.cls-4,.cls-5,.cls-8{stroke:#1b1f32;}.cls-10,.cls-11,.cls-12,.cls-13,.cls-2,.cls-3,.cls-4,.cls-5,.cls-7,.cls-8,.cls-9{stroke-miterlimit:10;}.cls-12,.cls-2,.cls-3,.cls-4,.cls-5,.cls-7,.cls-8{stroke-width:2px;}.cls-3{fill:#595462;}.cls-11,.cls-4,.cls-6{fill:#403c47;}.cls-7,.cls-9{fill:#00adab;stroke:#007774;}.cls-8{fill:#101218;}.cls-12,.cls-13{fill:#ffcc62;stroke:#ff9d00;}</style></defs><title>AI_Loader_14</title><g id="Layer_31" data-name="Layer 31"><rect class="cls-1" width="1920" height="1080"/></g><g id="_12" data-name="12"><path class="cls-2" d="M1173,358.63s12.79-25.53,13.27-30.29l-.68-.18s-14.32,27.82-14.16,29.22A1.39,1.39,0,0,0,1173,358.63Z"/><circle class="cls-2" cx="1187.68" cy="325.26" r="3.75" transform="translate(194.89 1053.79) rotate(-51.59)"/><path class="cls-3" d="M937.6,522.53c-1.06.93-41.69,54.36-41.69,54.36s-7.78-3.52-9.45-8.65l40.63-53.43Z"/><path class="cls-4" d="M883.45,614.54s15.12,2.32,17.25,27.25c0,0-23.8,5.08-29.06-.69s-6-22.75-6-22.75Z"/><path class="cls-2" d="M816.48,538c18.64-21.2,41.41-13.21,41.41-13.21C888.76,549.54,896.45,615,896.45,615c-13.17,14.65-31.57,14.5-31.57,14.5s-35.81-54.25-51-71.79C813.89,557.68,809,546.57,816.48,538Z"/><path class="cls-2" d="M873.7,739.66s-4.63,14.82-4.27,29.85l66.94,2.83s8.33-7.65-1.58-10.08L906.07,755a43.59,43.59,0,0,0-11.23-18.49Z"/><path class="cls-4" d="M880.86,736s8.87,3.38,13.35,15.58c0,0,1.83,4.08,5.87,3.25l5.08-1.79S897,733.64,889,732.3Z"/><path class="cls-5" d="M906.84,755.24s-8.51-.52-16.31,15.16"/><path class="cls-2" d="M898.89,627s-22.66,10.57-30.12,12.07c0,0-9.63,2.06-9,13.45,0,0,4.32,22.17,11.87,93.24,0,0,15.74,2.07,30.52-5C902.2,740.69,917.24,656.39,898.89,627Z"/><path class="cls-2" d="M898.47,596.38s11.72,18.54,9.13,36.46c0,0-.79,7-12.91,5.95a6.3,6.3,0,0,1-5.77-5.63,28.34,28.34,0,0,1,2-11.87s2.73-6.52-.78-20.87c0,0-1.65-5.59.29-5.09A27.67,27.67,0,0,1,898.47,596.38Z"/><circle class="cls-4" cx="899.39" cy="494.52" r="13.5" transform="translate(-46.74 892.37) rotate(-51.61)"/><path class="cls-2" d="M915.69,508.64s-4.82,37.17-6.69,41.23c0,0-16.44,6.6-23.07,1.13,0,0-17.7-24.84-9.59-46.71a11.68,11.68,0,0,1,7-5.63s17.22-4.51,29.39,2.88C912.75,501.55,916.16,504.42,915.69,508.64Z"/><path class="cls-2" d="M785.55,480.86s-6.61,13-9.89,24.56c0,0-1.48,18,32.7,30.83S854,531.92,854,531.92s5.05-10.22,4.19-26.69c0,0,0-5.1-10.63-8.19L795,479.64S787.3,477.13,785.55,480.86Z"/><path class="cls-4" d="M802.6,466.35A85.86,85.86,0,0,0,795.74,484s25.62,15.55,57.19,16c0,0,.19-5.85,0-10Z"/><path class="cls-4" d="M816.93,436s-13.58,12.7-17,29.38c0,0,24.77,21.36,55.1,31.39a147.23,147.23,0,0,0,21-16.86Z"/><path class="cls-6" d="M926.8,432s11.49,5.29,6.86,19.87c0,0-8.5,4.09-12.92-1.43Z"/><path class="cls-2" d="M920.18,447.4c1,.11,8.84,2,11.49,5.29,0,0-5.58,28.26-14.49,36.57,0,0-15.74,2.59-23.25-2.27,0,0,4.28-32,10-38.38A52.41,52.41,0,0,1,920.18,447.4Z"/><path class="cls-2" d="M931.55,412.36s18.45,6.06,5.88,37.87c0,0-2.21,1.77-6.07.33,0,0,4.19-10.6-1.22-16.23C930.12,434.33,926.8,418.87,931.55,412.36Z"/><path class="cls-2" d="M891.63,558.78s-3.87-1.43-4.2-7.51c0,0,8.39-12.15,13.36-11.6s5.56,2.3,5.56,2.3Z"/><path class="cls-4" d="M904.32,542.19s.22-2-4.64-3.53c0,0-7.4,3.21-10.15,9.94,0,0,1.66,3.2,3.54,4.42C893.06,553,904,545.18,904.32,542.19Z"/><path class="cls-2" d="M892.22,385.88s35.13,19,41,29.68c0,0,4,9.49.12,17.12,0,0-16.21,37.45-55.29,54.26,0,0-19.21,10-41.2-9.58,0,0-21.44-24.5-21.56-41.62a23.13,23.13,0,0,1,3-8.73s21.73-41.87,41.49-47.73C859.75,379.27,872.33,374.62,892.22,385.88Z"/><ellipse class="cls-7" cx="901.64" cy="446.28" rx="20" ry="15.64" transform="matrix(0.57, -0.82, 0.82, 0.57, 20.77, 932.27)"/><circle class="cls-4" cx="857.93" cy="415" r="20" transform="translate(-11.01 23.58) rotate(-1.56)"/><path class="cls-4" d="M905.48,536.77s.87,7,9.85,8.18c0,0,7,.13,8.13-6.85,0,0-9.93-4.18-10.89-6.2Z"/><path class="cls-4" d="M913.24,534.76s4.65,6.9,10.67,6c0,0,5.07-4,6.17-9.43h0s-9-1.62-9.94-3.64h0l-6.9,7.07"/><path class="cls-4" d="M927.31,520.11s8,2.14,8.94,3.16-2.06,7.88-5.1,9.83-8.52-2.31-8.52-2.31l4.66-9.8"/><path class="cls-4" d="M922.85,516.13s1.41-7.68-.59-10.12a9.13,9.13,0,0,0-8.19,1s-5,6.36-3.24,11Z"/><path class="cls-2" d="M915.48,510.9l11.84,9.22S923,538,908.92,541.79c0,0-7.93-4.14-10.82-10.2a12.13,12.13,0,0,1-.91-5c.09-5.1,9.23-12.84,12.29-15.78A5.64,5.64,0,0,1,915.48,510.9Z"/><circle class="cls-4" cx="868.43" cy="476.5" r="13.5" transform="translate(386.23 1341.78) rotate(-89.62)"/><path class="cls-2" d="M882.57,427.35a224.18,224.18,0,0,1-.68,40.12s-16.57,7.36-28.51,6.17c0,0-14.68-9.45-19.47-42.09,0,0-2.59-14.33,30.54-14C864.46,417.5,882.47,418.29,882.57,427.35Z"/><path class="cls-2" d="M845.59,384.4s-18,11.45-9.46,27.4c.47.88,7.73,10.91,9.74,15.59,0,0,12.26,3.69,20.18-4.2a23,23,0,0,1,13.7-17.41s3.44-10.87-7.8-20.13A22.9,22.9,0,0,0,845.59,384.4Z"/><path class="cls-2" d="M893.12,475.12s19.1,32.25,20.12,36.61c0,0-9.71,12.73-18.31,12.51,0,0-28.42-6.08-35.5-28.3a11.68,11.68,0,0,1,2.07-8.76S872.3,473,886.44,471.34C886.44,471.34,890.89,471.51,893.12,475.12Z"/><path class="cls-4" d="M908.43,563.1a10.76,10.76,0,0,1-4.9,4.12s-12-1.37-13.73-7.84a6.46,6.46,0,0,1,3.92-4.32S900.19,563.5,908.43,563.1Z"/><path class="cls-4" d="M913.33,559a7.1,7.1,0,0,1-5.1,5.1s-12-1.37-14.51-9a10.82,10.82,0,0,1,4.31-6.28S907.05,559.77,913.33,559Z"/><path class="cls-4" d="M916.85,551.62s-.19,6.08-4.7,8.24c0,0-14.71-2.94-15.1-11.17,0,0,2.74-3.53,4.9-4.12C901.94,544.56,913.71,552,916.85,551.62Z"/><path class="cls-2" d="M906.42,331.62s29.45,2.66,36.33,7.83,13.76,21.65,8.73,45.87c-4.46,21.47-20,22.52-20,22.52s-38-1.1-55.53-20.52c0,0-7.56-7.77-.17-23.6s23.93-29.45,23.93-29.45A10.12,10.12,0,0,1,906.42,331.62Z"/><path class="cls-8" d="M952.12,362.31s-11.55-9.62-28.68-4.75c0,0-8.16,2.73-8.08,7.73,0,0-3.29,19.85-6.59,26.11,0,0,.08,5,8.32,7.27,0,0,20.5,6.56,27.23,2C944.32,400.67,956.7,386.64,952.12,362.31Z"/><path class="cls-9" d="M924.08,367s8.15,7.25,10.39,11.66c0,0,1.06,3.84-1,5.07,0,0-11.81-5.69-11.26-9.86A19.22,19.22,0,0,1,924.08,367Z"/><path class="cls-10" d="M876.43,475.5s0-4-2-5"/><path class="cls-9" d="M952,375.21a40,40,0,0,0-8,5.77s-2,3-1,5c0,0,6.4-.3,8-3.78A13.39,13.39,0,0,0,952,375.21Z"/><path class="cls-4" d="M902.79,367.29s-2.78,14-3.29,19.85c0,0-.29,7.21-6.9,6.11,0,0-19.93-8.29-20.82-13.87a29.37,29.37,0,0,1,10.33-29.57s4.33-4.27,18.76,9.9C900.87,359.72,904.33,363.46,902.79,367.29Z"/><path class="cls-2" d="M898,366.77S894.79,380,894,385.43c0,0-.79,7-6.24,5.7,0,0-16.65-7.53-17.25-12.51,0,0-3.71-15.2,10-26.85,0,0,3.93-4,16.11,8.28C896.6,360,899.51,363.29,898,366.77Z"/><path class="cls-11" d="M906.62,490s1.14,5.5.23,9.25"/><path class="cls-4" d="M764.41,605.93s-12.89,8.75-10.66,19.71l26.85,9.31s14.9-15.22,10.48-25.73Z"/><path class="cls-2" d="M721.7,741.66s-4.63,14.82-4.27,29.85l66.94,2.83s8.33-7.65-1.58-10.08L754.07,757a43.59,43.59,0,0,0-11.23-18.49Z"/><path class="cls-4" d="M728.86,738s8.87,3.38,13.35,15.58c0,0,1.83,4.08,5.87,3.25l5.08-1.79S745,735.64,737,734.3Z"/><path class="cls-5" d="M754.84,757.24s-8.51-.52-16.31,15.16"/><path class="cls-4" d="M826.1,530.89a19.47,19.47,0,0,0,0-18.11c-5.06-9.51-23.82-15.52-29.13-8.9Z"/><path class="cls-2" d="M786.45,625.75s-25,1-32.45-.5c0,0-9.68-1.81-13.45,8.95,0,0-2.83,37.12-23.3,105.6,0,0,10.41,9.21,29.73-2.43C747,737.36,792,660,786.45,625.75Z"/><path class="cls-2" d="M764.18,544.52s2,29.58-7.25,59.48c0,0,16.94,6,36,11,0,0,29.49-44.49,37.31-83.27,0,0,3-22.53-24.48-29.17,0,0-11.83-2.56-22.83,1.44C782.93,504,762.93,513,764.18,544.52Z"/><path class="cls-2" d="M802.84,606s-.33,25.27-12.12,39c0,0-4.43,5.51-14.09-1.89a6.3,6.3,0,0,1-1.86-7.85,28.34,28.34,0,0,1,8.08-8.92s5.8-4,10.51-18c0,0,1.3-3.49,3-4.14C796.34,604.18,799.42,602.35,802.84,606Z"/><path class="cls-10" d="M757.14,624.65s.29-12.16,9.77-16.54"/><path class="cls-3" d="M944.25,513l17.1-.87s.8,3.06-1.33,4.92l-10.31,4.33s-3.13,1.8-11-.73Z"/><path class="cls-3" d="M933.39,505l-3.49-16.76s-3.16,0-4.43,2.53l-1.57,11.07s-.95,3.48,3.49,10.43Z"/><path class="cls-7" d="M933.74,505.24c.07-1,128.4-182.89,128.4-182.89l-1.59,23.95L944.32,512Z"/><polygon class="cls-3" points="933.01 501.18 949.31 512.29 938.47 524.6 925.03 515.69 933.01 501.18"/><path class="cls-2" d="M1189.93,408s15,1,19,18c0,0,4,21-14,25,0,0-10-31-5-42"/><path class="cls-4" d="M1100.93,406s-10,3-11,5l13,4Z"/><path class="cls-2" d="M1105.93,418s-8-8-7-12c0,0,2-8,22,0,0,0,8,8,1,11S1105.93,418,1105.93,418Z"/><polygon class="cls-12" points="1038.59 406.77 830.04 338.91 855.75 334 1042.77 395.43 1038.59 406.77"/><path class="cls-3" d="M1049.26,411.41c-.33-.39,74.68,24.17,74.68,24.17s5.76-3.43,4.1-12.33l-76-24.48-2.78,12.65"/><path class="cls-3" d="M1043.33,389.37l1.11-12.11s6-.44,8.27,3.4a94.42,94.42,0,0,0,0,14S1042.55,392.44,1043.33,389.37Z"/><path class="cls-3" d="M1034.19,415.11s6.2,2.55,14.81-3.1l4.66-18.39s-5.43-5.62-11.41-5.18Z"/><path class="cls-2" d="M1063.93,428s-8-1-4-14c0,0,20-2,29,4,0,0-2,12-10,12Z"/><path class="cls-4" d="M1083.93,405s8-1,10,4c0,0,0,8-6,12,0,0-6,1-9-3Z"/><path class="cls-4" d="M1075.93,401s8-1,10,4c0,0-1,10-7,13l-7-3Z"/><path class="cls-4" d="M1065.93,399a9.78,9.78,0,0,1,11,2s-1,11-3,13c0,0-10,.71-11-1.64h0Z"/><path class="cls-4" d="M1070.93,417s-2,5-9,4c0,0-6-4-2-12,0,0,2-5,7,0Z"/><path class="cls-2" d="M1074.93,468s-16,7-24-3c0,0-4-5-2-13,0,0,4-15,13-27,0,0,9-7,17,5,0,0,2,19-4,37"/><path class="cls-4" d="M1071.93,475s-16,3-18-11a10.6,10.6,0,0,1,7-11"/><path class="cls-4" d="M1099.27,525.93s.1,10.2,2.1,14.89c0,0,28.12,7.38,62.07-11,0,0-3.44-11.54-5-14.27Z"/><path class="cls-4" d="M1094.91,506s-2.89,5.71-1.35,22.76c0,0,17.92,7.48,65.62-8.66,0,0,4-15.14,6.3-18.69C1165.47,501.38,1108.77,499,1094.91,506Z"/><path class="cls-2" d="M1126.34,407.41s28.38-6,67.36,9.37c0,0,14.41,10.26,8.28,24.83,0,0-17,45.47-33.72,63.28,0,0-2.32,3.55-10,1.08s-30-1.87-56.61,7.79c0,0-13.86,7-16-13,0,0-6.86-61.91,30.55-88.15C1116.19,412.61,1122.43,408.23,1126.34,407.41Z"/><path class="cls-2" d="M1181.56,350.32s-22.53-11-31.1-10.29-28.39,14.57-35.46,38.27,10.14,33.9,10.14,33.9,29.09,19.56,54.26,12.38c0,0,12-4.53,14.11-21.86s-7.82-47.63-7.82-47.63A8.76,8.76,0,0,0,1181.56,350.32Z"/><path class="cls-8" d="M1134.8,348.26l1.18.78c3.45,2.26,1.38,1.9-1.68,7.06,0,0-13.11,19.76-13.9,30.91,0,0-.53,7.26-6.13,4.87,0,0-1.09-.3-.94-1.27C1113.33,390.62,1112.79,367.77,1134.8,348.26Z"/><path class="cls-4" d="M1131.87,371.27s-9.6,10.24-12.31,18.34c0,0-1.3,8,7.09,13.48,0,0,14.61,10.56,28.53,7.69a7.2,7.2,0,0,0,4.41-5.44s3.53-13.88,2.17-20.13c0,0-.44-4.22-5.73-7.22,0,0-12.13-7.27-17.91-8.09C1138.13,369.91,1133.76,368.94,1131.87,371.27Z"/><path class="cls-2" d="M1130.31,373.18s-9.21,9.88-11.9,17.61c0,0-1.36,7.57,6.46,12.68,0,0,13.59,9.79,26.75,6.83a7.15,7.15,0,0,0,4.24-5.23s3.56-13.23,2.37-19.14c0,0-.34-4-5.28-6.76,0,0-11.31-6.7-16.74-7.38C1136.23,371.78,1132.13,370.93,1130.31,373.18Z"/><path class="cls-13" d="M1120.65,368.58a10.76,10.76,0,0,1,2.9-5.71s2.73-1.59,4.89-1c0,0-1.14,4.32-3.88,5.91Z"/><path class="cls-2" d="M1093.13,427.23s-29.53,11.35-34.2,24.77c0,0-4.14,14.63,11,24,0,0,8.71,7.64,47.12-9.61,0,0,19.63-10.38.36-31C1117.41,435.38,1106.28,422.42,1093.13,427.23Z"/><path class="cls-2" d="M1133.9,416.79s-15-15.18-28.79-3.4c-.76.65-10.18,8.62-13.16,12.84,0,0-1,12.77,8.4,18.83a23,23,0,0,1,19.93,9.68s11.35,1,18-11.91A22.9,22.9,0,0,0,1133.9,416.79Z"/><path class="cls-10" d="M1063.93,470a8.66,8.66,0,0,1-8.5-2.5"/><path class="cls-4" d="M1063.48,417.29s-2.39-6.27,2.08-10.85c0,0,9.85,2,13.54,5.37,0,0-.69,7-2.78,7.76C1076.32,419.57,1066.27,419.57,1063.48,417.29Z"/><path class="cls-4" d="M1065.25,631.08s3.46,7.49-2.45,16.09L1036.93,639s1.74-18.62,10-22.7S1065.25,631.08,1065.25,631.08Z"/><path class="cls-2" d="M1141.12,567.45c-11.29-25.87-37.7-19.72-37.7-19.72-36.94,14.16-61.92,68.66-61.92,68.66,8.08,18,25.65,23.44,25.65,23.44s50.64-40.76,70.43-52.84C1137.59,587,1145.68,577.9,1141.12,567.45Z"/><path class="cls-4" d="M1198.18,633.17S1211,636.8,1210.6,648l-20.22,14s-14.73-12.64-12.07-23.73Z"/><path class="cls-2" d="M1106.93,741s4,15,3,30h-67s-8-8,2-10l29-6a43.59,43.59,0,0,1,12-18Z"/><path class="cls-4" d="M1099.93,737s-9,3-14,15c0,0-2,4-6,3l-5-2s9-19,17-20Z"/><path class="cls-5" d="M1073.15,755.16s8.53-.16,15.65,15.84"/><path class="cls-2" d="M1281.68,770.41,1235.93,772s-7.66-9,2.27-11.33l28.77-7a43.59,43.59,0,0,1,11.36-18.41s6.61-8.24,7.61-9.24,21,15,24.75,24Z"/><path class="cls-4" d="M1284.93,732s-7.71,5.2-10,18c0,0-.88,5.11-5,5l-3-1s4.91-20,12.5-22.71Z"/><path class="cls-5" d="M1265.93,754s11,3,16,16"/><path class="cls-2" d="M1034,639.6s25,.7,32.44-.89c0,0,9.66-1.93,13.56,8.78,0,0,7.61,23.28,28.9,91.51,0,0-16.4,6.93-32.78,6.27C1076.15,745.27,1028.87,673.86,1034,639.6Z"/><path class="cls-2" d="M1029.42,613.11s-8.2,20.34-2.44,37.51c0,0,2,6.77,13.77,3.54a6.3,6.3,0,0,0,4.67-6.57,28.34,28.34,0,0,0-4.14-11.31s-3.85-5.93-3-20.67c0,0,.62-5.8-1.2-5A27.67,27.67,0,0,0,1029.42,613.11Z"/><path class="cls-2" d="M1160.09,528.49,1104.87,538s-12.15.51-12.11,5.61c0,0-5.63,26.73,2.14,39.4,0,0,21.36,19,58.5,6.11,0,0,34.57-15.43,20.07-55.3C1173.48,533.86,1170.86,526.23,1160.09,528.49Z"/><path class="cls-4" d="M1107.93,582s-1.64-12.52,5-21,30.92-13.44,35-6Z"/><path class="cls-2" d="M1182.59,653.27s-53.56-23.59-73.4-57.81c0,0-10.49-20.57,13.37-35.66,0,0,16.2-9.59,32.59-7.6l.63.08c16.6,2.33,22.48,31.76,22.48,31.76s3.1,18.75,21.47,44.09C1199.73,628.14,1199,642.45,1182.59,653.27Z"/><path class="cls-2" d="M1181.52,659.39s22.77-10.32,28.77-15c0,0,7.84-6,16,2,0,0,16.57,22.68,65.61,74.67,0,0-3,16-21,21C1270.93,742,1191.9,692.46,1181.52,659.39Z"/><path class="cls-2" d="M1163.93,645.07s5.46,21.24,20.28,31.65c0,0,5.66,4.24,13.18-5.32a6.3,6.3,0,0,0-.14-8.06,28.34,28.34,0,0,0-10-6.65s-6.62-2.49-14.65-14.88c0,0-2.94-5-3.9-3.28A27.67,27.67,0,0,0,1163.93,645.07Z"/><path class="cls-10" d="M1206.43,647.5c-.5-.5-1-8-10-10"/><path class="cls-2" d="M903.7,339.76s7.68-27.51,10.52-31.35l.62.32s-8.09,30.22-9.15,31.16A1.39,1.39,0,0,1,903.7,339.76Z"/><circle class="cls-2" cx="915.27" cy="305.2" r="3.75" transform="translate(550.01 1198.2) rotate(-86.2)"/></g></svg>