<svg xmlns="http://www.w3.org/2000/svg" viewBox="0 0 1920 1080"><defs><style>.cls-1,.cls-7,.cls-9{fill:none;}.cls-12,.cls-2{fill:#ffcc62;stroke:#ff9d00;}.cls-10,.cls-11,.cls-12,.cls-2,.cls-3,.cls-4,.cls-5,.cls-6,.cls-7,.cls-9{stroke-miterlimit:10;}.cls-10,.cls-2,.cls-3,.cls-4,.cls-5,.cls-6,.cls-7{stroke-width:2px;}.cls-3{fill:#595462;}.cls-10,.cls-3,.cls-4,.cls-6,.cls-7,.cls-9{stroke:#1b1f32;}.cls-4{fill:#e2e2e2;}.cls-11,.cls-5{fill:#00adab;stroke:#007774;}.cls-6,.cls-8{fill:#403c47;}.cls-10{fill:#101218;}</style></defs><title>AI_Loader_3</title><g id="Layer_31" data-name="Layer 31"><rect class="cls-1" width="1920" height="1080"/></g><g id="_3_-_1" data-name="3 - 1"><polygon class="cls-2" points="1118.13 486.63 995.66 304.7 998 330.76 1108.37 493.76 1118.13 486.63"/><path class="cls-3" d="M1125.52,495.62c-.47-.21,43.72,65.19,43.72,65.19s-1.72,6.48-10.74,7.33l-44.39-66.37,11.4-6.14"/><path class="cls-3" d="M1102.7,496l-11.34,4.39s1.22,5.88,5.54,7a94.42,94.42,0,0,1,13.51-3.82S1105.43,494.37,1102.7,496Z"/><path class="cls-3" d="M1124.94,480.11s4.16,5.27,1.09,15.09l-16.41,9.53s-6.89-3.68-8.11-9.55Z"/></g><g id="_3" data-name="3"><path class="cls-4" d="M1111.57,360s-9.21-27-12.26-30.71l-.6.36s9.76,29.73,10.88,30.6A1.39,1.39,0,0,0,1111.57,360Z"/><circle class="cls-4" cx="1098.09" cy="326.14" r="3.75" transform="translate(-31.59 136.43) rotate(-7.01)"/><path class="cls-3" d="M1002.29,501.37c-1,.95-40.77,55.05-40.77,55.05s-7.84-3.39-9.59-8.48l39.73-54.1Z"/><path class="cls-3" d="M1008.78,491.68l17.08-1.16s.85,3-1.25,4.94l-10.24,4.5s-3.1,1.85-11-.54Z"/><path class="cls-3" d="M997.78,483.93,994,467.24s-3.16.06-4.38,2.61l-1.39,11.09s-.89,3.49,3.66,10.37Z"/><path class="cls-5" d="M998.14,484.14c0-1,125.31-185,125.31-185l-1.19,24L1008.82,490.68Z"/><polygon class="cls-3" points="997.33 480.1 1013.82 490.93 1003.19 503.42 989.6 494.74 997.33 480.1"/><path class="cls-4" d="M1173.23,739.66s4.63,14.82,4.27,29.85l-66.94,2.83s-8.33-7.65,1.58-10.08l28.72-7.22a43.59,43.59,0,0,1,11.23-18.49Z"/><path class="cls-6" d="M1166.07,736s-8.87,3.38-13.35,15.58c0,0-1.83,4.08-5.87,3.25l-5.08-1.79s8.19-19.36,16.14-20.7Z"/><path class="cls-7" d="M1140.09,755.24s8.51-.52,16.31,15.16"/><path class="cls-6" d="M1186.8,619.59s-15.3-.21-21.52,24c0,0,22.63,8.94,28.77,4.13s9.71-21.44,9.71-21.44Z"/><path class="cls-4" d="M1258.68,550.52c-17.29-22.31-40.52-15.74-40.52-15.74-32.34,22.79-44,87.63-44,87.63,12.24,15.43,30.62,16.42,30.62,16.42s39.09-51.93,55.32-68.51C1260.05,570.32,1265.67,559.53,1258.68,550.52Z"/><path class="cls-4" d="M1169.51,629.31s20.6,14.17,27.71,16.88c0,0,9.16,3.63,6.61,14.74,0,0-7.93,21.14-27.14,90,0,0-15.87-.56-29.26-10C1147.43,740.9,1146.55,655.27,1169.51,629.31Z"/><path class="cls-4" d="M1175,599.19s-14.62,16.35-15,34.45c0,0-.38,7.06,11.75,8a6.3,6.3,0,0,0,6.62-4.6,28.34,28.34,0,0,0-.06-12s-1.61-6.89,4.22-20.45c0,0,2.55-5.24.56-5.07A27.67,27.67,0,0,0,1175,599.19Z"/><path class="cls-4" d="M1271.72,506.17s6.66,12.95,10,24.52c0,0,1.56,18-32.57,31s-45.69-4.15-45.69-4.15-5.09-10.2-4.3-26.67c0,0,0-5.1,10.6-8.23L1262.31,505S1270,502.45,1271.72,506.17Z"/><path class="cls-6" d="M1254.26,490.92s5.91,8.66,6.69,17.68c0,0-24.4,16.26-56,16.43,0,0-1.51-6.8-1.31-10.92Z"/><path class="cls-6" d="M1243.26,463.84a49,49,0,0,1,13.51,26.88s-25.91,20-56.76,28.28c0,0-17.11-8.22-20-18Z"/><path class="cls-6" d="M1300.67,614s14,6.85,13.33,18l-25.27,13s-16.9-13-14-24Z"/><path class="cls-4" d="M1366.23,741.66s4.63,14.82,4.27,29.85l-66.94,2.83s-8.33-7.65,1.58-10.08l28.72-7.22a43.59,43.59,0,0,1,11.23-18.49Z"/><path class="cls-6" d="M1359.07,738s-8.87,3.38-13.35,15.58c0,0-1.83,4.08-5.87,3.25l-5.08-1.79s8.19-19.36,16.14-20.7Z"/><path class="cls-7" d="M1333.09,757.24s8.51-.52,16.31,15.16"/><path class="cls-6" d="M1228.44,558.57a19.47,19.47,0,0,1-2.59-17.92c3.67-10.13,21.39-18.72,27.59-12.92Z"/><path class="cls-4" d="M1281.63,636.72s24.87-2.53,32.05-5.07c0,0,9.33-3.16,14.58,7,0,0,8,36.35,37.95,101.26,0,0-9,10.58-29.78,1.78C1336.43,741.66,1280.93,671.36,1281.63,636.72Z"/><path class="cls-4" d="M1276.86,630.32s-36.36-34.45-49.57-71.74c0,0-6.11-21.89,20.12-32.33a53.79,53.79,0,0,1,30.22.13l.61.2c15.89,5.34,16.25,35.35,16.25,35.35s-.41,19,13,47.29A98,98,0,0,1,1276.86,630.32Z"/><path class="cls-4" d="M1262.63,619.48s3.89,25,17.5,36.93c0,0,5.16,4.83,13.68-3.86a6.3,6.3,0,0,0,.73-8,28.34,28.34,0,0,0-9.26-7.7s-6.31-3.19-13-16.38c0,0-1.78-3.27-3.52-3.68C1268.8,616.76,1265.49,615.38,1262.63,619.48Z"/><path class="cls-8" d="M1135,441s-12,4-9,19c0,0,8,5,13,0Z"/><path class="cls-4" d="M1140,456c-1,0-9,1-12,4,0,0,1.11,22.52,9.05,31.76,0,0,12.95,5.24,20.95,1.24,0,0,3-27-2-34A52.41,52.41,0,0,0,1140,456Z"/><path class="cls-4" d="M1163,535.78s9-28.78-3-44.78c0,0-16-9-25,0,0,0,2.45,27.9,9.73,33.45Z"/><path class="cls-4" d="M1133,425s-19,4-10,37c0,0,2,2,6,1,0,0-3-11,3-16C1132,447,1137,432,1133,425Z"/><path class="cls-4" d="M1159,544s4-1,5-7c0,0-7-13-12-13s-5.78,1.68-5.78,1.68Z"/><path class="cls-6" d="M1147,528s0-2,5-3c0,0,7,4,9,11,0,0-2,3-4,4C1157,540,1147,531,1147,528Z"/><path class="cls-4" d="M1175,403s-37,15-44,25c0,0-5,9-2,17,0,0,12,39,49,60,0,0,18,12,42-5,0,0,24-22,26-39a23.13,23.13,0,0,0-2-9s-17-44-36-52C1208,400,1196,394,1175,403Z"/><path class="cls-6" d="M1140,424l6,6s7,2,17-12Z"/><path class="cls-4" d="M960,517s-10-25-27-34c0,0-21,2-26,24,0,0,15,23,42,25Z"/><path class="cls-4" d="M963,539s-9,0-11-6,14-15,14-15l12,4Z"/><path class="cls-4" d="M909.49,739.66s-4.63,14.82-4.27,29.85l66.94,2.83s8.33-7.65-1.58-10.08L941.87,755a43.59,43.59,0,0,0-11.23-18.49Z"/><path class="cls-6" d="M916.66,736s8.87,3.38,13.35,15.58c0,0,1.83,4.08,5.87,3.25L941,753s-8.19-19.36-16.14-20.7Z"/><path class="cls-7" d="M942.64,755.24s-8.51-.52-16.31,15.16"/><path class="cls-6" d="M954.06,614.76s14.44,5.06,11.95,30c0,0-24.32.62-28.44-6s-1.75-23.47-1.75-23.47Z"/><path class="cls-4" d="M859.21,570.05C869.87,543.91,894,544,894,544c37.27,13.26,66,72.56,66,72.56-7.64,18.16-25.08,24-25.08,24s-51.61-39.52-71.69-51.12C863.21,589.49,854.9,580.61,859.21,570.05Z"/><path class="cls-4" d="M976.79,639.15s-25,1.29-32.45-.12c0,0-9.7-1.7-13.35,9.1,0,0-4.31,22.17-24,90.88,0,0,13.81,7.83,30.18,6.78C937.18,745.78,982.76,673.29,976.79,639.15Z"/><path class="cls-4" d="M980.66,607.57S989.34,627.71,984,645c0,0-1.88,6.82-13.68,3.86a6.3,6.3,0,0,1-4.82-6.46,28.34,28.34,0,0,1,3.88-11.4s3.71-6,2.49-20.73c0,0-.75-5.78,1.08-5A27.67,27.67,0,0,1,980.66,607.57Z"/><path class="cls-4" d="M818.47,524.22s-5.07,13.65-7,25.54c0,0,.6,18.1,36,26.87s44.87-9.56,44.87-9.56,3.84-10.73,1.09-27c0,0-.61-5.06-11.5-6.91l-54.29-11.23S819.78,520.31,818.47,524.22Z"/><path class="cls-6" d="M834,507s-4.84,9.3-4.53,18.35c0,0,26.16,13.24,57.53,9.65,0,0,.69-6.93,0-11Z"/><path class="cls-6" d="M842,479a49,49,0,0,0-11,28s25.52,18.52,57,24c0,0,12.83-13.22,14.82-23.22Z"/><path class="cls-4" d="M841,478s-2-8,4-19c0,0,19.56-38.31,44-47,0,0,21-8,47.35,20.41.68.73,10.75,12.86,12.35,21.94,0,0,3.25,10.27-5.7,22.64,0,0-26,33-41,46,0,0-12,10-33-9C869,514,844,492,841,478Z"/><path class="cls-5" d="M942,478s1-8-5-8.76c0,0-7.45-2-15,10.76,0,0-8,15,.66,20.6C922.66,500.6,938,484,942,478Z"/><path class="cls-7" d="M841,478s-2-8,4-19c0,0,19.56-38.31,44-47,0,0,21-8,47.35,20.41.68.73,10.75,12.86,12.35,21.94,0,0,3.25,10.27-5.7,22.64,0,0-26,33-41,46,0,0-12,10-33-9C869,514,844,492,841,478Z"/><path class="cls-6" d="M791.06,625S778.3,628.89,779,640l24,16s16.9-13,14-24Z"/><path class="cls-9" d="M780.75,642s-.48-12.16,9.82-13.88"/><circle class="cls-6" cx="922.45" cy="504.15" r="13.5" transform="translate(325.72 1369.59) rotate(-84.07)"/><path class="cls-9" d="M932.36,504.66s2.71-4.65-7.82-11.65"/><path class="cls-4" d="M712.49,741.66s-4.63,14.82-4.27,29.85l66.94,2.83s8.33-7.65-1.58-10.08L744.87,757a43.59,43.59,0,0,0-11.23-18.49Z"/><path class="cls-6" d="M719.66,738s8.87,3.38,13.35,15.58c0,0,1.83,4.08,5.87,3.25L744,755s-8.19-19.36-16.14-20.7Z"/><path class="cls-7" d="M745.64,757.24s-8.51-.52-16.31,15.16"/><path class="cls-6" d="M978.09,539.83a10.76,10.76,0,0,1-4.75,4.3s-12-.93-14-7.34a6.46,6.46,0,0,1,3.76-4.46S969.87,540.53,978.09,539.83Z"/><path class="cls-6" d="M982.84,535.54a7.1,7.1,0,0,1-4.91,5.28s-12-.93-14.83-8.48a10.82,10.82,0,0,1,4.08-6.43S976.59,536.55,982.84,535.54Z"/><path class="cls-6" d="M987.08,528.12s0,6.08-4.4,8.4c0,0-14.81-2.4-15.5-10.62,0,0,2.61-3.63,4.75-4.3C971.92,521.61,984,528.63,987.08,528.12Z"/><path class="cls-6" d="M966.18,511.87s-4.75,4.3-6.54,9.07a7.27,7.27,0,0,0,4.14,5.74s5.26-1.17,10.32-7.44c0,0-6.78-8.19-7.92-7.36"/><path class="cls-6" d="M978.49,524.78s2.91,6.45,11.83,4.91c0,0,6.72-1.94,5.74-8.95,0,0-10.72-1.06-12.23-2.71Z"/><path class="cls-6" d="M986.56,521.24s6.48,5.22,12,2.59c0,0,3.67-5.32,3.11-10.84h0s-9,1.1-10.57-.54h0l-4.51,8.79"/><path class="cls-6" d="M995.68,503.09s8.24-.3,9.48.38.36,8.14-2,10.89-8.82.31-8.82.31l1.56-10.74"/><path class="cls-6" d="M867.21,570.41a19.47,19.47,0,0,0,1.61-18c-4.22-9.91-22.39-17.52-28.26-11.39Z"/><path class="cls-4" d="M809.42,650.35s-24-6.87-30.66-10.63c0,0-8.63-4.75-15.58,4.29,0,0-14.31,34.37-55.19,93,0,0,7,12,29,7C737,744,804,684.58,809.42,650.35Z"/><path class="cls-4" d="M816,643s37.52-33.19,52-70c0,0,6.85-21.66-19-33a53.79,53.79,0,0,0-30.21-.91l-.61.18C802.12,544.06,800.73,574,800.73,574s-.25,19-14.61,46.81A98,98,0,0,0,816,643Z"/><path class="cls-4" d="M828.9,635.26s-6.35,24.46-21.07,35c0,0-5.62,4.3-13.23-5.19a6.3,6.3,0,0,1,.07-8.06,28.34,28.34,0,0,1,10-6.74s6.59-2.55,14.51-15c0,0,2.1-3.08,3.87-3.32C823,631.95,826.45,630.9,828.9,635.26Z"/><circle class="cls-4" cx="960.01" cy="329.14" r="3.75" transform="translate(516.19 1241.81) rotate(-82.99)"/><path class="cls-6" d="M940,435.5c-.92.38-4,6-4,6s-11.83-10.25-16.43-21.34Z"/><path class="cls-4" d="M942.23,352.89s24.57,5,30.91,10.85,13.58,28.87,4.69,52-28.73,20.65-28.73,20.65-35-2.29-50.53-23.34c0,0-6.72-10.9,2.18-25.93S936,354.15,936,354.15A8.76,8.76,0,0,1,942.23,352.89Z"/><path class="cls-10" d="M980.67,380.29s-6.83-1.85-10.92-1.34-9.18.89-9.91,6.84c0,0-1.81,23-8,32.27,0,0-5.94,7.33,2,8.31,0,0,12.14,2.38,17.79.11C971.63,426.47,986.19,409.18,980.67,380.29Z"/><path class="cls-11" d="M965.69,395.58s7.57,4,10.19,7.3c0,0,1.62,3.22.38,5.08,0,0-9.93-1.22-10.43-5.31A24.42,24.42,0,0,1,965.69,395.58Z"/><path class="cls-6" d="M948.45,396.48s-.72,14-4.67,21.59c0,0-4.82,6.46-14.63,4.25,0,0-17.74-3.19-25.33-15.2a7.2,7.2,0,0,1,.85-6.95s7.54-12.17,13-15.53c0,0,3.34-2.61,9.18-.89,0,0,13.65,3.69,18.25,7.28C945.09,391,948.82,393.5,948.45,396.48Z"/><path class="cls-4" d="M944.24,398s-3.4,16.27-6.9,23.33c0,0-1.24,1.86-12-.47,0,0-13.77-2.7-21.49-13.72,0,0-1.61-2.15.58-5.62,0,0,6.66-11.35,11.44-14.51,0,0,2.71-3.17,7.78-1.61,0,0,11.67,3.45,16.26,7C939.89,392.4,944.58,395.21,944.24,398Z"/><path class="cls-4" d="M946.53,363s9.21-27,12.26-30.71l.6.36s-9.76,29.73-10.88,30.6A1.39,1.39,0,0,1,946.53,363Z"/><circle class="cls-6" cx="897.94" cy="447.71" r="20" transform="matrix(0.99, -0.15, 0.15, 0.99, -57.86, 142.46)"/><path class="cls-4" d="M921.71,453a224.18,224.18,0,0,1,7.94,39.33s-11.29,9.39-23.2,10.79c0,0-19.69-4.74-31.36-35.59,0,0-5.6-13.44,26.82-20.26C901.91,447.27,919.67,444.18,921.71,453Z"/><path class="cls-6" d="M990.24,500.6s-.92-7.75-3.55-9.5a9.13,9.13,0,0,0-7.53,3.36s-2.92,7.56.16,11.49Z"/><path class="cls-4" d="M981.65,497.78l14,5.31s1.16,18.4-11.18,26.13c0,0-8.8-1.62-13.35-6.55a12.13,12.13,0,0,1-2.35-4.53c-1.42-4.9,5-15,7.08-18.7A5.64,5.64,0,0,1,981.65,497.78Z"/><path class="cls-4" d="M934.15,492.58s37.06,5.59,41.09,7.55c0,0,3.72,15.57-1.89,22.09,0,0-22.67,18.18-44.37,9.62a11.68,11.68,0,0,1-5.48-7.14s-4.15-17.31,3.5-29.32C927,495.38,929.94,492,934.15,492.58Z"/><path class="cls-4" d="M896.2,413.06s19,1,20,19.07c.06,1-1.78,14.93-1,20,0,0-8.51,9.57-19.39,7,0,0-4.47-10.25-17.51-9.93,0,0-8.62-7.46-3.9-21.23A22.9,22.9,0,0,1,896.2,413.06Z"/><path class="cls-4" d="M1138.87,343.89s-25.57,4-31.91,9.85-13.58,28.87-4.69,52S1131,426.35,1131,426.35s35-2.29,50.53-23.34c0,0,6.72-10.9-2.18-25.93s-34.28-31.94-34.28-31.94A8.76,8.76,0,0,0,1138.87,343.89Z"/><path class="cls-10" d="M1099,375s19-7,23-8,7-1,10,3c0,0,11,16,22,27,0,0,3,5-1,9,0,0-17,14-44.54,10.47C1108.46,416.47,1096,403,1099,375Z"/><path class="cls-12" d="M1130,377.58s-7.61,7.44-9.46,11.26c0,0-.82,4,.78,5.57,0,0,11.58-5.66,11.21-9.77C1132.53,384.64,1132.59,381.64,1130,377.58Z"/><path class="cls-6" d="M1150,377a188.83,188.83,0,0,0,10,18s4,5.84,11.22,2.54c0,0,10.3-2.17,13.85-14.78a8.85,8.85,0,0,0-2.07-6.69s-8.38-11-13.34-13.66a7.18,7.18,0,0,0-7.39.2s-10.27,3.39-11.88,8.22A10.82,10.82,0,0,0,1150,377Z"/><path class="cls-4" d="M1154.46,375.51s7.95,14.5,12.12,21c0,0,.4,3,8.42-.5,0,0,6.23-1.58,10.07-13.24,0,0,.83-2.28-1.59-5.43,0,0-7.09-10.8-11.48-13.34,0,0-4-2-7-1,0,0-6.11,2-9,6C1156,369,1153.64,372.85,1154.46,375.51Z"/><path class="cls-12" d="M1099.5,387.5s6.22,2.25,9.62,4.79a41.32,41.32,0,0,1,1.87,5.31s-6.93,0-10.23-2.63C1100.75,395,1099.15,393.57,1099.5,387.5Z"/><ellipse class="cls-2" cx="1159" cy="462" rx="15.64" ry="20" transform="translate(-80.06 608.46) rotate(-28.47)"/><circle class="cls-6" cx="1207.06" cy="427.02" r="20" transform="translate(683.71 1595.55) rotate(-85.36)"/><path class="cls-6" d="M1142.68,520.05s-1.64,6.88-10.69,7c0,0-7-.64-7.32-7.71,0,0,10.33-3.06,11.5-5Z"/><path class="cls-6" d="M1134.09,518.09s-5.38,6.34-11.26,4.8c0,0-4.6-4.53-5.1-10.06h0s9.1-.62,10.28-2.52h0l6.09,7.78"/><path class="cls-6" d="M1121.71,502s-8.15,1.26-9.24,2.16,1.18,8.06,4,10.33,8.72-1.36,8.72-1.36l-3.55-10.26"/><path class="cls-6" d="M1126.58,498.52s-.56-7.79,1.7-10a9.13,9.13,0,0,1,8,1.88s4.29,6.87,2,11.32Z"/><path class="cls-4" d="M1134.49,494.13,1121.71,502s2.33,18.29,15.9,23.56c0,0,8.33-3.25,11.87-8.95a12.13,12.13,0,0,0,1.46-4.89c.47-5.08-7.77-13.77-10.48-17A5.64,5.64,0,0,0,1134.49,494.13Z"/><circle class="cls-6" cx="1190.59" cy="487.53" r="13.5" transform="translate(582.68 1621.4) rotate(-84.07)"/><path class="cls-4" d="M1183.74,434a224.18,224.18,0,0,0-5.07,39.8S1194,483.47,1206,484c0,0,15.88-7.25,25.29-38.87,0,0,4.62-13.81-28.22-18.27C1203.08,426.86,1185.14,425.07,1183.74,434Z"/><path class="cls-4" d="M1221,397.13s17.39,12.4,8,27.87c-.52.85-8.3,10.48-10.57,15,0,0-12.44,3-19.93-5.28a23,23,0,0,0-12.75-18.12s-2.85-11,8.87-19.68A22.9,22.9,0,0,1,1221,397.13Z"/><path class="cls-4" d="M1175.85,472.36s-32.76,18.21-35.84,21.45c0,0,2,15.89,9.5,20,0,0,27.6,9.09,44.93-6.52a11.68,11.68,0,0,0,2.63-8.61s-2.17-17.67-13.54-26.24C1183.53,472.48,1179.6,470.37,1175.85,472.36Z"/><path class="cls-6" d="M1141.83,546.45a10.76,10.76,0,0,0,4.42,4.63s12,0,14.51-6.29a6.46,6.46,0,0,0-3.42-4.72S1150,547.75,1141.83,546.45Z"/><path class="cls-6" d="M1137.41,541.82a7.1,7.1,0,0,0,4.51,5.63s12,0,15.42-7.37a10.82,10.82,0,0,0-3.6-6.71S1143.56,543.29,1137.41,541.82Z"/><path class="cls-6" d="M1134.73,534.11s-.47,6.06,3.77,8.7c0,0,14.94-1.3,16.24-9.45,0,0-2.34-3.81-4.42-4.63C1150.32,528.73,1137.8,534.85,1134.73,534.11Z"/><path class="cls-9" d="M1310.5,631.5s-2-12-12-15"/></g></svg>