<svg xmlns="http://www.w3.org/2000/svg" viewBox="0 0 1920 1080"><defs><style>.cls-1,.cls-12,.cls-8{fill:none;}.cls-11,.cls-2{fill:#ffcc62;stroke:#ff9d00;}.cls-10,.cls-11,.cls-12,.cls-2,.cls-3,.cls-4,.cls-6,.cls-7,.cls-8,.cls-9{stroke-miterlimit:10;}.cls-2,.cls-3,.cls-4,.cls-6,.cls-7,.cls-8,.cls-9{stroke-width:2px;}.cls-3{fill:#595462;}.cls-12,.cls-3,.cls-6,.cls-7,.cls-8,.cls-9{stroke:#1b1f32;}.cls-10,.cls-4{fill:#00adab;stroke:#007774;}.cls-5,.cls-7{fill:#403c47;}.cls-6{fill:#e2e2e2;}.cls-9{fill:#101218;}</style></defs><title>AI_Loader_1</title><g id="Layer_31" data-name="Layer 31"><rect class="cls-1" width="1920" height="1080"/></g><g id="_1_-_2" data-name="1 - 2"><polygon class="cls-2" points="1233 437 1150 234 1147 260 1222 442 1233 437"/><path class="cls-3" d="M1238.41,447.3C1238,447,1268,520,1268,520s-3,6-12,5l-30-74,12.41-3.7"/><path class="cls-3" d="M1216,443l-12,2s0,6,4,8a94.42,94.42,0,0,1,14-1S1219,442,1216,443Z"/><path class="cls-3" d="M1241,432s3,6-2,15l-18,6s-6-5-6-11Z"/><path class="cls-3" d="M707,541c-1,1-38,57-38,57s-8-3-10-8l37-56Z"/><path class="cls-3" d="M713,531l17-2s1,3-1,5l-10,5s-3,2-11,0Z"/><path class="cls-3" d="M701.63,523.81,697,507.32s-3.16.21-4.25,2.82L692,521.29s-.71,3.53,4.17,10.18Z"/><path class="cls-4" d="M702,524c0-1,116-191,116-191v24L713,530Z"/><polygon class="cls-3" points="701 520 718 530 708 543 694 535 701 520"/></g><g id="_1" data-name="1"><path class="cls-5" d="M1286,434s-6,10-4,13l12,1,5-19A11,11,0,0,0,1286,434Z"/><path class="cls-6" d="M1284,440s7,1,11,6c0,0-11,21-14,22l-15-6S1276,444,1284,440Z"/><path class="cls-6" d="M1298,417s-19,4-17,24h3s5-11,17-13c0,0,2-9-3-11"/><path class="cls-6" d="M1257,464s4-5,7-5c0,0,6-1,14,6,0,0-4,7-7,7Z"/><path class="cls-7" d="M1236.5,452.5s1-6,4-7c0,0,6-1,8,4,0,0,0,4-1,6Z"/><path class="cls-7" d="M1237,490s-2,6,3,8c0,0,7,3,11-2,0,0-1-5-2-6C1249,490,1239,492,1237,490Z"/><path class="cls-7" d="M1234,483s-3,3,1,7a14.52,14.52,0,0,0,13,1l-3-7S1238,486,1234,483Z"/><path class="cls-7" d="M1233,482s2,3,10,3c0,0,3-2,2-5l-10-1S1232,480,1233,482Z"/><path class="cls-7" d="M1236,473l-10.83-.66S1224,477,1231,481c0,0,6,1,8-2Z"/><path class="cls-7" d="M1232,464l-11-1s-2,6,3,9c0,0,6,2,10,1Z"/><path class="cls-7" d="M1234.08,453.5S1223,452,1222,453c0,0-3,6-1,9a19.09,19.09,0,0,0,9.25,2.28Z"/><path class="cls-6" d="M1251.5,458.5s-7-7-15-6c0,0-4.68.94-5.89,5.53q-.06.23-.11.47c-1,5,0,16,7,21,0,0,4,2,7,0Z"/><path class="cls-6" d="M1253,458s16,6,22,10c0,0,14,8,8,24,0,0-7,16-24,10a21.52,21.52,0,0,1-10-8,98.29,98.29,0,0,1-8-15s-3-13,2-17A17.53,17.53,0,0,1,1253,458Z"/><path class="cls-7" d="M1279.32,626.65s5,12.33-4.24,18.84l-23.39-7.6S1244,619,1261,612Z"/><path class="cls-6" d="M1360.24,560.29c-10.09-26.36-33.58-18-33.58-18-36.54,15.15-70.56,67.09-70.56,67.09C1264.66,627.16,1284,634,1284,634c25-17,45-25,45-25s30.5-10.85,35-27C1364,582,1366.47,576.58,1360.24,560.29Z"/><path class="cls-7" d="M572,640s-8,2-11,12l25,11s11-9,9-18S572,640,572,640Z"/><path class="cls-6" d="M574,541c27.24-7.43,39,17,39,17,12.13,37.65-14.66,91.29-14.66,91.29C579.28,654.26,564,644,564,644s0-65-3-88C561,556,563,544,574,541Z"/><path class="cls-6" d="M564,528s-4,14-5,26c0,0,2,18,38,24s44-13,44-13,3-11-1-27c0,0-1-5-12-6l-55-7S565,524,564,528Z"/><path class="cls-7" d="M570,511a45.78,45.78,0,0,0-1,16s30,12,61,6c0,0,1-8,0-12Z"/><path class="cls-7" d="M577,478s-10,18-11,35c0,0,28,16,62,13,0,0,8-15,10-25Z"/><path class="cls-7" d="M682,583a10.76,10.76,0,0,1-4,5s-12,1-15-5a6.46,6.46,0,0,1,3-5S674,585,682,583Z"/><path class="cls-7" d="M686,578a7.1,7.1,0,0,1-4,6s-12,1-16-6a10.82,10.82,0,0,1,3-7S680,580,686,578Z"/><path class="cls-7" d="M689,570s1,6-3,9c0,0-15,0-17-8,0,0,2-4,4-5C673,566,686,571,689,570Z"/><path class="cls-7" d="M667,558s-4,5-5,10a7.27,7.27,0,0,0,5,5s5-2,9-9c0,0-8-7-9-6"/><path class="cls-7" d="M677,565s1,7,10,8c0,0,7,0,8-7,0,0-10-4-11-6Z"/><path class="cls-6" d="M656.5,420.5c.75.66,9,9,11,20,0,0,2.5,14.5-1.5,23.5,0,0-16,34-28,45a27,27,0,0,1-29,1s-26-12-35-32c0,0-3-8,3-21,0,0,14-36,37-48C614,409,632,399,656.5,420.5Z"/><path class="cls-4" d="M667,459s1-6-2-8c0,0-5-4-11,12,0,0-6,18,1,21C655,484,666,466,667,459Z"/><path class="cls-8" d="M656.5,420.5c.75.66,9,9,11,20,0,0,2.5,14.5-1.5,23.5,0,0-16,34-28,45a27,27,0,0,1-29,1s-26-12-35-32c0,0-3-8,3-21,0,0,14-36,37-48C614,409,632,399,656.5,420.5Z"/><path class="cls-7" d="M661,418l-4,8s-7.39-4.19-10.7-10.59Z"/><path class="cls-6" d="M655,336s25,2,32,7,17,27,11,51-26,24-26,24-35,2-53-17c0,0-8-10-1-26s31-37,31-37A8.76,8.76,0,0,1,655,336Z"/><path class="cls-9" d="M696.5,358.5s-7-1-11,0-9,2-9,8c0,0,1,23-4,33,0,0-5,8,3,8,0,0,12.34.89,17.67-2.06C693.17,405.44,705.5,386.5,696.5,358.5Z"/><path class="cls-10" d="M683.5,375.5s8,3,11,6c0,0,2,3,1,5,0,0-10,0-11-4A24.42,24.42,0,0,1,683.5,375.5Z"/><path class="cls-7" d="M666.5,378.5s1,14-2,22c0,0-4,7-14,6,0,0-18-1-27-12a7.2,7.2,0,0,1,0-7s6-13,11-17c0,0,3-3,9-2,0,0,14,2,19,5C662.5,373.5,666.5,375.5,666.5,378.5Z"/><path class="cls-6" d="M662.5,380.5s-1.39,16.56-4,24c0,0-1,2-12,1,0,0-14-1-23-11,0,0-1.86-1.93-.11-5.65,0,0,5.23-12.08,9.59-15.8,0,0,2.3-3.48,7.53-2.55,0,0,12,2,17,5C657.5,375.5,662.5,377.71,662.5,380.5Z"/><circle class="cls-7" cx="623" cy="451" r="20"/><circle class="cls-7" cx="636.5" cy="508.5" r="13.5"/><path class="cls-6" d="M645.72,459.84a224.18,224.18,0,0,1,1.83,40.08S635,507.47,623,507c0,0-18.73-7.69-25.55-40,0,0-3.48-14.14,29.6-15.92C627,451.14,645,450.8,645.72,459.84Z"/><path class="cls-6" d="M621,412s-23,2-21,32c0,0,13,5,16,11,0,0,9,3,16-1,0,0,6-11,14-15C646,439,645,410,621,412Z"/><path class="cls-6" d="M652.34,504.07s24.33,28.51,26.09,32.62c0,0-8.89,14.49-11.94,15.31,0,0-33-1-43.78-21.67a11.68,11.68,0,0,1,.54-9s8.21-15.8,21.85-19.86C645.11,501.5,649.53,500.89,652.34,504.07Z"/><path class="cls-7" d="M684.22,562.19S689,569,695,568c0,0,5-4.09,6-9.54h0S692,557,691,555h0l-6.78,7.19"/><path class="cls-7" d="M695,544s8,2,9,3,1,9-2,11-11.48-3.24-11.48-3.24l4.48-9.89"/><path class="cls-6" d="M683,535l12,9s-4,18-18,22c0,0-8-4-11-10a12.13,12.13,0,0,1-1-5c0-5.1,9-13,12-16A5.64,5.64,0,0,1,683,535Z"/><path class="cls-7" d="M611,548a19.47,19.47,0,0,0-18-2c-10,4-18,22-12,28Z"/><path class="cls-7" d="M666,624s-3,13,7,18l22-11s-4-19-15-22Z"/><path class="cls-6" d="M699,743s-4,15-3,30h67s8-8-2-10l-29-6a43.59,43.59,0,0,0-12-18Z"/><path class="cls-7" d="M706,739s9,3,14,15c0,0,2,4,6,3l5-2s-9-19-17-20Z"/><path class="cls-8" d="M732.78,757.16S724.25,757,717.13,773"/><path class="cls-6" d="M697,622s-20,15-27,18c0,0-9,4-6,15,0,0,11,23,33,91,0,0,14,6,27-4C724,742,721,647,697,622Z"/><path class="cls-6" d="M684,610s-32-49-69-63c0,0-22-7-33,19,0,0-6.82,17.55-2.18,33.39l.18.61c5,16,35,17,35,17s19,0,47,14C662,631,676,628,684,610Z"/><path class="cls-6" d="M694,606s16,15,18,33c0,0,1,7-11,9a6.3,6.3,0,0,1-7-4,28.34,28.34,0,0,1-1-12s1-7-6-20c0,0-3-5-1-5A27.67,27.67,0,0,1,694,606Z"/><path class="cls-6" d="M497.25,761.41,543,763s7.66-9-2.27-11.33l-28.77-7a43.59,43.59,0,0,0-11.36-18.41S494,718,493,717s-21,15-24.75,24Z"/><path class="cls-7" d="M494,723s7.71,5.2,10,18c0,0,.88,5.11,5,5l3-1s-4.91-20-12.5-22.71Z"/><path class="cls-8" d="M513,745s-11,3-16,16"/><path class="cls-6" d="M660.5,345.5s5.84-28,8.42-32l.64.28s-6.06,30.69-7.06,31.69A1.39,1.39,0,0,1,660.5,345.5Z"/><circle class="cls-6" cx="669.75" cy="310.25" r="3.75"/><path class="cls-6" d="M591.43,659.57s-23.12-9.52-29.27-14c0,0-8-5.69-16,2.51,0,0-8.14,16.21-55.33,69.89,0,0,3.89,15,19.13,21C510,739,582.22,693,591.43,659.57Z"/><path class="cls-6" d="M608.45,632.69s-.78,21.92-13,35.26c0,0-4.62,5.36-14-2.37a6.3,6.3,0,0,1-1.59-7.9A28.34,28.34,0,0,1,588.2,649s5.93-3.85,11.12-17.67c0,0,1.79-5.55,3.11-4A27.67,27.67,0,0,1,608.45,632.69Z"/><path class="cls-6" d="M1397.28,528s4,14,5,26c0,0-2,18-38,24s-44-13-44-13-3-11,1-27c0,0,1-5,12-6l55-7S1396.28,524,1397.28,528Z"/><path class="cls-7" d="M1391.28,511a45.78,45.78,0,0,1,1,16s-30,12-61,6c0,0-1-8,0-12Z"/><path class="cls-7" d="M1384.28,478s10,18,11,35c0,0-31.28,16-65.28,13,0,0-7-14-6.72-25Z"/><path class="cls-4" d="M1292.28,456s-1-6,2-8c0,0,5-4,11,12,0,0,6,18-1,21C1304.28,481,1293.28,463,1292.28,456Z"/><path class="cls-7" d="M1360.11,580.68a19.47,19.47,0,0,1-1-18.08c4.56-9.76,23-16.72,28.64-10.39Z"/><path class="cls-7" d="M1446.62,639.87s12.9,3.17,12.81,14.45l-19.83,14.55s-15.07-12.24-12.72-23.39Z"/><path class="cls-6" d="M1519.28,743s4,15,3,30h-67s-8-8,2-10l29-6a43.59,43.59,0,0,1,12-18Z"/><path class="cls-6" d="M1302.78,417.5c-.75.66-9,9-11,20,0,0-2.5,14.5,1.5,23.5,0,0,12.72,34,23.72,46,0,0,9,11,23,3,0,0,36.28-15,45.28-35,0,0,3-8-3-21,0,0-14-36-37-48C1345.28,406,1327.28,396,1302.78,417.5Z"/><path class="cls-7" d="M1512.28,739s-9,3-14,15c0,0-2,4-6,3l-5-2s9-19,17-20Z"/><path class="cls-8" d="M1485.51,757.16S1494,757,1501.16,773"/><path class="cls-6" d="M1431.63,665.33S1450,661,1464,653c0,0,13-6,17,4,0,0,6.26,21.11,42,83,0,0-11,8-31,6C1492,746,1434.1,699.9,1431.63,665.33Z"/><path class="cls-6" d="M1430,656s-53.59-31.35-70.56-67.08c0,0-8.77-21.36,16.24-34.44,0,0,16.93-8.23,33.1-4.9l.62.13c16.35,3.68,19.8,33.5,19.8,33.5s5.56,24,21.8,50.8C1451,634,1447.29,646.56,1430,656Z"/><path class="cls-6" d="M1407.17,642.81s6.81,20.85,22.27,30.28c0,0,5.92,3.87,12.81-6.15a6.3,6.3,0,0,0-.66-8,28.34,28.34,0,0,0-10.45-6s-6.76-2.06-15.58-13.9c0,0-3.26-4.83-4.11-3A27.67,27.67,0,0,0,1407.17,642.81Z"/><circle class="cls-7" cx="1272.5" cy="483.5" r="13.5" transform="translate(98 1171.68) rotate(-51.17)"/><path class="cls-6" d="M1285.78,344.5s-5.84-28-8.42-32l-.64.28s6.06,30.69,7.06,31.69A1.39,1.39,0,0,0,1285.78,344.5Z"/><circle class="cls-6" cx="1276.53" cy="309.25" r="3.75"/><path class="cls-7" d="M1293.28,413l6.72,11s19.84-12.09,25-18c0,0-4-4-5-4Z"/><path class="cls-6" d="M1291.28,335s-25,2-32,7-17,27-11,51,26,24,26,24,35,2,53-17c0,0,8-10,1-26s-31-37-31-37A8.76,8.76,0,0,0,1291.28,335Z"/><path class="cls-9" d="M1249.78,357.5s7-1,11,0,9,2,9,8c0,0-1,23,4,33,0,0,5,8-3,8,0,0-12.34.89-17.67-2.06C1253.12,404.44,1240.78,385.5,1249.78,357.5Z"/><path class="cls-11" d="M1262.78,374.5s-8,3-11,6c0,0-2,3-1,5,0,0,10,0,11-4A24.42,24.42,0,0,0,1262.78,374.5Z"/><path class="cls-7" d="M1279.78,377.5s-1,14,2,22c0,0,4,7,14,6,0,0,18-1,27-12a7.2,7.2,0,0,0,0-7s-6-13-11-17c0,0-3-3-9-2,0,0-14,2-19,5C1283.78,372.5,1279.78,374.5,1279.78,377.5Z"/><path class="cls-6" d="M1283.78,379.5s1.39,16.56,4,24c0,0,1,2,12,1,0,0,14-1,23-11,0,0,1.86-1.93.11-5.65,0,0-5.23-12.08-9.59-15.8,0,0-2.3-3.48-7.53-2.55,0,0-12,2-17,5C1288.78,374.5,1283.78,376.71,1283.78,379.5Z"/><path class="cls-6" d="M1275.28,735s4,15,3,30h-67s-8-8,2-10l29-6a43.59,43.59,0,0,1,12-18Z"/><path class="cls-7" d="M1268.28,731s-9,3-14,15c0,0-2,4-6,3l-5-2s9-19,17-20Z"/><path class="cls-8" d="M1241.51,749.16S1250,749,1257.16,765"/><path class="cls-6" d="M1248.39,635.14s17.23,7.72,33.21,9.86c0,0,12.41,2,10.41,14,0,0-4,9-14,80,0,0-16,10.63-30.64-3.11C1247.36,735.89,1229.36,664.11,1248.39,635.14Z"/><path class="cls-6" d="M1251.65,602.4s-12.7,17.88-11.08,35.92c0,0,.41,7.06,12.57,6.64a6.3,6.3,0,0,0,6.07-5.31,28.34,28.34,0,0,0-1.4-12s-2.37-6.66,1.91-20.79c0,0,1.95-5.5,0-5.1A27.67,27.67,0,0,0,1251.65,602.4Z"/><path class="cls-12" d="M1269,468a14.11,14.11,0,0,0-15,8s-4,9,1,18c0,0,4,8,17,8"/><path class="cls-12" d="M1275.5,487.5a9.14,9.14,0,0,1-8.74,8.22"/><circle class="cls-7" cx="1315.67" cy="448.94" r="20" transform="translate(141.04 1192.42) rotate(-51.17)"/><path class="cls-6" d="M1292.43,441.58a224.18,224.18,0,0,0-26.56,30.07s5.07,13.78,14.69,21c0,0,19.41,5.75,45-15.11,0,0,11.58-8.83-13.08-31C1312.45,446.53,1298.62,435,1292.43,441.58Z"/><path class="cls-6" d="M1341.68,419.81s16.66,16-3.7,38.1c0,0-13.26-4.26-19.36-1.46,0,0-8.89-3.31-11.84-10.81,0,0,2.22-12.33-1.5-20.46C1305.28,425.17,1324.24,403.2,1341.68,419.81Z"/></g></svg>